<?xml version="1.0" encoding="UTF-8"?>
<svg width="48px" height="48px" viewBox="0 0 48 48" version="1.1" xmlns="http://www.w3.org/2000/svg" xmlns:xlink="http://www.w3.org/1999/xlink">
    <!-- Generator: Sketch 63.1 (92452) - https://sketch.com -->
    <title>办公楼</title>
    <desc>Created with Sketch.</desc>
    <g id="办公楼" stroke="none" stroke-width="1" fill="none" fill-rule="evenodd">
        <g id="编组" transform="translate(1.000000, 1.000000)" fill="#2D92FF" fill-rule="nonzero">
            <path d="M44.2322612,42.4645223 L38.9235032,42.4645223 L38.9235032,33.3653777 C41.9713288,32.5784845 44.2322612,29.8299 44.2322612,26.5382484 C44.2322612,22.6314902 41.0625226,19.4617516 37.1557644,19.4617516 C33.2490061,19.4617516 30.0792676,22.6314902 30.0792676,26.5382484 C30.0792676,29.8299 32.3402,32.5784845 35.3880255,33.3653777 L35.3880255,42.4645223 L28.3059872,42.4645223 L28.3059872,3.53547765 L30.3175521,3.53547765 C31.1543188,3.53547765 31.8414649,2.84833153 31.8414649,2.01156487 L31.8414649,1.52391278 C31.8414649,0.687146127 31.1543188,0 30.3175521,0 L5.05939043,0 C4.22262378,0 3.53547765,0.687146127 3.53547765,1.52391278 L3.53547765,2.01156487 C3.53547765,2.84833153 4.22262378,3.53547765 5.05939043,3.53547765 L7.07095531,3.53547765 L7.07095531,42.4645223 L1.76773883,42.4645223 C0.792434646,42.4645223 0,43.2624985 0,44.2322612 C0,45.2075654 0.797976147,46 1.76773883,46 L44.2322612,46 C45.2075654,46 46,45.2020239 46,44.2322612 C46,43.256957 45.2020239,42.4645223 44.2322612,42.4645223 Z M33.6147452,26.5382484 C33.6147452,24.5820985 35.1996145,22.9972292 37.1557644,22.9972292 C39.1119142,22.9972292 40.6967835,24.5820985 40.6967835,26.5382484 C40.6967835,28.4943983 39.1119142,30.0792676 37.1557644,30.0792676 C35.1996145,30.0792676 33.6147452,28.4943983 33.6147452,26.5382484 Z M10.6119745,3.53547765 L24.7649681,3.53547765 L24.7649681,42.4645223 L10.6119745,42.4645223 L10.6119745,3.53547765 Z" id="形状"></path>
            <path d="M15.8895992,14.4547367 L19.2376735,14.4547367 C20.1598348,14.4547367 20.9090909,13.6462581 20.9090909,12.663732 C20.9090909,11.6812059 20.1545953,10.8727273 19.2376735,10.8727273 L15.8895992,10.8727273 C14.9674379,10.8727273 14.2181818,11.6812059 14.2181818,12.663732 C14.2181818,13.6462581 14.9674379,14.4547367 15.8895992,14.4547367 Z M19.2376735,32.381627 L15.8895992,32.381627 C14.9674379,32.381627 14.2181818,33.1901056 14.2181818,34.1726317 C14.2181818,35.1607722 14.9726774,35.9636364 15.8895992,35.9636364 L19.2376735,35.9636364 C20.1598348,35.9636364 20.9090909,35.1551578 20.9090909,34.1726317 C20.9090909,33.1901056 20.1545953,32.381627 19.2376735,32.381627 Z M19.2376735,21.6243699 L15.8895992,21.6243699 C14.9674379,21.6243699 14.2181818,22.4328485 14.2181818,23.4153746 C14.2181818,24.4035151 14.9726774,25.2063793 15.8895992,25.2063793 L19.2376735,25.2063793 C20.1598348,25.2063793 20.9090909,24.3979007 20.9090909,23.4153746 C20.9090909,22.4328485 20.1545953,21.6243699 19.2376735,21.6243699 Z" id="形状"></path>
        </g>
    </g>
</svg>