<?xml version="1.0" encoding="UTF-8"?>
<svg width="48px" height="48px" viewBox="0 0 48 48" version="1.1" xmlns="http://www.w3.org/2000/svg" xmlns:xlink="http://www.w3.org/1999/xlink">
    <!-- Generator: Sketch 63.1 (92452) - https://sketch.com -->
    <title>教学楼</title>
    <desc>Created with Sketch.</desc>
    <g id="教学楼" stroke="none" stroke-width="1" fill="none" fill-rule="evenodd">
        <g id="编组" transform="translate(2.000000, 2.000000)" fill="#2D92FF" fill-rule="nonzero">
            <path d="M21.9,2.19 L21.9,41.61 L2.19,41.61 L2.19,2.19 L21.9,2.19 M24.09,0 L0,0 L0,43.8 L24.09,43.8 L24.09,0 Z M41.61,16.425 L41.61,41.61 L24.09,41.61 L24.09,16.425 L41.61,16.425 M43.8,14.235 L21.9,14.235 L21.9,43.8 L43.8,43.8 L43.8,14.235 Z M36.135,32.85 L36.135,41.61 L30.66,41.61 L30.66,32.85 L36.135,32.85 M38.325,30.66 L28.47,30.66 L28.47,43.8 L38.325,43.8 L38.325,30.66 L38.325,30.66 Z M14.235,32.85 L14.235,41.61 L8.76000002,41.61 L8.76000002,32.85 L14.235,32.85 M16.425,30.66 L6.57000001,30.66 L6.57000001,43.8 L16.425,43.8 L16.425,30.66 L16.425,30.66 Z M8.76000002,6.57000001 L6.57000001,6.57000001 L6.57000001,27.375 L8.76000002,27.375 L8.76000002,6.57000001 Z M16.425,6.57000001 L14.235,6.57000001 L14.235,27.375 L16.425,27.375 L16.425,6.57000001 Z M38.325,19.71 L28.47,19.71 L28.47,21.9 L38.325,21.9 L38.325,19.71 Z M38.325,25.185 L28.47,25.185 L28.47,27.375 L38.325,27.375 L38.325,25.185 Z" id="形状"></path>
        </g>
    </g>
</svg>