<?xml version="1.0" encoding="UTF-8"?>
<svg width="44px" height="44px" viewBox="0 0 44 44" version="1.1" xmlns="http://www.w3.org/2000/svg" xmlns:xlink="http://www.w3.org/1999/xlink">
    <!-- Generator: Sketch 63.1 (92452) - https://sketch.com -->
    <title>钱币</title>
    <desc>Created with Sketch.</desc>
    <g id="钱币" stroke="none" stroke-width="1" fill="none" fill-rule="evenodd">
        <g id="编组-25" transform="translate(1.000000, 1.000000)">
            <g id="编组" fill-rule="nonzero">
                <path d="M0,21 C0,28.5025773 4.00257725,35.4352447 10.5,39.1865334 C16.9974226,42.9378222 25.0025774,42.9378222 31.5,39.1865334 C37.9974227,35.4352447 42,28.5025773 42,21 C42,9.40202018 32.5979797,0 21,0 C9.40202025,0 0,9.40202018 0,21 Z" id="路径" fill="#FAB001"></path>
                <path d="M38,18.3376252 C38,12.1770386 35.3125229,6.65343348 31.0496281,2.86874106 C27.9868309,1.04613734 24.4097061,0 20.5916352,0 C9.22082673,0 0,9.25250358 0,20.6623748 C0,26.8229614 2.68747714,32.3465665 6.95037191,36.1312589 C10.0178027,37.9492132 13.5902939,39 17.4129984,39 C28.7838069,39 38,29.7474964 38,18.3376252 Z" id="路径" fill="#F9E48A"></path>
                <path d="M23.9348338,2 C12.3745093,2 3,11.4406991 3,23.0826467 C3,28.8941323 5.34127192,34.1553059 9.1240513,37.9695381 C11.8374771,39.2646692 14.8618163,40 18.0651662,40 C29.6254907,40 39,30.5593009 39,18.9173533 C39,13.1058677 36.6587281,7.84469413 32.8759487,4.03046192 C30.1625229,2.73533084 27.1334729,2 23.9348338,2 Z" id="路径" fill="#FECE0A"></path>
            </g>
            <text id="¥" font-family="HelveticaNeue, Helvetica Neue" font-size="24" font-weight="normal" letter-spacing="1.2" fill="#FFFFFF">
                <tspan x="14" y="30">¥</tspan>
            </text>
        </g>
    </g>
</svg>