<?xml version="1.0" encoding="UTF-8"?>
<svg width="48px" height="48px" viewBox="0 0 48 48" version="1.1" xmlns="http://www.w3.org/2000/svg" xmlns:xlink="http://www.w3.org/1999/xlink">
    <!-- Generator: Sketch 63.1 (92452) - https://sketch.com -->
    <title>其他楼</title>
    <desc>Created with Sketch.</desc>
    <g id="其他楼" stroke="none" stroke-width="1" fill="none" fill-rule="evenodd">
        <g id="编组" transform="translate(1.000000, 2.000000)" fill="#2D92FF" fill-rule="nonzero">
            <path d="M8.99015471,40.94 L1.68565401,40.94 C0.694092827,40.94 0,41.54 0,42.47 C0,43.4 0.661040788,44 1.68565401,44 L45.314346,44 C46.3059072,44 47,43.4 47,42.47 C47,41.54 46.3389592,40.94 45.314346,40.94 L37.4479606,40.94 M34.1097046,40.9607031 L12.3284107,40.9607031 M21.7151899,8 L18.3769339,8 L18.3769339,11.03 L21.7151899,11.03 L21.7151899,8 Z M29.416315,8 L26.0780591,8 L26.0780591,11.03 L29.416315,11.03 L29.416315,8 Z M21.7151899,16.43 L18.3769339,16.43 L18.3769339,19.46 L21.7151899,19.46 L21.7151899,16.43 Z M29.416315,16.43 L26.0780591,16.43 L26.0780591,19.46 L29.416315,19.46 L29.416315,16.43 Z M21.7151899,24.56 L18.3769339,24.56 L18.3769339,27.59 L21.7151899,27.59 L21.7151899,24.56 L21.7151899,24.56 Z M29.416315,24.56 L26.0780591,24.56 L26.0780591,27.59 L29.416315,27.59 L29.416315,24.56 Z M21.7151899,34.19 L18.3769339,34.19 L18.3769339,37.22 L21.7151899,37.22 L21.7151899,34.19 L21.7151899,34.19 Z M29.416315,34.19 L26.0780591,34.19 L26.0780591,37.22 L29.416315,37.22 L29.416315,34.19 Z" id="形状"></path>
            <path d="M39,44 L7.00091165,44 L7.00091165,2.05691057 C7.00091165,2.05691057 6.96809208,0.685636856 7.29628786,0.357723577 C7.62448363,0.0596205962 9.56083872,0 9.56083872,0 L36.899547,0 C36.899547,0 38.376428,0 38.7374434,0.357723577 C39,0.685636856 38.9671804,2.08672087 38.9671804,2.08672087 L38.9671804,44 L39,44 Z M10.4469673,40.9891599 L35.5539443,40.9891599 L35.5539443,3.1300813 L10.4469673,3.1300813 L10.4469673,40.9891599 Z" id="形状"></path>
        </g>
    </g>
</svg>