<?xml version="1.0" encoding="UTF-8"?>
<svg width="66px" height="66px" viewBox="0 0 66 66" version="1.1" xmlns="http://www.w3.org/2000/svg" xmlns:xlink="http://www.w3.org/1999/xlink">
    <!-- Generator: Sketch 63.1 (92452) - https://sketch.com -->
    <title>已入住</title>
    <desc>Created with Sketch.</desc>
    <g id="已入住" stroke="none" stroke-width="1" fill="none" fill-rule="evenodd">
        <g id="编组" transform="translate(1.000000, 4.000000)" fill="#2D92FF" fill-rule="nonzero">
            <path d="M55.9668548,57.6901408 L8.05107384,57.6901408 L8.05107384,30.8730492 L27.8928269,10.9855968 C28.2400241,10.546791 29.8840132,8.82589941 32.3177503,8.82589941 C33.8665319,8.82589941 35.3446192,9.56365795 36.705904,10.954312 L55.9606536,30.9102046 L55.9606536,57.6901408 L55.9668548,57.6901408 L55.9668548,57.6901408 Z M11.1055201,54.5801557 L52.8815483,54.5801557 L52.8815483,32.1745302 L34.5179554,13.1140094 C33.7558577,12.3376092 33.0090808,11.9300883 32.3239516,11.9300883 C31.1254315,11.9300883 30.2036332,13.0128723 30.2036332,13.0128723 L30.0745741,13.1452944 L11.1055201,32.1685853 L11.1055201,54.5801557 L11.1055201,54.5801557 Z M63.9163526,28.5008226 L37.6554256,1.97071964 C37.6554256,1.97071964 32.5389528,-3.04912969 26.1504203,2.93453188 L0.00622277862,28.3877214 C0.00622277862,28.3877214 -0.325580849,32.4318688 3.85654528,30.7347566 L27.6253704,6.81058796 C27.6253704,6.81058796 31.583303,2.49126737 35.7685661,6.11451785 L60.6775467,31.1422775 C60.6775467,31.1422775 64.629132,32.6445465 63.9132884,28.5007483 L63.9163526,28.5007483 L63.9163526,28.5008226 Z M19.8908739,3.13531988 L9.55360134,3.13531988 L9.55360134,19.1169918 L20.2288787,8.70105707 L19.8908739,3.13531988 Z M33.7805168,32.6252257 L37.1299239,32.6252257 L37.1299239,35.3992513 L33.7805168,35.3992513 L33.7805168,32.6252257 L33.7805168,32.6252257 Z M33.7805168,27.1859657 L33.7805168,29.9599169 L37.1299239,29.9599169 L37.1299239,27.1859657 L33.7805168,27.1859657 Z M26.8695469,32.6252257 L30.2036332,32.6252257 L30.2036332,35.3992513 L26.8695469,35.3992513 L26.8695469,32.6252257 L26.8695469,32.6252257 Z M26.8695469,27.1859657 L26.8695469,29.9599169 L30.2036332,29.9599169 L30.2036332,27.1859657 L26.8695469,27.1859657 Z M33.7805168,32.6252257 L37.1299239,32.6252257 L37.1299239,35.3992513 L33.7805168,35.3992513 L33.7805168,32.6252257 L33.7805168,32.6252257 Z M33.7805168,27.1859657 L33.7805168,29.9599169 L37.1299239,29.9599169 L37.1299239,27.1859657 L33.7805168,27.1859657 Z M26.8695469,32.6252257 L30.2036332,32.6252257 L30.2036332,35.3992513 L26.8695469,35.3992513 L26.8695469,32.6252257 L26.8695469,32.6252257 Z M26.8695469,27.1859657 L26.8695469,29.9599169 L30.2036332,29.9599169 L30.2036332,27.1859657 L26.8695469,27.1859657 Z" id="形状"></path>
        </g>
    </g>
</svg>