<?xml version="1.0" encoding="UTF-8"?>
<svg width="48px" height="48px" viewBox="0 0 48 48" version="1.1" xmlns="http://www.w3.org/2000/svg" xmlns:xlink="http://www.w3.org/1999/xlink">
    <!-- Generator: Sketch 63.1 (92452) - https://sketch.com -->
    <title>宿舍</title>
    <desc>Created with Sketch.</desc>
    <g id="宿舍" stroke="none" stroke-width="1" fill="none" fill-rule="evenodd">
        <g id="编组" transform="translate(3.000000, 2.000000)" fill="#2D92FF" fill-rule="nonzero">
            <path d="M37.7042101,18.9949181 L37.7042101,3.04604789 C37.7022385,1.3645503 36.2893033,0.00190138025 34.5457529,0 L6.51674595,0 C4.77319555,0.00190138025 3.36026039,1.3645503 3.35828884,3.04604789 L3.35828884,18.9949181 C1.20582643,21.0992791 -0.000664916954,23.9365338 2.74916098e-07,26.8924626 L2.74916098e-07,42.7846507 C2.74916098e-07,43.1474 0.200666711,43.4825943 0.526410059,43.663969 C0.852153407,43.8453437 1.25348577,43.8453437 1.57922911,43.663969 C1.90497246,43.4825943 2.10563863,43.1474 2.10563862,42.7846507 L2.10563862,34.3306356 L9.24078744,34.3306356 L9.24078744,39.8736541 C9.24078744,40.434416 9.71215058,40.8890034 10.2936065,40.8890034 C10.8750624,40.8890034 11.3464255,40.434416 11.3464255,39.8736541 L11.3464255,34.3306356 L29.7544042,34.3306356 L29.7544042,39.8736541 C29.7544042,40.434416 30.2257673,40.8890034 30.8072232,40.8890034 C31.3886791,40.8890034 31.8600423,40.434416 31.8600423,39.8736541 L31.8600423,34.3306356 L38.9568603,34.3306356 L38.9568603,42.7846507 C38.9568603,43.3454126 39.4282234,43.8 40.0096793,43.8 C40.5911352,43.8 41.0624986,43.3454126 41.0624986,42.7846507 L41.0624986,26.8924626 C41.0631638,23.9365338 39.8566725,21.0992791 37.7042101,18.9949181 L37.7042101,18.9949181 Z M6.51674595,2.03069859 L34.5457529,2.03069859 C35.1269753,2.03124201 35.5980085,2.4855112 35.598572,3.04604789 L35.598572,17.362473 C34.256253,16.5424546 32.7536801,15.9969045 31.1838871,15.7596012 C31.0269864,11.4261298 27.3324093,7.94486181 22.802221,7.94486181 L18.2618111,7.94486181 C13.7311117,7.94486181 10.0365346,11.4261298 9.88014502,15.7596012 C8.31005356,15.9969784 6.80716166,16.542518 5.46443799,17.362473 L5.46443799,3.04604789 C5.46500093,2.48570337 5.93572321,2.03151358 6.51674595,2.03069859 Z M29.0700718,15.6087774 L11.9934493,15.6087774 C12.2254783,12.4661235 14.9449201,9.9755604 18.2618111,9.9755604 L22.8017099,9.9755604 C26.118601,9.9755604 28.8380428,12.4661235 29.0700718,15.6087774 Z M2.10563862,32.2994441 L2.10563862,26.8924626 C2.10563862,21.7905788 6.40993082,17.639476 11.7011131,17.639476 L29.362408,17.639476 C34.6525681,17.639476 38.9568603,21.7905788 38.9568603,26.8924626 L38.9568603,32.2994441 L2.10563862,32.2994441 Z" id="形状"></path>
        </g>
    </g>
</svg>