<?xml version="1.0" encoding="UTF-8"?>
<svg width="115px" height="115px" viewBox="0 0 115 115" version="1.1" xmlns="http://www.w3.org/2000/svg" xmlns:xlink="http://www.w3.org/1999/xlink">
    <!-- Generator: Sketch 63.1 (92452) - https://sketch.com -->
    <title>已挂失</title>
    <desc>Created with Sketch.</desc>
    <g id="已挂失" stroke="none" stroke-width="1" fill="none" fill-rule="evenodd">
        <g id="编组" transform="translate(1.000000, 1.000000)" fill-rule="nonzero">
            <path d="M0.035125,56.375 C0.035125,87.4796771 25.2504479,112.695 56.355125,112.695 C87.4598021,112.695 112.675125,87.4796771 112.675125,56.375 C112.675125,25.2703229 87.4598021,0.055 56.355125,0.055 C25.2504479,0.055 0.035125,25.2703229 0.035125,56.375 Z" id="路径" fill="#92CEF8"></path>
            <path d="M22.475375,65.374625 C22.475375,80.8549432 30.7340261,95.1593471 44.1403748,102.899506 C57.5467236,110.639665 74.0640264,110.639665 87.4703752,102.899506 C100.876724,95.1593471 109.135375,80.8549432 109.135375,65.374625 C109.135375,49.8943068 100.876724,35.5899027 87.4703753,27.8497435 C74.0640265,20.1095843 57.5467235,20.1095843 44.1403747,27.8497435 C30.7340259,35.5899027 22.475375,49.8943068 22.475375,65.374625 L22.475375,65.374625 Z" id="路径" fill="#62B4F9"></path>
            <path d="M52.582375,53.1525 C61.3483358,44.3819863 74.5346335,41.7561028 85.9917091,46.499456 C97.4487846,51.2428091 104.919995,62.4211243 104.921068,74.8212847 C104.92214,87.2214452 97.4528644,98.4010529 85.9966097,103.146388 C74.540355,107.891724 61.3536032,105.268122 52.586125,96.499125 C40.6154336,84.5302931 40.6137546,65.1235279 52.582375,53.152625 L52.582375,53.1525 Z" id="路径" fill="#3599F3"></path>
            <path d="M56.384625,90.295 C55.3582943,90.2933216 54.3573841,89.9755861 53.518,89.385 L43.774,82.579125 C43.7428671,82.5579174 43.7023262,82.5564591 43.66975,82.575375 L33.85275,88.271375 C32.2950475,89.188989 30.3607893,89.183573 28.80825,88.25725 C27.2356112,87.3381841 26.2749016,85.6479419 26.2897025,83.8265 L26.2897025,27.575 C26.2749787,24.7661058 28.5370156,22.4754355 31.345875,22.455 L81.399,22.455 C84.2080042,22.4750924 86.4702411,24.7659653 86.4551768,27.575 L86.4551768,83.790625 C86.4702067,85.6179976 85.503283,87.3128821 83.9225,88.22975 C82.3614418,89.1545792 80.4191869,89.149877 78.862625,88.2175 L69.2845,82.574 C69.2527952,82.5532736 69.2118298,82.5532736 69.180125,82.574 L59.217875,89.405375 C58.3854265,89.9821675 57.3973704,90.2924117 56.384625,90.295 L56.384625,90.295 Z M43.712625,77.545 C44.7386751,77.5440045 45.7403284,77.8578338 46.582375,78.444125 L56.326375,85.249125 C56.3596863,85.2721986 56.4038137,85.2721986 56.437125,85.249125 L66.399375,78.4185 C68.0032163,77.3236391 70.094418,77.2511209 71.77025,78.23225 L81.3485,83.8765 C81.3789741,83.8942487 81.4166401,83.8942308 81.4470973,83.8764533 C81.4775546,83.8586758 81.4956337,83.8258878 81.4956337,83.790625 L81.4956337,27.575 C81.4956337,27.5207925 81.4525798,27.4764363 81.398375,27.47575 L31.3425,27.47575 C31.2882235,27.476502 31.2446198,27.5207183 31.244625,27.575 L31.244625,83.82525 C31.2393787,83.8617708 31.2593984,83.8972416 31.293375,83.911625 C31.321873,83.9348321 31.362752,83.9348321 31.39125,83.911625 L41.208125,78.215625 C41.9700082,77.7749563 42.8348561,77.5435539 43.715,77.544875 L43.712625,77.545 Z M70.03575,58.8825 L51.806625,58.8825 L51.806625,38.071 L56.759,38.071 L56.759,53.8605 L70.0365,53.8605 L70.0365,58.8825 L70.03575,58.8825 Z" id="形状" fill="#FFFFFF"></path>
        </g>
    </g>
</svg>