<?xml version="1.0" encoding="UTF-8"?>
<svg width="115px" height="115px" viewBox="0 0 115 115" version="1.1" xmlns="http://www.w3.org/2000/svg" xmlns:xlink="http://www.w3.org/1999/xlink">
    <!-- Generator: Sketch 63.1 (92452) - https://sketch.com -->
    <title>使用中</title>
    <desc>Created with Sketch.</desc>
    <g id="使用中" stroke="none" stroke-width="1" fill="none" fill-rule="evenodd">
        <g id="编组" transform="translate(1.000000, 1.000000)" fill-rule="nonzero">
            <path d="M0.035125,56.375 C0.035125,87.4796771 25.2504479,112.695 56.355125,112.695 C87.4598021,112.695 112.675125,87.4796771 112.675125,56.375 C112.675125,25.2703229 87.4598021,0.055 56.355125,0.055 C25.2504479,0.055 0.035125,25.2703229 0.035125,56.375 Z" id="路径" fill="#92CEF8"></path>
            <path d="M22.475375,65.374625 C22.475375,80.8549432 30.7340261,95.1593471 44.1403748,102.899506 C57.5467236,110.639665 74.0640264,110.639665 87.4703752,102.899506 C100.876724,95.1593471 109.135375,80.8549432 109.135375,65.374625 C109.135375,49.8943068 100.876724,35.5899027 87.4703753,27.8497435 C74.0640265,20.1095843 57.5467235,20.1095843 44.1403747,27.8497435 C30.7340259,35.5899027 22.475375,49.8943068 22.475375,65.374625 L22.475375,65.374625 Z" id="路径" fill="#62B4F9"></path>
            <path d="M52.582375,53.1525 C61.3483358,44.3819863 74.5346335,41.7561028 85.9917091,46.499456 C97.4487846,51.2428091 104.919995,62.4211243 104.921068,74.8212847 C104.92214,87.2214452 97.4528644,98.4010529 85.9966097,103.146388 C74.540355,107.891724 61.3536032,105.268122 52.586125,96.499125 C40.6154336,84.5302931 40.6137546,65.1235279 52.582375,53.152625 L52.582375,53.1525 Z" id="路径" fill="#3599F3"></path>
            <path d="M86.448,84.535125 L26.295,84.535125 C23.4671568,84.5293509 21.1771303,82.236473 21.175,79.408625 L21.175,33.33875 C21.1785071,30.5118781 23.4681316,28.2205208 26.295,28.214875 L86.44475,28.214875 C89.2754299,28.214875 91.5710692,30.5079479 91.575,33.338625 L91.575,79.40875 C91.5728626,82.2393269 89.2785772,84.5333326 86.448,84.535125 L86.448,84.535125 Z M26.295,33.015 C26.1182689,33.015 25.975,33.1582689 25.975,33.335 L25.975,79.408625 C25.975,79.5853561 26.1182689,79.728625 26.295,79.728625 L86.44475,79.728625 C86.6214811,79.728625 86.76475,79.5853561 86.76475,79.408625 L86.76475,33.33875 C86.76475,33.1620189 86.6214811,33.01875 86.44475,33.01875 L26.295,33.01875 L26.295,33.015 Z M59.741375,72.634875 L31.851375,72.634875 C30.525149,72.6341158 29.4505297,71.5586012 29.4508728,70.232375 L29.4508728,64.099125 C29.4496814,63.2192966 29.929366,62.4091457 30.701375,61.987125 L37.943,58.039 C36.9216944,56.6573273 36.3689459,54.9852847 36.3655,53.267125 L36.3655,49.642875 C36.3655,44.380913 40.631163,40.11525 45.893125,40.11525 C51.155087,40.11525 55.42075,44.380913 55.42075,49.642875 L55.42075,53.269125 C55.4180469,55.0154745 54.8467456,56.7134503 53.79325,58.10625 L60.89725,61.9935 C61.6673602,62.4150769 62.1465001,63.2230497 62.1465001,64.101 L62.1465001,70.23425 C62.1465001,70.8713751 61.893685,71.482462 61.4432281,71.9330361 C60.9927712,72.3836103 60.3817502,72.63675 59.744625,72.63675 L59.741375,72.634875 Z M34.252125,67.831 L57.344,67.831 L57.344,65.527 L49.62875,61.303 C48.6599998,60.7736973 48.0299377,59.7850109 47.9593218,58.6833524 C47.8887059,57.5816938 48.3873815,56.5206558 49.280625,55.872 C50.121364,55.2722476 50.6188402,54.3018545 50.615,53.269125 L50.615,49.642875 C50.615,47.0329153 48.4992097,44.917125 45.88925,44.917125 C43.2792903,44.917125 41.1635,47.0329153 41.1635,49.642875 L41.1635,53.269125 C41.159487,54.2876521 41.6416363,55.246982 42.461375,55.8515 C43.3396057,56.5075185 43.8236608,57.5653439 43.7459733,58.6587853 C43.6682858,59.7522267 43.039534,60.7309887 42.077375,61.25625 L34.252125,65.527 L34.252125,67.831 Z M81.149375,50.34175 L64.496,50.34175 L64.496,45.5385 L81.15,45.5385 L81.15,50.343 L81.149375,50.34175 Z M76.349375,59.357375 L64.496,59.357375 L64.496,54.55425 L76.348125,54.55425 L76.348125,59.358625 L76.349375,59.357375 Z M81.149375,69.384875 L64.496,69.384875 L64.496,64.5805 L81.15,64.5805 L81.15,69.384875 L81.149375,69.384875 Z" id="形状" fill="#FFFFFF"></path>
        </g>
    </g>
</svg>