<?xml version="1.0" encoding="UTF-8"?>
<svg width="115px" height="115px" viewBox="0 0 115 115" version="1.1" xmlns="http://www.w3.org/2000/svg" xmlns:xlink="http://www.w3.org/1999/xlink">
    <!-- Generator: Sketch 63.1 (92452) - https://sketch.com -->
    <title>卡总数</title>
    <desc>Created with Sketch.</desc>
    <g id="卡总数" stroke="none" stroke-width="1" fill="none" fill-rule="evenodd">
        <g id="编组" transform="translate(1.000000, 1.000000)" fill-rule="nonzero">
            <path d="M0.035125,56.375 C0.035125,87.4796771 25.2504479,112.695 56.355125,112.695 C87.4598021,112.695 112.675125,87.4796771 112.675125,56.375 C112.675125,25.2703229 87.4598021,0.055 56.355125,0.055 C25.2504479,0.055 0.035125,25.2703229 0.035125,56.375 Z" id="路径" fill="#92CEF8"></path>
            <path d="M22.475375,65.374625 C22.475375,80.8549432 30.7340261,95.1593471 44.1403748,102.899506 C57.5467236,110.639665 74.0640264,110.639665 87.4703752,102.899506 C100.876724,95.1593471 109.135375,80.8549432 109.135375,65.374625 C109.135375,49.8943068 100.876724,35.5899027 87.4703753,27.8497435 C74.0640265,20.1095843 57.5467235,20.1095843 44.1403747,27.8497435 C30.7340259,35.5899027 22.475375,49.8943068 22.475375,65.374625 L22.475375,65.374625 Z" id="路径" fill="#62B4F9"></path>
            <path d="M52.582375,53.1525 C61.3483358,44.3819863 74.5346335,41.7561028 85.9917091,46.499456 C97.4487846,51.2428091 104.919995,62.4211243 104.921068,74.8212847 C104.92214,87.2214452 97.4528644,98.4010529 85.9966097,103.146388 C74.540355,107.891724 61.3536032,105.268122 52.586125,96.499125 C40.6154336,84.5302931 40.6137546,65.1235279 52.582375,53.152625 L52.582375,53.1525 Z" id="路径" fill="#3599F3"></path>
            <path d="M85.1455,30.135 L27.5935,30.135 C24.8161377,30.0781548 22.5161812,32.2788327 22.4505,35.056 L22.4505,77.696 C22.5172644,80.4723796 24.8168999,82.6718559 27.5935,82.615 L85.1455,82.615 C87.9226724,82.6719183 90.2226054,80.471596 90.288625,77.694625 L90.288625,35.055375 C90.2226054,32.278404 87.9226724,30.0780817 85.1455,30.135 L85.1455,30.135 Z M27.5935,34.901125 L85.1455,34.901125 C85.272745,34.886882 85.3969678,34.9464701 85.4655,35.054625 L85.4655,46.686625 L27.271,46.686625 L27.271,35.055375 C27.3397477,34.946056 27.4652461,34.8860308 27.5935,34.901125 Z M85.1455,77.845 L27.5935,77.845 C27.466203,77.8591915 27.3419675,77.7995003 27.2735,77.69125 L27.2735,51.45125 L85.470625,51.45125 L85.470625,77.69125 C85.4021656,77.8024591 85.275284,77.8637038 85.145625,77.848125 L85.1455,77.845 Z M34.03,62.40625 L50.094,62.40625 L50.094,57.6395 L34.03,57.6395 L34.03,62.40625 Z" id="形状" fill="#FFFFFF"></path>
        </g>
    </g>
</svg>