<?xml version="1.0" encoding="UTF-8"?>
<svg width="115px" height="115px" viewBox="0 0 115 115" version="1.1" xmlns="http://www.w3.org/2000/svg" xmlns:xlink="http://www.w3.org/1999/xlink">
    <!-- Generator: Sketch 63.1 (92452) - https://sketch.com -->
    <title>已冻结</title>
    <desc>Created with Sketch.</desc>
    <g id="已冻结" stroke="none" stroke-width="1" fill="none" fill-rule="evenodd">
        <g id="编组" transform="translate(1.000000, 1.000000)" fill-rule="nonzero">
            <path d="M0.035125,56.375 C0.035125,87.4796771 25.2504479,112.695 56.355125,112.695 C87.4598021,112.695 112.675125,87.4796771 112.675125,56.375 C112.675125,25.2703229 87.4598021,0.055 56.355125,0.055 C25.2504479,0.055 0.035125,25.2703229 0.035125,56.375 Z" id="路径" fill="#F2BF70"></path>
            <path d="M22.475375,65.374625 C22.475375,80.8549432 30.7340261,95.1593471 44.1403748,102.899506 C57.5467236,110.639665 74.0640264,110.639665 87.4703752,102.899506 C100.876724,95.1593471 109.135375,80.8549432 109.135375,65.374625 C109.135375,49.8943068 100.876724,35.5899027 87.4703753,27.8497435 C74.0640265,20.1095843 57.5467235,20.1095843 44.1403747,27.8497435 C30.7340259,35.5899027 22.475375,49.8943068 22.475375,65.374625 L22.475375,65.374625 Z" id="路径" fill="#F5AC57"></path>
            <path d="M52.582375,53.1525 C61.3483358,44.3819863 74.5346335,41.7561028 85.9917091,46.499456 C97.4487846,51.2428091 104.919995,62.4211243 104.921068,74.8212847 C104.92214,87.2214452 97.4528644,98.4010529 85.9966097,103.146388 C74.540355,107.891724 61.3536032,105.268122 52.586125,96.499125 C40.6154336,84.5302931 40.6137546,65.1235279 52.582375,53.152625 L52.582375,53.1525 Z" id="路径" fill="#F79C43"></path>
            <path d="M47.395125,53.294625 L29.578875,53.294625 C26.6964433,53.2812621 24.3686286,50.9374556 24.3749837,48.055 L24.3749837,30.106875 C24.3678682,27.224126 26.6955248,24.8795821 29.57825,24.865875 L47.395,24.865875 C50.2777252,24.8795821 52.6053818,27.224126 52.5982663,30.106875 L52.5982663,48.055 C52.6046224,50.9372128 50.2771873,53.2809187 47.395,53.294625 L47.395125,53.294625 Z M29.578875,29.7785 C29.3980068,29.7791885 29.2517494,29.9260055 29.2517494,30.106875 L29.2517494,48.055 C29.251404,48.2361133 29.3977627,48.3833109 29.578875,48.384 L47.395125,48.384 C47.5758723,48.3829672 47.7216365,48.2357487 47.720878,48.055 L47.720878,30.106875 C47.7212902,29.9261758 47.5753231,29.7792579 47.394625,29.7785 L29.57875,29.7785 L29.578875,29.7785 Z M83.1725,52.803125 L65.354875,52.803125 C62.4719543,52.7897614 60.1439383,50.4451931 60.1509837,47.56225 L60.1509837,29.616 C60.143869,26.7330568 62.4718292,24.3884323 65.35475,24.375 L83.17175,24.375 C86.0544752,24.3887071 88.3821318,26.733251 88.3750163,29.616 L88.3750163,47.56225 C88.3820627,50.4449502 86.0544263,52.789418 83.17175,52.803125 L83.1725,52.803125 Z M65.354875,29.287625 C65.1743724,29.2886576 65.0287088,29.4354949 65.0291225,29.616 L65.0291225,47.56225 C65.0284326,47.74295 65.1741767,47.8900922 65.354875,47.891125 L83.17175,47.891125 C83.3525691,47.8900927 83.4985283,47.7430718 83.4982509,47.56225 L83.4982509,29.616 C83.4986649,29.4352035 83.3525459,29.2882453 83.17175,29.287625 L65.355,29.287625 L65.354875,29.287625 Z M47.395,88.375 L29.57875,88.375 C26.6958292,88.3615677 24.367869,86.0169432 24.3749824,83.134 L24.3749824,65.18775 C24.367592,62.304806 26.6953291,59.9599573 29.57825,59.94625 L47.395,59.94625 C50.2779209,59.9599573 52.605658,62.304806 52.5982676,65.18775 L52.5982676,83.134 C52.6053818,86.016749 50.2777252,88.3612929 47.395,88.375 L47.395,88.375 Z M29.57875,64.85875 C29.3976377,64.8594391 29.251279,65.0066367 29.2516244,65.18775 L29.2516244,83.134 C29.251279,83.3151133 29.3976377,83.4623109 29.57875,83.463 L47.395,83.463 C47.575819,83.461899 47.7217225,83.314822 47.7213774,83.134 L47.7213774,65.18775 C47.7220668,65.0068558 47.5760189,64.8596329 47.395125,64.85875 L29.57875,64.85875 L29.57875,64.85875 Z M83.1725,87.883625 L65.354875,87.883625 C62.4722993,87.8698489 60.1448978,85.525224 60.152357,82.642625 L60.152357,64.695 C60.1448978,61.812401 62.4722993,59.4677761 65.354875,59.454 L83.17175,59.454 C86.0546191,59.4673639 88.3824761,61.8121096 88.3750214,64.695 L88.3750214,82.64125 C88.3831668,85.5246278 86.0551084,87.8701357 83.17175,87.883625 L83.1725,87.883625 Z M65.3555,64.367375 C65.1747527,64.3684078 65.0289885,64.5156263 65.029747,64.696375 L65.029747,82.642625 C65.0289885,82.8233737 65.1747527,82.9705922 65.3555,82.971625 L83.17175,82.971625 C83.2586852,82.9713272 83.3419377,82.9364894 83.4031756,82.8747826 C83.4644135,82.8130757 83.4986154,82.7295599 83.4982529,82.642625 L83.4982529,64.695 C83.4985972,64.5141295 83.3526179,64.3670324 83.17175,64.366 L65.355,64.366 L65.3555,64.367375 Z" id="形状" fill="#FFFFFF"></path>
        </g>
    </g>
</svg>