<?xml version="1.0" encoding="UTF-8"?>
<svg width="66px" height="66px" viewBox="0 0 66 66" version="1.1" xmlns="http://www.w3.org/2000/svg" xmlns:xlink="http://www.w3.org/1999/xlink">
    <!-- Generator: Sketch 63.1 (92452) - https://sketch.com -->
    <title>用户总数</title>
    <desc>Created with Sketch.</desc>
    <g id="用户总数" stroke="none" stroke-width="1" fill="none" fill-rule="evenodd">
        <g id="人均" transform="translate(1.000000, 7.000000)" fill="#2D92FF">
            <g transform="translate(0.000000, 0.000000)" id="形状">
                <path d="M56.9758441,26.7507153 C55.6996721,25.6398696 54.2831211,24.7098592 52.7708572,23.9671426 C54.7616856,21.9844121 56.5291839,18.9747952 56.4717562,15.3257961 C56.344139,9.15156051 51.0033589,6.26465326 48.1893996,5.56714551 C47.7427394,5.46381101 47.2769366,5.54131187 46.8940849,5.78673127 C46.5112333,6.03215068 46.2368563,6.42611339 46.1347626,6.87820179 C45.9114325,7.80821218 46.4857099,8.77051456 47.3981729,8.99010038 C47.4619815,9.02239243 52.8984745,10.3657408 52.9941873,15.3903801 C53.0579959,19.1362553 50.2121323,21.9844121 48.4127297,22.9079641 C47.7491202,23.2308844 47.3662686,23.9671426 47.4619815,24.7034008 C47.5576944,25.4461174 48.1000675,26.0467491 48.8211047,26.2082092 C49.3315736,26.3050853 61.0595947,29.1855341 59.630282,43.8073641 C59.5600925,44.3046613 59.7259949,44.8019585 60.0705614,45.1507124 C60.3896044,45.5317583 60.861788,45.7255105 61.3722569,45.7255105 C62.2591964,45.7255105 63.0185188,45.0538363 63.1078508,44.156118 C63.9628861,34.9141398 60.2619871,29.6053305 56.9758441,26.7507153 L56.9758441,26.7507153 Z M14.3580785,26.2146677 C15.0791157,26.0532075 15.6214889,25.4525758 15.7172017,24.7098592 C15.8129146,23.9671426 15.4364439,23.2438012 14.7728344,22.9144225 C12.9415275,22.0231625 10.0956638,19.1427137 10.1594724,15.3968385 C10.2551854,10.4367832 15.5321568,9.06114283 15.7873912,8.99655879 C16.7189968,8.76405621 17.2932742,7.81467059 17.0635633,6.87174338 C16.8338523,5.92881618 15.8958658,5.34755969 14.9642602,5.58006233 C12.1822052,6.25173649 6.8414251,9.15801892 6.71380792,15.3387129 C6.61809501,18.987712 8.41749759,21.9908705 10.4147069,23.9800594 C8.8960621,24.7098592 7.47951111,25.646328 6.20971996,26.7636321 C2.95548121,29.6053305 -0.777322048,34.9205982 0.141521834,44.1948684 C0.275519879,45.1248788 1.11141258,45.7836361 2.03025651,45.6867601 C2.95548126,45.589884 3.63823332,44.7761249 3.58718641,43.8396561 C2.12596943,29.1855342 13.8539906,26.3373774 14.3580785,26.2146677 Z" fill-rule="nonzero"></path>
                <path d="M53.8109375,45.7255105 C53.8109375,39.648151 51.5010661,34.1455895 47.3279834,30.2059622 C44.9798269,28.0230212 42.1850101,26.3825862 39.1413397,25.407367 C43.008141,22.8498385 45.337155,18.4968732 45.337155,13.8209876 C45.3243933,6.19361081 39.2179101,0.0129168191 31.6821141,1.91220672e-13 C24.1463181,0.0129168191 18.0462157,6.19361081 18.0270731,13.8209876 C18.0270731,18.4581227 20.3305637,22.7917128 24.152699,25.3363245 C21.0452201,26.2921686 18.1929755,27.9390619 15.8065338,30.1672118 C11.639832,34.1132975 9.33634147,39.6158589 9.33634147,45.6996768 C9.33634147,45.9903051 9.30443715,46.3390589 9.3044372,46.6878129 C9.24062861,48.2572054 9.1449157,50.2076439 10.4147069,51.5897426 C11.1740292,52.3841265 12.2141094,52.8362148 13.5796136,52.8362148 C15.8511998,52.8685069 31.184407,52.8685069 43.6398462,52.8685069 L49.9313745,52.8685069 C51.1947848,52.8685069 52.2093415,52.4810026 52.9048553,51.7189107 C54.1363614,50.401396 54.0087442,48.5478336 53.9130312,46.9203155 C53.8492226,46.5198944 53.8173183,46.1259316 53.8109375,45.7255105 L53.8109375,45.7255105 Z M21.504642,13.8339044 C21.5110228,8.14404926 26.0605762,3.53920619 31.6821141,3.52628937 C37.2972711,3.5456646 41.8404436,8.14404926 41.8595862,13.827446 C41.8404436,19.5108428 37.2972711,24.1092275 31.6821141,24.1286027 C26.0669571,24.1221443 21.5110228,19.5108428 21.504642,13.8339044 Z M50.3397495,49.3099255 C50.3078452,49.3422175 50.1483237,49.3745095 49.8611849,49.3745095 L43.6015611,49.3745095 C33.4240889,49.3745095 15.9724361,49.3745095 13.605137,49.3422175 C13.1648576,49.3422175 12.9734319,49.2517998 12.9096232,49.1807574 C12.6543888,48.8965875 12.7181974,47.5855312 12.7501017,46.881565 C12.782006,46.4940607 12.782006,46.1130148 12.782006,45.7319689 C12.782006,35.3339361 20.6878919,27.7840602 31.5608778,27.7840602 C42.4338637,27.7840602 50.3397495,35.3339361 50.3397495,45.7319689 C50.3397495,46.2098909 50.3716538,46.6878129 50.4035581,47.1399012 C50.4609858,47.7792834 50.5247945,48.9934636 50.3397495,49.3099255 Z" fill-rule="nonzero"></path>
            </g>
        </g>
    </g>
</svg>