<?xml version="1.0" encoding="UTF-8"?>
<svg width="66px" height="66px" viewBox="0 0 66 66" version="1.1" xmlns="http://www.w3.org/2000/svg" xmlns:xlink="http://www.w3.org/1999/xlink">
    <!-- Generator: Sketch 63.1 (92452) - https://sketch.com -->
    <title>未入住</title>
    <desc>Created with Sketch.</desc>
    <g id="未入住" stroke="none" stroke-width="1" fill="none" fill-rule="evenodd">
        <g id="用能人数" transform="translate(8.000000, 7.000000)" fill="#FFAE53" fill-rule="nonzero">
            <path d="M32.9956007,31.742327 C38.1011642,28.7995257 41.573834,23.3501674 41.573834,17.0357143 C41.573834,7.63058036 33.9487377,0 24.5503632,0 C15.1519886,0 7.52689228,7.63058036 7.52689228,17.0357143 C7.52689228,23.3575614 11.0069508,28.8143136 16.119903,31.749721 C7.85199328,34.6777344 1.54946695,41.7907366 0.0274031523,50.789202 C-0.149924669,51.8169643 0.551997958,52.7929688 1.59379891,52.9704241 C2.65776584,53.1404855 3.6256802,52.445452 3.80300802,51.4176897 C4.95563886,44.6300223 9.35189111,39.1658761 15.2406525,36.2896205 L22.6588664,41.7094029 L22.6588664,53 L26.4418599,53 L26.4418599,41.7537667 L34.2221181,36.4375 C39.948329,39.3581194 44.2115854,44.7557199 45.3420502,51.4176897 C45.4972121,52.3419364 46.3099646,53 47.2261584,53 C47.3295996,53 47.4404295,52.992606 47.5512594,52.9704241 C48.5930603,52.7929688 49.3023716,51.8169643 49.1250438,50.789202 C47.5882027,41.7833426 41.2782877,34.6703404 32.9956007,31.742327 L32.9956007,31.742327 Z M11.3098858,17.0357143 C11.3098858,9.73046875 17.2503678,3.78571429 24.5503632,3.78571429 C31.8503585,3.78571429 37.7908405,9.73046875 37.7908405,17.0357143 C37.7908405,24.3409598 31.8503585,30.2857143 24.5503632,30.2857143 C17.2503678,30.2857143 11.3098858,24.3409598 11.3098858,17.0357143 Z M24.5946951,38.4338728 L19.5334635,34.7368862 C21.1589686,34.3450056 22.8214169,34.0714286 24.5651405,34.0714286 C26.4049166,34.0714286 28.1708062,34.3745815 29.8775865,34.8182199 L24.5946951,38.4338728 Z"></path>
        </g>
    </g>
</svg>