<?xml version="1.0" encoding="UTF-8"?>
<svg width="125px" height="100px" viewBox="0 0 125 100" version="1.1" xmlns="http://www.w3.org/2000/svg" xmlns:xlink="http://www.w3.org/1999/xlink">
    <!-- Generator: Sketch 63.1 (92452) - https://sketch.com -->
    <title>形状</title>
    <desc>Created with Sketch.</desc>
    <g id="web" stroke="none" stroke-width="1" fill="none" fill-rule="evenodd" opacity="0.250860305">
        <g id="水控独立系统-09-意见反馈&gt;9.0.3-意见反馈-已阅" transform="translate(-1274.000000, -259.000000)" fill="#FF2020" fill-rule="nonzero">
            <g id="形状" transform="translate(632.000000, 259.000000)">
                <g transform="translate(642.000000, -9.000000)">
                    <path d="M123.357693,36.8391978 L104.482721,7.0779788 C102.834569,4.4827788 99.3904546,3.71493117 96.7874831,5.34875967 L2.58801648,64.9409883 C-0.00779302291,66.5891407 -0.775031148,70.0332549 0.855292602,72.621293 L19.7302641,102.386322 C21.3785689,104.974969 24.8225307,105.742207 27.4184926,104.108531 L121.621464,44.5204168 C124.224435,42.8713502 125.006455,39.4315025 123.357693,36.8391978 Z M119.59815,41.3219407 L25.3951784,100.917826 C24.5619594,101.442779 23.4713689,101.196988 22.9464165,100.367274 L4.07144498,70.6023978 C3.54634023,69.7690264 3.7922831,68.682093 4.62550223,68.1499788 L98.8321307,8.55775017 C99.6661117,8.03630255 100.760054,8.28270255 101.277388,9.1124168 L120.160131,38.8768359 C120.666645,39.6922264 120.417197,40.7863217 119.59815,41.3219407 Z M38.392207,22.4363025 L39.9565497,26.188074 L41.9833689,22.667312 L46.0327402,22.3404549 L43.3048165,19.3225502 L44.2338831,15.3755788 L40.5327022,17.039274 L37.0559784,14.9350454 L37.4963594,18.9774073 L34.4124736,21.6065883 L38.392207,22.4363025 L38.392207,22.4363025 Z M62.3778831,11.2672359 L60.4319784,7.69527405 L58.783826,11.4142835 L54.7819974,12.1780168 L57.803407,14.8875025 L57.2819594,18.9149312 L60.8063784,16.877293 L64.4819594,18.6214454 L63.633807,14.641712 L66.4200926,11.6897883 L62.3778831,11.2672359 Z M98.9464165,71.1017502 L95.7261497,68.6267788 L95.711826,72.6839217 L92.3487784,74.9643025 L96.2219974,76.2418644 L97.3636355,80.1370264 L99.7648546,76.8583978 L103.829159,76.9722264 L101.442874,73.6756168 L102.819635,69.8679217 L98.9464165,71.1017502 L98.9464165,71.1017502 Z M85.8023402,87.2779025 L84.2678641,83.5148549 L82.2076736,87.0214454 L78.161807,87.3150835 L80.8641307,90.3476168 L79.9021497,94.290474 L83.6248165,92.6642644 L87.0873689,94.8154264 L86.6795974,90.7695597 L89.7634831,88.144493 L85.8023402,87.2779025 L85.8023402,87.2779025 Z M61.7243212,98.2779788 L63.6523974,101.864874 L65.3339212,98.1565312 L69.3357497,97.4411025 L66.3321689,94.7017502 L66.8833307,90.6779788 L63.3439784,92.6791978 L59.6868355,90.9095978 L60.5017689,94.8815597 L57.6749497,97.8228168 L61.7243212,98.2779788 L61.7243212,98.2779788 Z M25.6559022,38.1612549 L28.8577307,40.6761502 L28.9052736,36.6155025 L32.2832546,34.3463978 L28.4315212,33.0427788 L27.3189879,29.1291788 L24.8886641,32.385712 L20.8243594,32.2386644 L23.1778831,35.550512 L21.7749117,39.3690264 L25.6559022,38.1612549 L25.6559022,38.1612549 Z M11.355407,55.6922264 C10.929807,38.5022835 19.2898832,21.5070835 34.8642831,11.6565692 C50.4421879,1.80590255 69.3797879,1.52674055 84.7631022,9.24468355 L88.478607,6.89466442 C83.926226,4.35051205 79.0285499,2.48872155 73.8703022,1.33215017 C66.9785689,-0.217259325 59.958988,-0.4113927 53.0195594,0.7303978 C45.8344927,1.9195788 39.0422641,4.51188355 32.8374641,8.44407405 C26.6363212,12.3761122 21.3785689,17.3987407 17.2296926,23.3833502 C13.2130831,29.1547788 10.3899212,35.5838835 8.8368546,42.4641883 C7.68028323,47.6148169 7.26900698,52.835693 7.6290831,58.0387407 L11.355407,55.6922264 Z M112.516093,53.0636549 C112.960131,70.2535978 104.600054,87.2487978 89.0256546,97.0958073 C73.4512546,106.957141 54.5103022,107.229141 39.1303402,99.5113502 L35.4076736,101.864874 C39.9600546,104.401712 44.8612355,106.267465 50.020245,107.423731 C56.9112164,108.973141 63.9309497,109.175045 70.870226,108.025484 C78.0552926,106.83615 84.8476736,104.247503 91.0488165,100.315312 C97.2499594,96.3831215 102.507712,91.360493 106.660093,85.3795407 C110.661921,79.6009502 113.485083,73.1759597 115.034493,66.2991597 C116.194569,61.1444168 116.598835,55.9200359 116.238607,50.7171407 L112.516093,53.0636549 Z M46.0987212,29.3827407 C50.460626,26.6292169 55.2589499,25.160112 60.0761689,24.8666264 L65.8255022,21.2315788 C58.229007,20.3357312 50.6219975,22.0469693 44.0575784,26.1921883 C37.5111402,30.333293 32.7123594,36.4832359 30.2783784,43.7231597 L36.024207,40.0887217 C38.3594451,35.8439979 41.7410832,32.1434264 46.0987212,29.3827407 Z M77.787407,79.3696359 C73.4255022,82.1309312 68.6308356,83.5994264 63.8136165,83.892912 L58.0676355,87.5279597 C65.660626,88.4238073 73.2641307,86.708912 79.8320546,82.563693 C86.3784927,78.4262454 91.1772736,72.2726454 93.6075974,65.0327217 L87.8652736,68.6749312 C85.5303402,72.9006074 82.1451974,76.6161122 77.787407,79.3696359 Z M15.5029117,70.9185883 L32.5110641,60.0096359 L32.6465307,58.170093 L35.5560926,58.3486835 L34.9723212,59.7454073 C37.6271022,63.8846835 39.4137689,66.5865502 40.3321689,67.8459788 L38.9829879,69.587693 L37.9873307,68.0353883 L23.1925117,77.5244549 L28.9669879,86.5277312 C29.5969307,87.6821693 30.5896926,87.7755788 31.9429879,86.8096359 L45.9222641,77.8435407 C47.3648546,77.0164169 47.8300736,76.0355407 47.3227974,74.9004549 C46.813845,73.7665883 45.9794069,72.2087978 44.8182641,70.2263217 L45.4006641,69.8528359 C47.657426,73.3713122 49.4127022,74.8263978 50.6658831,74.216874 C50.7634069,75.9070835 49.7572355,77.3303217 47.6505689,78.4876549 L31.4581117,88.8733312 C29.8707594,89.9873883 28.5418451,89.6257883 27.4689307,87.7804549 C22.9119784,80.675693 20.2389117,76.5963025 19.4539974,75.5406073 L22.7307974,74.753712 L22.263445,76.0757692 L22.7943402,76.9038073 L37.5891594,67.4145883 L33.142226,60.4812549 L19.7453497,69.0738644 C18.7352164,69.7217882 17.8695402,70.4231978 17.148626,71.1774835 L15.5029117,70.9185883 L15.5029117,70.9185883 Z M29.7724736,90.2656359 C28.6219974,90.2656359 27.6283212,89.5634645 26.8188736,88.1783217 C22.3099212,81.1485312 19.6260355,77.0491788 18.8424926,75.995312 L18.1540355,75.069293 L23.9164736,73.6855217 L23.1879402,75.7460168 L36.5363594,67.1843407 L32.9121307,61.5337502 L20.156626,69.7149312 C19.2025689,70.326893 18.3757497,70.9958454 17.6993307,71.7036549 L17.4239784,71.9918073 L13.4035594,71.3600359 L31.7791784,59.5739788 L31.9419212,57.3635407 L36.6721307,57.6538264 L35.8293117,59.6702835 C38.3535022,63.6014073 40.0749499,66.2001122 40.9476355,67.3970644 L41.285007,67.859693 L38.9243212,70.907312 L37.7573879,69.0880359 L24.2453117,77.7545502 L29.6359402,86.1627788 C29.9335402,86.7083025 30.2027974,86.7083025 30.3176926,86.7083025 C30.525845,86.7083025 30.8999402,86.6182454 31.5004736,86.1895978 L31.5318641,86.1682644 L45.5435974,77.182512 C47.1076355,76.2857502 46.7833687,75.560112 46.6274831,75.2111597 C46.1319402,74.1071597 45.3019212,72.5591215 44.1611974,70.6110835 L43.7913689,69.9796168 L45.6310641,68.7998835 L46.0423402,69.4412549 C48.443864,73.1854073 49.6648926,73.5896739 50.0784546,73.589674 C50.1704927,73.589674 50.251407,73.5712359 50.3329307,73.5314644 L51.361045,73.0313502 L51.4268736,74.1726835 C51.5417689,76.1661312 50.4025689,77.8382073 48.0408165,79.1424359 L31.8823402,89.5061692 C31.1603592,90.0100929 30.4505689,90.2656359 29.7724736,90.2656359 Z M20.7208926,76.0198454 C21.953045,77.8270835 24.4296926,81.6306644 28.1101497,87.3690264 L28.1275212,87.3973692 C28.646226,88.2894073 29.1996736,88.741674 29.7724736,88.741674 C30.1352926,88.741674 30.5552546,88.5760359 31.0204736,88.2496359 L31.0468355,88.2319597 L31.4465307,87.9755025 C31.0523212,88.1473883 30.6783784,88.232112 30.3176926,88.232112 C29.734226,88.232112 28.9147212,88.0032358 28.3119022,86.917674 L21.4207784,76.1731407 L21.5448165,75.8219025 L20.7208926,76.0198454 L20.7208926,76.0198454 Z M47.7547974,74.0236549 C47.8450782,74.2107159 47.9328575,74.398974 48.0181117,74.5883788 C48.3483212,75.3277312 48.6102641,76.6374454 47.2216165,77.857712 L47.2839402,77.8199217 C48.7419212,77.018855 49.5832165,76.1231598 49.8320546,75.100074 C49.1816927,75.0287598 48.4956736,74.675693 47.7547974,74.0236549 L47.7547974,74.0236549 Z M38.641807,67.6445312 L39.0416546,68.2679217 L39.3823784,67.8278454 C38.3923594,66.4219788 36.7323212,63.9008359 34.3309497,60.1566835 L34.1151784,59.8203788 L34.4397497,59.0433883 L33.3509879,58.9766454 L33.315026,59.4650264 L33.3721689,59.4284549 L38.641807,67.6445312 L38.641807,67.6445312 Z M60.4438641,48.958512 L59.6772355,50.3265883 C60.0621497,52.1243788 60.5135021,54.0259407 61.0329689,56.0294454 C61.5952546,58.1038073 61.9682831,60.3954644 62.1544926,62.9050264 C63.8265689,63.2931407 66.0197879,63.079655 68.7315594,62.2647217 C71.4424165,61.4526835 75.7057307,59.0833122 81.5195212,55.1581312 L81.7186831,55.4686835 C80.6626831,56.730093 80.3009307,57.7883788 80.6335784,58.6473502 C75.6845497,61.5294835 71.9013879,63.3214835 69.286226,64.0267025 C66.6692355,64.7329883 64.1797879,64.8692168 61.8198641,64.4341692 C61.5736165,65.7603405 61.059026,67.3091405 60.2754831,69.0758454 C59.4904165,70.8437692 58.2721307,72.7454835 56.6181879,74.7808359 L56.1860355,74.6197692 C57.4405879,72.6465882 58.3880926,70.7474644 59.0285497,68.9262073 C59.6691592,67.1051025 60.1051211,65.4375978 60.3405497,63.9221692 C57.0731974,62.4164929 54.5081687,60.5563787 52.6492736,58.3390835 C52.9889307,61.4325693 52.8968926,64.3648359 52.3714831,67.1346644 L51.7064926,67.1230835 C51.8891974,63.3067025 51.4288545,59.5124169 50.3248546,55.7406835 C49.2220736,51.970474 48.332626,49.4740169 47.6578831,48.2497883 L51.0009689,47.5662073 C50.9115212,48.1118835 50.8859212,48.7125692 50.9237117,49.3684168 C50.9607404,50.0270073 51.2447784,51.451312 51.7743022,53.6425502 L56.7835212,50.4297502 L57.3348355,48.4695217 L60.4438641,48.958512 L60.4438641,48.958512 Z M51.9396355,54.4128359 C52.1590365,55.4401362 52.3793794,56.467235 52.6006641,57.4941312 C55.1464927,59.7569883 57.6950641,61.3351978 60.243026,62.2319597 C59.969807,58.9018263 58.9889307,55.1494454 57.2984165,50.9757312 L51.9396355,54.4128359 L51.9396355,54.4128359 Z M64.803026,47.0388168 L69.847445,54.9036549 C70.511064,55.9384739 71.2577307,57.0182454 72.0877497,58.1405312 L70.6884355,60.0602264 C69.9044636,58.6663243 69.0800893,57.2955345 68.2163594,55.9495978 L61.0480546,44.7733692 C60.473426,43.8776739 59.6143022,42.6260168 58.4757117,41.0191597 L61.9516736,40.542512 L61.4843212,41.8647217 L64.4712926,46.5214835 C67.4867592,45.7557693 69.8913307,45.3591217 71.6808926,45.3295597 C73.4715212,45.3015215 74.4935402,45.7415978 74.7469497,46.6493312 C75.001426,47.5587407 75.011026,48.0864359 74.7780355,48.2359217 C74.4668736,48.4355407 73.9794069,48.3604169 73.315026,48.0058264 C71.8305307,47.4014835 68.9927402,47.0787407 64.803026,47.0388168 L64.803026,47.0388168 Z M56.8647402,75.685674 L55.0383022,75.0051407 L55.5432926,74.2109312 C56.7599021,72.2974835 57.6907974,70.434474 58.3100736,68.6732549 C58.8523974,67.1316168 59.2493499,65.6850644 59.4928546,64.3642264 C57.1688927,63.2398074 55.187788,61.917293 53.5759022,60.4157312 C53.6857689,62.7986645 53.5335404,65.0985502 53.1202831,67.2765312 L53.0005117,67.907693 L50.9080165,67.8711217 L50.9456546,67.0866644 C51.1234832,63.3723787 50.668626,59.6270073 49.5937307,55.9546264 C48.5124355,52.2578645 47.6367021,49.7894454 46.9907594,48.6174835 L46.4909497,47.7106644 L51.9318641,46.5981312 L51.7529689,47.6893312 C51.6731212,48.1766454 51.6501117,48.726893 51.6845497,49.3243788 C51.704664,49.6827788 51.8274831,50.5106645 52.2684736,52.4204549 L56.1287402,49.9444168 L56.7848926,47.6114644 L61.6437117,48.3758073 L60.4827212,50.4475788 C60.8539212,52.1603407 61.2866831,53.9721502 61.7704926,55.8380549 C62.295445,57.7746644 62.6643592,59.9351215 62.867026,62.2613692 C64.340245,62.4641882 66.238607,62.2182454 68.5122831,61.5348168 C69.0358641,61.3780168 69.6229879,61.1587405 70.2736546,60.8774454 L70.024207,60.4334073 C69.2472606,59.0525521 68.4305123,57.6944725 67.5749879,56.360874 L60.4066831,45.1846454 C59.8482069,44.314093 59.0131594,43.0956549 57.8539974,41.459693 L57.1279022,40.4349312 L63.086607,39.617712 L62.3268355,41.7670454 L64.8173497,45.6495597 C67.6293879,44.9600359 69.9320164,44.5961502 71.668245,44.5673502 C71.7264545,44.5664359 71.783445,44.5659788 71.8393689,44.5659788 C73.9077879,44.5659788 75.1329307,45.1977502 75.4806641,46.4439217 C75.7441307,47.3853312 75.9155594,48.4110074 75.1891594,48.8768359 C74.9523594,49.0287597 74.6768546,49.1058645 74.3704165,49.1058644 C73.9684355,49.1058644 73.5176927,48.9722263 72.993807,48.6973312 C71.7636356,48.2083407 69.486607,47.9159217 66.2133117,47.8260168 L70.4888165,54.4919217 C71.145426,55.5157693 71.8895022,56.5906645 72.7003212,57.6870454 L73.0331212,58.136874 L71.4210831,60.3485312 C73.9112926,59.1378645 77.1481689,57.1898264 81.0936165,54.5262073 L81.7403212,54.0896359 L82.6625307,55.528112 L82.3033689,55.9570644 C81.7127402,56.6627407 81.0669499,57.6545882 81.3445879,58.3718454 L81.5792546,58.9781692 L81.017426,59.3051788 C76.0377689,62.2051407 72.1576926,64.0410264 69.4849307,64.7617883 C67.8073689,65.2146645 66.1547974,65.4441502 64.5733879,65.4441502 C63.8466831,65.4441502 63.123026,65.3958454 62.4136926,65.2998454 C62.1218831,66.5120359 61.6386831,67.882093 60.9724736,69.3844168 C60.1625689,71.208112 58.8965879,73.1851025 57.2100355,75.2609883 L56.8647402,75.685674 L56.8647402,75.685674 Z M60.2850831,63.0543597 C60.4089689,63.1134834 60.5337689,63.1719978 60.6596355,63.2300549 L61.181845,63.4706644 L61.0936165,64.038893 C61.0480134,64.3312485 60.9965491,64.6226595 60.9392546,64.9129502 C60.9896927,64.7009883 61.0335784,64.4948168 61.0707594,64.2945883 L61.2097307,63.5465502 L61.9580736,63.6844549 C62.8207908,63.8421901 63.696065,63.9211438 64.5730831,63.9203407 C66.0205497,63.9203407 67.5396355,63.7085312 69.087826,63.2907025 C71.5460355,62.627693 75.1368926,60.9388549 79.7660736,58.2691407 C79.7299594,57.9169883 79.7660736,57.5486835 79.8741117,57.1655978 C75.0087404,60.3412168 71.4224546,62.2535978 68.950226,62.9941692 C67.051407,63.5648358 65.3640926,63.8543597 63.9355212,63.8543597 L63.9353689,63.8543597 C63.2327402,63.8543597 62.5755212,63.7845692 61.9823022,63.6468168 L61.4363212,63.5201883 L61.3948736,62.9611025 C61.212626,60.5070073 60.8435594,58.241712 60.2977307,56.2284549 C59.7799402,54.2313502 59.3211212,52.3019025 58.932245,50.485674 L58.8720546,50.2045312 L59.2440165,49.5407597 L57.8852355,49.3269692 L57.7078641,49.9572168 L58.0045497,50.6895597 C59.7153307,54.9134073 60.7239402,58.7758073 61.0023402,62.1693312 L61.0983402,63.3405312 L60.2850831,63.0543597 L60.2850831,63.0543597 Z M53.292626,57.088493 C55.306645,58.8510835 57.3389497,60.1836549 59.3515974,61.0619788 C58.9960926,58.3602645 58.1843592,55.3600359 56.9307212,52.1167597 L52.7951022,54.7692549 C52.960397,55.5424514 53.1262383,56.315531 53.292626,57.088493 L53.292626,57.088493 Z M48.7727022,48.7994264 C49.4008165,50.2219027 50.1532736,52.4399598 51.0561307,55.5267407 C51.4488356,56.8663952 51.7641752,58.2275248 52.0005879,59.6033883 C51.9714776,59.2090705 51.9353067,58.8153058 51.8920926,58.4222835 L51.757845,57.2000359 C51.5746831,56.3489883 51.3924355,55.4970264 51.2101879,54.6452168 L51.0841689,54.0562644 L51.089807,54.0527597 L51.0338831,53.821293 C50.4879021,51.5611788 50.2029497,50.1185883 50.1631784,49.4109312 C50.1456751,49.113569 50.1410486,48.8155887 50.1493117,48.5178264 L48.7727022,48.7994264 L48.7727022,48.7994264 Z M59.8197117,41.6039978 C60.6273307,42.7578264 61.2427975,43.6658644 61.689426,44.362093 L68.8577307,55.5383217 C69.5162272,56.5651089 70.1523643,57.606065 70.7656926,58.6604549 L71.1437497,58.1419025 C70.4405116,57.1745883 69.789845,56.225712 69.2057689,55.3149312 L60.6415022,41.9622454 L60.8164355,41.4671597 L59.8197117,41.6039978 L59.8197117,41.6039978 Z M68.5953307,46.4122264 C70.879826,46.5705502 72.5319402,46.864493 73.6021117,47.2999978 L73.6737307,47.333674 C73.8920926,47.4502454 74.0525497,47.5127217 74.1663784,47.546093 C74.1456546,47.3949312 74.1019212,47.1726073 74.0129307,46.8545883 C73.836626,46.2228169 72.7335402,46.0902454 71.8390641,46.0902454 C71.7910641,46.0902454 71.7418451,46.0905502 71.6924736,46.0914644 C70.8208546,46.1057882 69.7855784,46.2132168 68.5953307,46.4122264 Z M83.1205879,51.5019025 C85.0971212,49.4563407 86.4223784,48.0219788 87.100626,47.1968359 L82.6535402,40.2633502 L82.0711402,40.6368359 C81.0607021,41.2847597 80.1951784,41.9861693 79.4742641,42.7406073 L77.8283974,42.4818644 L82.2552165,39.6425502 L78.206607,33.3300168 L77.3910641,33.8529883 C76.3807784,34.500912 75.5152546,35.2021693 74.7943402,35.9566073 L73.1484736,35.6978644 L80.4875974,30.9906644 L81.089045,28.8521502 L84.264207,29.4446073 L79.7208165,32.3587407 L83.7695784,38.671274 L84.9345307,37.9241502 L85.5361307,35.7856359 L88.711445,36.378093 L84.1680546,39.2922264 L88.3495402,45.811693 L92.1967022,41.2995407 L92.5785689,41.6387407 C90.3624869,44.730794 88.2073537,47.8660781 86.1144165,51.0427788 L85.7133497,52.4683025 L83.1205879,51.5019025 L83.1205879,51.5019025 Z M91.4015784,39.0343978 C90.0623021,36.778093 88.7303402,34.6132168 87.4027974,32.5435788 C86.0754069,30.4739407 84.6643592,28.362093 83.1711784,26.2023978 L85.283026,26.162474 L94.9520546,19.960874 L95.1701117,18.5065502 L97.7139594,18.6275407 L97.1801689,19.8461312 L100.299712,24.7098264 C101.716397,26.9185883 102.860169,28.6177883 103.734835,29.8094073 L102.618797,31.4016359 L101.82215,30.1598835 L97.6284736,32.849712 L100.482416,37.2995407 L103.860855,35.1326835 L104.46215,32.9943217 L107.637312,33.5869312 L100.880588,37.920493 L103.601807,42.1632359 L108.494607,39.0251025 L109.146035,36.7084549 L112.504055,37.3295597 L96.6607022,47.4912359 C95.6505689,48.1391597 94.7848927,48.8405693 94.0639784,49.5950073 L92.4181117,49.336112 L102.203712,43.0598454 L99.4824926,38.8171025 L96.9197497,40.4609883 C95.909464,41.108912 95.0437879,41.8101693 94.323026,42.5646073 L92.6771594,42.305712 L99.0843212,38.1963025 L96.230226,33.746474 L91.9201307,36.5111217 L92.5837497,37.546093 L91.4015784,39.0343978 L91.4015784,39.0343978 Z M85.6813497,26.783274 L88.3361307,30.9225502 L92.6465307,28.1579025 L89.991445,24.0186264 L85.6813497,26.783274 Z M88.7343022,31.5435025 L91.5221117,35.889712 L95.832207,33.1250644 L93.0447022,28.7788549 L88.7343022,31.5435025 Z M91.3895402,23.1220168 L94.0444736,27.261293 L98.2381497,24.5714644 L95.5832165,20.4321883 L91.3895402,23.1220168 Z M94.442645,27.8823978 L97.2303022,32.2286073 L101.423978,29.5387788 L98.6363212,25.1925692 L94.442645,27.8823978 Z M86.2227594,53.4711217 L81.7640926,51.8095597 L82.5727784,50.9726835 C84.2187974,49.2692169 85.4204736,47.9817502 86.155407,47.1343597 L82.4239022,41.3163025 C81.4943785,41.9179025 80.6876736,42.5740549 80.0252736,43.2672359 L79.7499212,43.5553883 L75.7295022,42.923312 L81.2027212,39.4127597 L77.9766641,34.3829692 L77.8024926,34.4946644 C76.8481307,35.1067787 76.021464,35.7758834 75.3451974,36.4833883 L75.069845,36.7715407 L71.049426,36.1394644 L79.8326641,30.5059407 L80.5442831,27.9758073 L83.8881307,28.5996549 C83.4434736,27.9429 82.9956206,27.2883145 82.5445879,26.6359217 L81.7368165,25.4677692 L85.0532355,25.4049883 L94.2500355,19.5063217 L94.5188355,17.7129502 L98.8563594,17.919274 L98.0420355,19.7783217 L100.941235,24.2987025 C102.348016,26.4923788 103.494835,28.1946263 104.349083,29.3586644 L104.672588,29.7993502 L102.590759,32.7692549 L101.592359,31.2123788 L98.6812736,33.0795025 L100.712664,36.2467407 L103.205921,34.6476549 L103.917388,32.1175217 L109.666569,33.1905883 L101.933388,38.1505883 L103.832055,41.1105883 L107.839826,38.5402264 L108.601121,35.832874 L114.537426,36.9309312 L97.0724355,48.1327597 C96.118226,48.7448739 95.2915592,49.4139787 94.6151402,50.1216359 L94.3397879,50.4097883 L90.3195212,49.7774073 L101.151369,42.8300549 L99.2528546,39.8700549 L97.3313307,41.102512 C96.3765117,41.714931 95.549845,42.3840358 94.8741879,43.0910835 L94.5986831,43.3793883 L92.5071022,43.0503978 C90.5622133,45.7884877 88.664737,48.5599483 86.8155212,51.3635407 L86.2227594,53.4711217 L86.2227594,53.4711217 Z M84.4744926,51.1934835 L85.2039402,51.4653312 L85.413007,50.7223217 L85.478226,50.6234264 C85.8571974,50.0483407 86.2383022,49.474474 86.6216926,48.9018264 C86.0530069,49.5278074 85.3359021,50.2933693 84.4744926,51.1934835 L84.4744926,51.1934835 Z M82.8837879,39.2108549 L87.8919402,47.0191597 L88.0603212,46.7718454 L79.0927022,32.7905883 L78.8609307,32.9391597 L82.8837879,39.2108549 Z M85.2207022,39.5220168 L88.4363974,44.5355025 L92.1215784,40.2135217 L93.130645,41.109674 L98.0321307,37.9659025 L96.0007402,34.7986644 L92.9730831,36.7406073 L93.5196736,37.592874 L91.3109117,40.3738264 L90.746645,39.423274 C90.2531072,38.5916274 89.7545584,37.7629647 89.251026,36.9373312 L85.2207022,39.5220168 L85.2207022,39.5220168 Z M100.137274,38.4259407 L102.832283,42.6278454 L102.947635,42.5539407 L90.761426,23.5538644 L90.6459212,23.6279217 L100.137274,38.4259407 Z M109.691712,37.5840359 L109.470607,38.3703217 L110.471445,37.7283407 L109.691712,37.5840359 L109.691712,37.5840359 Z M90.5336165,36.114474 C90.8516355,36.6354645 91.1708736,37.1633122 91.4908736,37.6971025 L91.6485879,37.4983978 L90.6946831,36.0111597 L90.5336165,36.114474 L90.5336165,36.114474 Z M80.7736165,32.5886835 L83.9996736,37.618474 L84.2795974,37.4389692 L84.9915212,34.9088359 L88.3935784,35.5436549 C87.8561308,34.6766266 87.3120642,33.8137189 86.761426,32.9550073 C86.1238793,31.9616075 85.47776,30.9737357 84.8231402,29.9915025 L80.7736165,32.5886835 L80.7736165,32.5886835 Z M86.081045,36.6622835 L85.910226,37.2693692 L86.6820355,36.7742835 L86.081045,36.6622835 L86.081045,36.6622835 Z M90.4155212,35.9209502 L90.6669497,35.9678835 L86.2477497,29.0778264 L86.1058831,29.1687978 C86.7604291,30.1510796 87.4065481,31.1389508 88.0441689,32.1323025 C88.8480871,33.3867055 89.638583,34.6496601 90.4155212,35.9209502 L90.4155212,35.9209502 Z M89.7871022,31.7735978 L91.752207,34.8372168 L94.7797117,32.895274 L92.8147594,29.8316549 L89.7871022,31.7735978 Z M105.007216,33.8708168 L104.836397,34.4779025 L105.608207,33.9828168 L105.007216,33.8708168 L105.007216,33.8708168 Z M95.4952926,28.1123407 L97.4603974,31.1759597 L100.371483,29.3088359 L98.4063784,26.2452168 L95.4952926,28.1123407 Z M81.6342641,29.7289502 L81.463445,30.3360359 L82.2351022,29.8411025 L81.6342641,29.7289502 L81.6342641,29.7289502 Z M102.299407,29.4924549 L102.646835,30.0341692 L102.799369,29.8167217 C101.96554,28.6523788 100.933464,27.1090645 99.6584926,25.1212549 L96.3187594,19.9142454 L96.5720165,19.3362644 L95.8216926,19.3006073 L95.8093497,19.3825883 L95.8133117,19.3799978 L102.299407,29.4924549 L102.299407,29.4924549 Z M86.7339974,27.0132168 L88.5660736,29.8699025 L91.5937307,27.9279597 L89.7616546,25.0714264 L86.7339974,27.0132168 Z M85.9876355,28.9911217 L86.2200165,29.0345502 L84.8717497,26.9323025 L84.6006641,26.9374835 C85.0728927,27.6288359 85.5355212,28.3139407 85.9876355,28.9911217 L85.9876355,28.9911217 Z M92.4421879,23.352112 L94.2742641,26.2087978 L97.1853497,24.341674 L95.3532736,21.4849883 L92.4421879,23.352112 Z"></path>
                </g>
            </g>
        </g>
    </g>
</svg>