<?xml version="1.0" encoding="UTF-8"?>
<svg width="14px" height="14px" viewBox="0 0 14 14" version="1.1" xmlns="http://www.w3.org/2000/svg" xmlns:xlink="http://www.w3.org/1999/xlink">
    <!-- Generator: Sketch 63.1 (92452) - https://sketch.com -->
    <title>断路器详情表单图标</title>
    <desc>Created with Sketch.</desc>
    <g id="断路器详情表单图标" stroke="none" stroke-width="1" fill="none" fill-rule="evenodd">
        <g id="表单" transform="translate(1.000000, 1.000000)" fill="#5B8FF9" fill-rule="nonzero">
            <path d="M8.4923077,0.742857145 C8.59023379,0.742857145 8.68414908,0.78198968 8.75339328,0.851646048 C8.82263748,0.921302417 8.86153847,1.01577673 8.86153847,1.11428571 L8.86153847,9.28571429 C8.86153847,9.38422327 8.82263748,9.47869758 8.75339328,9.54835395 C8.68414908,9.61801032 8.59023379,9.65714286 8.4923077,9.65714286 L1.1076923,9.65714286 C0.903771784,9.65714286 0.73846154,9.49084862 0.73846154,9.28571429 L0.73846154,1.11428571 C0.73846154,0.909151378 0.903771784,0.742857145 1.1076923,0.742857145 L8.4923077,0.742857145 M8.4923077,0 L1.1076923,0 C0.495930737,0 0,0.498882706 0,1.11428571 L0,9.28571429 C0,9.90111729 0.495930737,10.4 1.1076923,10.4 L8.4923077,10.4 C9.10406926,10.4 9.6,9.90111729 9.6,9.28571429 L9.6,1.11428571 C9.6,0.498882706 9.10406926,0 8.4923077,0 Z" id="形状"></path>
            <path d="M4.98461539,6.8 C5.08254147,6.8 5.17645677,6.76086746 5.24570097,6.69121109 C5.31494517,6.62155472 5.35384615,6.5270804 5.35384615,6.42857142 L5.35384615,3.45714286 C5.35384615,3.25200852 5.1885359,3.08571428 4.98461538,3.08571428 C4.78069486,3.08571428 4.61538461,3.25200852 4.61538461,3.45714286 L4.61538461,6.42857142 C4.61538461,6.52708041 4.65428559,6.62155472 4.7235298,6.69121109 C4.792774,6.76086746 4.88668929,6.8 4.98461539,6.8 L4.98461539,6.8 Z M7.19999999,5.31428571 C7.29792608,5.31428571 7.39184138,5.27515318 7.46108558,5.20549681 C7.53032978,5.13584044 7.56923077,5.04136613 7.56923077,4.94285714 L7.56923077,3.45714286 C7.56923077,3.25200852 7.40392052,3.08571428 7.2,3.08571428 C6.99607948,3.08571428 6.83076923,3.25200852 6.83076923,3.45714286 L6.83076923,4.94285714 C6.83076923,5.14799148 6.99607947,5.31428571 7.19999999,5.31428571 Z M11.6307692,1.6 C11.5328431,1.6 11.4389279,1.63913254 11.3696837,1.7087889 C11.3004394,1.77844527 11.2615385,1.87291958 11.2615385,1.97142857 L11.2615385,10.5142857 C11.2615385,10.9245544 10.930918,11.2571429 10.5230769,11.2571429 L3.5076923,11.2571429 C3.30377178,11.2571429 3.13846153,11.4234371 3.13846153,11.6285714 C3.13846153,11.8337058 3.30377178,12 3.5076923,12 L10.8923077,12 C11.5040693,12 12,11.5011173 12,10.8857143 L12,1.97142857 C12,1.76629423 11.8346898,1.6 11.6307692,1.6 Z M3.13846153,3.45714286 C3.13846153,3.25200852 2.97315128,3.08571429 2.76923076,3.08571429 C2.56531024,3.08571429 2.4,3.25200852 2.4,3.45714286 L2.4,7.91428571 C2.4,8.11942004 2.56531025,8.28571426 2.76923076,8.28571426 C2.97315128,8.28571426 3.13846153,8.11942004 3.13846153,7.91428571 L3.13846153,3.45714286 Z" id="形状"></path>
        </g>
    </g>
</svg>