<?xml version="1.0" encoding="UTF-8"?>
<svg width="34px" height="34px" viewBox="0 0 34 34" version="1.1" xmlns="http://www.w3.org/2000/svg" xmlns:xlink="http://www.w3.org/1999/xlink">
    <!-- Generator: Sketch 63.1 (92452) - https://sketch.com -->
    <title>编组</title>
    <desc>Created with Sketch.</desc>
    <g id="水控独立系统" stroke="none" stroke-width="1" fill="none" fill-rule="evenodd">
        <g id="#02-设备管理-首页" transform="translate(-1751.000000, -492.000000)" fill-rule="nonzero">
            <g id="编组-10备份-2" transform="translate(1358.000000, 492.000000)">
                <g id="编组" transform="translate(393.000000, 0.000000)">
                    <path d="M0,17 C0,26.3888407 7.61115925,34 17,34 C26.3888407,34 34,26.3888407 34,17 C34,7.61115925 26.3888407,0 17,0 C7.61115925,0 0,7.61115925 0,17 Z" id="路径" fill="#8DD3FF"></path>
                    <path d="M19.0084567,14.8635372 C20.6063586,13.9180988 21.3908821,11.974957 20.9196231,10.1298774 C20.4483641,8.28479772 18.8393801,7 17,7 C15.1606199,7 13.5516359,8.28479772 13.0803769,10.1298774 C12.6091179,11.974957 13.3936414,13.9180988 14.9915433,14.8635372 C11.6596194,15.030277 9,17.8867929 9,21.3795527 C9.00233101,23.9303526 10.9943876,25.997581 13.4524313,26 L20.5475687,26 C23.0056124,25.997581 24.997669,23.9303526 25,21.3795527 C25,17.8867929 22.3361522,15.030277 19.0084567,14.8635372 L19.0084567,14.8635372 Z" id="路径" fill="#FFFFFF"></path>
                </g>
            </g>
        </g>
    </g>
</svg>