<?xml version="1.0" encoding="UTF-8"?>
<svg width="66px" height="66px" viewBox="0 0 66 66" version="1.1" xmlns="http://www.w3.org/2000/svg" xmlns:xlink="http://www.w3.org/1999/xlink">
    <!-- Generator: Sketch 63.1 (92452) - https://sketch.com -->
    <title>#0302设备在线</title>
    <desc>Created with Sketch.</desc>
    <g id="#0302设备在线" stroke="none" stroke-width="1" fill="none" fill-rule="evenodd">
        <g id="编组" transform="translate(1.000000, 3.000000)" fill="#2D92FF" fill-rule="nonzero">
            <path d="M45.8820668,27.5437693 L45.8743113,27.5437693 C36.8855831,27.5514933 29.6030847,34.8197734 29.6108341,43.7718847 C29.6108341,52.6853759 36.9398723,60 45.8820668,60 L45.8898224,60 C54.832017,60 62.1532934,52.6853759 62.1532934,43.7718847 C62.1532934,34.8583934 54.8242614,27.5437693 45.8820668,27.5437693 Z M55.3671527,40.1493306 L43.7492798,51.7198764 C43.2374109,52.2296601 42.5394078,52.523172 41.8103824,52.523172 C40.3057981,52.523172 39.2898159,51.0865088 38.2971004,50.1210093 C37.1958067,49.0550978 36.1177798,47.9737384 35.0319973,46.900103 C33.9849927,45.8341916 33.9927483,44.1194645 35.0552641,43.061277 C36.1177798,42.0030896 37.8317651,41.9953656 38.909792,43.038105 L41.8103824,45.9268795 L51.4971136,36.2796087 L51.5048692,36.2796087 C52.1951166,35.584449 53.2110988,35.3141092 54.1572807,35.561277 C55.1034626,35.8161689 55.8479992,36.5499485 56.0961781,37.492276 C56.3366013,38.4577755 56.0651557,39.461895 55.3671527,40.1493306 L55.3671527,40.1493306 Z M64.2628137,32.8578785 C60.2454184,26.1457261 53.3196771,22.1369722 45.5873544,22.1369722 L45.3857091,22.1369722 C33.5351685,22.1369722 23.8949709,31.6529351 24.0966162,43.4783728 C23.9957936,46.1817714 24.6007296,49.1941298 25.7020232,51.1946447 L3.00916868,51.1946447 C1.30293902,51.1946447 0,50.1905252 0,48.4912461 L0,3.60710608 C0,2.10092688 1.30293902,0.100411946 3.00916868,0 L23.7941483,0 C25.4926223,0 26.3612483,1.82286303 26.896384,3.15911432 C27.4858088,4.64984552 27.9976777,6.17147271 28.7111919,7.61585994 L29.5177732,9.22245108 C29.9055527,10.3810505 31.0068464,11.1534501 32.2322295,11.1302781 L61.4552903,11.1302781 C63.0606973,11.1302781 64.2705693,12.5283213 64.2705693,14.2353244 L64.2628137,32.8578785 L64.2628137,32.8578785 Z M64.3636364,5.49948507 C64.3636364,7.10607621 62.9598747,8.10247168 61.2458894,8.10247168 L33.0310552,8.10247168 C30.8594902,8.10247168 28.8740593,4.85066941 29.1532605,2.85015448 C29.3393947,1.4907312 30.843979,0.0849639547 32.2322295,0.0849639547 L61.3544677,0.0849639547 C61.556113,0.0849639547 61.7577583,0.285787848 62.0602263,0.386199794 C63.463988,0.587023687 64.3636364,2.08547889 64.3636364,3.49124614 L64.3636364,5.49948507 L64.3636364,5.49948507 Z" id="形状"></path>
        </g>
    </g>
</svg>