<?xml version="1.0" encoding="UTF-8"?>
<svg width="63px" height="63px" viewBox="0 0 63 63" version="1.1" xmlns="http://www.w3.org/2000/svg" xmlns:xlink="http://www.w3.org/1999/xlink">
    <!-- Generator: Sketch 63.1 (92452) - https://sketch.com -->
    <title>#0305冷水表</title>
    <desc>Created with Sketch.</desc>
    <g id="#0305冷水表" stroke="none" stroke-width="1" fill="none" fill-rule="evenodd">
        <g id="编组" transform="translate(1.000000, 1.000000)" fill-rule="nonzero">
            <path d="M0,31 C0,42.0752331 5.90856642,52.3091708 15.5,57.8467875 C25.0914333,63.3844042 36.9085667,63.3844042 46.5,57.8467875 C56.0914336,52.3091708 62,42.0752331 62,31 C62,13.8791727 48.1208272,0 31,0 C13.8791728,0 0,13.8791727 0,31 Z" id="路径" fill="#90C5FF"></path>
            <path d="M30.5507246,9.88405797 C24.3047013,16.4319128 13.4782609,25.0259722 13.4782609,34.4385134 C13.4782609,43.8510547 20.9734889,51.2173913 30.5507246,51.2173913 C40.1279604,51.2173913 47.6231884,43.8510547 47.6231884,34.4385134 C47.6231884,25.0259722 37.2131495,16.4319128 30.5507246,9.88405797 Z" id="路径" fill="#E5F0FE"></path>
            <path d="M31,42.2318841 C27.2092391,42.2318841 24.2608696,39.4014493 24.2608696,35.357971 C24.2608696,31.7188406 28.4728261,28.8884058 31,26.057971 C33.5271739,28.8884058 37.7391304,31.7188406 37.7391304,35.357971 C37.7391304,38.9971014 34.7907609,42.2318841 31,42.2318841 Z" id="路径" fill="#72AEFD"></path>
        </g>
    </g>
</svg>