<?xml version="1.0" encoding="UTF-8"?>
<svg width="65px" height="65px" viewBox="0 0 65 65" version="1.1" xmlns="http://www.w3.org/2000/svg" xmlns:xlink="http://www.w3.org/1999/xlink">
    <!-- Generator: Sketch 63.1 (92452) - https://sketch.com -->
    <title>#0301设备总数</title>
    <desc>Created with Sketch.</desc>
    <g id="#0301设备总数" stroke="none" stroke-width="1" fill="none" fill-rule="evenodd">
        <g id="编组" transform="translate(2.000000, 2.000000)" fill="#2D92FF" fill-rule="nonzero">
            <path d="M43.261343,-5.32907052e-15 L28.5245009,-5.32907052e-15 C26.7350272,-5.32907052e-15 25.3666061,1.36842104 25.3666061,3.15789472 L25.3666061,51.5789473 L21.1560798,51.5789473 L21.1560798,3.15789472 C21.1560798,1.47368419 19.7876588,-5.32907052e-15 17.9981851,-5.32907052e-15 L3.26134297,-5.32907052e-15 C1.47186929,-5.32907052e-15 0.10344825,1.36842104 0.10344825,3.15789472 L0.10344825,57.8947368 C0.10344825,59.5789474 1.47186929,61.0526316 3.26134297,61.0526316 L17.9981851,61.0526316 C19.7876588,61.0526316 21.1560798,59.6842105 21.1560798,57.8947368 L21.1560798,55.7894737 L25.3666061,55.7894737 L25.3666061,57.8947368 C25.3666061,59.5789474 26.7350272,61.0526316 28.5245009,61.0526316 L43.261343,61.0526316 C45.0508166,61.0526316 46.4192377,59.6842105 46.4192377,57.8947368 L46.4192377,3.15789472 C46.4192377,1.36842104 45.0508166,-5.32907052e-15 43.261343,-5.32907052e-15 Z M9.57713247,55.7894737 L5.36660614,55.7894737 L5.36660614,51.5789473 L9.57713247,51.5789473 L9.57713247,55.7894737 Z M15.8929219,9.47368422 L5.36660614,9.47368422 L5.36660614,5.26315789 L15.8929219,5.26315789 L15.8929219,9.47368422 Z M34.8402904,55.7894737 L30.629764,55.7894737 L30.629764,51.5789473 L34.8402904,51.5789473 L34.8402904,55.7894737 Z M41.1560798,9.47368422 L30.629764,9.47368422 L30.629764,5.26315789 L41.1560798,5.26315789 L41.1560798,9.47368422 Z M57.0508167,61.0526316 C55.3666061,61.0526316 53.9981851,59.6842105 53.9981851,58 L53.9981851,3.05263158 C53.9981851,1.36842104 55.3666061,-8.8817842e-15 57.0508167,-8.8817842e-15 C58.7350272,-8.8817842e-15 60.1034483,1.36842104 60.1034483,3.05263158 L60.1034483,58 C60.1034483,59.6842105 58.7350272,61.0526316 57.0508167,61.0526316 Z" id="形状"></path>
        </g>
    </g>
</svg>