<?xml version="1.0" encoding="UTF-8"?>
<svg width="38px" height="38px" viewBox="0 0 38 38" version="1.1" xmlns="http://www.w3.org/2000/svg" xmlns:xlink="http://www.w3.org/1999/xlink">
    <!-- Generator: Sketch 63.1 (92452) - https://sketch.com -->
    <title>#010111 单位最高用水量</title>
    <desc>Created with Sketch.</desc>
    <g id="#010111-单位最高用水量" stroke="none" stroke-width="1" fill="none" fill-rule="evenodd">
        <g transform="translate(1.000000, 1.000000)" fill-rule="nonzero">
            <path d="M6.74353006,13.4739148 L6.74353006,10.1087224 L23.5089185,10.1087224 L23.5089185,13.4739148 L6.74353006,13.4739148 L6.74353006,13.4739148 Z M6.74353006,20.2042996 L6.74353006,16.8391072 L18.5217034,16.8391072 L18.5217034,20.2042996 L6.74353006,20.2042996 Z M6.74353006,5.06093385 L6.74353006,0.0131452696 L10.1087224,0.0131452696 L10.1087224,5.06093385 L6.74353006,5.06093385 L6.74353006,5.06093385 Z M20.2042996,5.06093385 L20.2042996,0.0131452696 L23.569492,0.0131452696 L23.569492,5.06093385 L20.2042996,5.06093385 L20.2042996,5.06093385 Z M26.9346844,15.9978091 L26.9346844,5.06093385 L25.2520882,5.06093385 L25.2520882,1.69574148 L28.6172806,1.69574148 C29.5465528,1.69574148 30.2998767,2.44906547 30.2998767,3.37833768 L30.2998767,15.9978091 L26.9346844,15.9978091 Z M11.7913186,5.06093385 L11.7913186,1.69574148 L18.5217034,1.69574148 L18.5217034,5.06093385 L11.7913186,5.06093385 L11.7913186,5.06093385 Z M3.37833768,5.06093385 L3.37833768,30.2998767 L21.8868958,30.2998767 L21.8868958,33.6650692 L1.69574148,33.6650692 C0.766469251,33.6650692 0.0131452696,32.9117452 0.0131452696,31.982473 L0.0131452696,3.37833768 C0.0131452696,2.44906546 0.766469251,1.69574148 1.69574148,1.69574148 L5.06093385,1.69574148 L5.06093385,5.06093385 L3.37833768,5.06093385 Z" id="形状" fill="#1768E4"></path>
            <path d="M35.7548536,24.9054734 L29.8068761,18.9558132 C29.4915619,18.6399624 29.0635818,18.4624741 28.6172806,18.4624741 C28.1709793,18.4624741 27.7429993,18.6399624 27.427685,18.9558132 L21.4780249,24.9054734 L23.857216,27.2829818 L26.936367,24.2071959 L26.936367,35.3476653 L30.2998767,35.3476653 L30.2998767,24.2088785 L33.3756626,27.2829818 L35.7548536,24.9054734 L35.7548536,24.9054734 Z" id="路径" fill="#8BB3F1"></path>
        </g>
    </g>
</svg>