<?xml version="1.0" encoding="UTF-8"?>
<svg width="38px" height="38px" viewBox="0 0 38 38" version="1.1" xmlns="http://www.w3.org/2000/svg" xmlns:xlink="http://www.w3.org/1999/xlink">
    <!-- Generator: Sketch 63.1 (92452) - https://sketch.com -->
    <title>#010101 本月总收入</title>
    <desc>Created with Sketch.</desc>
    <g id="#010101-本月总收入" stroke="none" stroke-width="1" fill="none" fill-rule="evenodd">
        <g fill-rule="nonzero">
            <path d="M36.4005455,11.3602727 C37.4610909,13.7715455 38,16.3434546 38,19 C38,29.4776364 29.4759091,38 19,38 C8.52236363,38 0,29.4776364 0,19 C0,8.52236363 8.52236363,0 19,0 L19,3.45454544 C10.4275454,3.45454544 3.45454544,10.4275454 3.45454544,19 C3.45454544,27.5707273 10.4275454,34.5454546 19,34.5454546 C27.5707273,34.5454546 34.5454546,27.5707273 34.5454546,19 C34.5454546,16.8236364 34.105,14.7232727 33.2379091,12.7507273 L36.4005455,11.3602727 Z M15.4711818,13.0288182 L19.0207273,16.5783636 L22.5495455,13.0512727 L24.9936364,15.4936364 L21.4872727,19 L25.9090909,19 L25.9090909,22.4545454 L20.7272727,22.4545454 L20.7272727,27.6363636 L17.2727273,27.6363636 L17.2727273,22.4545454 L12.0909091,22.4545454 L12.0909091,19 L16.5559091,19 L13.0288182,15.4711818 L15.4711818,13.0288182 Z" id="形状" fill="#1768E4"></path>
            <path d="M38,5.25562233 L26.793635,5.25562233 L29.8520777,2.31082444 L27.4542314,0 L21.5173543,5.71778721 C21.2009376,6.01641612 21.0212766,6.43455248 21.0212766,6.87234041 C21.0212766,7.31012833 21.2009376,7.72826469 21.5173543,8.0268936 L27.4525333,13.7446809 L29.8520777,11.4338564 L26.8259006,8.52170211 L38,8.52170211 L38,5.25562233 Z" id="路径" fill="#7AAFFB"></path>
        </g>
    </g>
</svg>