<?xml version="1.0" encoding="UTF-8"?>
<svg width="38px" height="38px" viewBox="0 0 38 38" version="1.1" xmlns="http://www.w3.org/2000/svg" xmlns:xlink="http://www.w3.org/1999/xlink">
    <!-- Generator: Sketch 63.1 (92452) - https://sketch.com -->
    <title>#010105 本月总退款</title>
    <desc>Created with Sketch.</desc>
    <g id="#010105-本月总退款" stroke="none" stroke-width="1" fill="none" fill-rule="evenodd">
        <g transform="translate(1.000000, 0.000000)" fill-rule="nonzero">
            <path d="M35.3615593,5.69491524 L29.6666441,0 L27.3658983,2.30074578 L30.2979661,5.23444069 L19.5508475,5.23444069 L19.5508475,8.48867797 L30.2670508,8.48867797 L27.3658983,11.3898305 L29.6666441,13.6905763 L35.3615593,7.99566102 C35.9967571,7.36027142 35.9967571,6.33030483 35.3615593,5.69491524" id="路径" fill="#7AAFFB"></path>
            <path d="M34.315322,12.328678 C35.3143729,14.6001356 35.8220339,17.0229153 35.8220339,19.5254237 C35.8220339,29.3955254 27.7922034,37.4237288 17.9237288,37.4237288 C8.05362712,37.4237288 0.0254237415,29.3955254 0.0254237415,19.5254237 C0.0254237415,9.65532203 8.05362712,1.62711866 17.9237288,1.62711866 L17.9237288,4.88135593 C9.84833897,4.88135593 3.27966102,11.4500339 3.27966102,19.5254237 C3.27966102,27.5991864 9.84833897,34.1694915 17.9237288,34.1694915 C25.9974915,34.1694915 32.5677966,27.5991864 32.5677966,19.5254237 C32.5677966,17.4752542 32.1528814,15.496678 31.3360678,13.6385085 L34.315322,12.328678 Z M14.5995254,13.9004746 L17.9432542,17.2442034 L21.2674576,13.9216271 L23.5698305,16.2223729 L20.2667797,19.5254237 L24.4322034,19.5254237 L24.4322034,22.779661 L19.5508475,22.779661 L19.5508475,27.6610169 L16.2966102,27.6610169 L16.2966102,22.779661 L11.4152542,22.779661 L11.4152542,19.5254237 L15.6213559,19.5254237 L12.2987796,16.2012203 L14.5995254,13.9004746 Z" id="形状" fill="#1768E4"></path>
        </g>
    </g>
</svg>