<?xml version="1.0" encoding="UTF-8"?>
<svg width="38px" height="38px" viewBox="0 0 38 38" version="1.1" xmlns="http://www.w3.org/2000/svg" xmlns:xlink="http://www.w3.org/1999/xlink">
    <!-- Generator: Sketch 63.1 (92452) - https://sketch.com -->
    <title>#010109 单日最高用水量</title>
    <desc>Created with Sketch.</desc>
    <g id="#010109-单日最高用水量" stroke="none" stroke-width="1" fill="none" fill-rule="evenodd">
        <g transform="translate(1.000000, 2.000000)" fill-rule="nonzero">
            <path d="M16.8022954,10.0866238 L16.8022954,6.72878809 L23.5179669,6.72878809 L23.5179669,10.0866238 L16.8022954,10.0866238 Z M16.8022954,15.1233775 L16.8022954,11.7655417 L23.5179669,11.7655417 L23.5179669,15.1233775 L16.8022954,15.1233775 Z M3.37095233,3.37095233 L3.37095233,28.5580784 L20.1618101,28.5580784 L20.1618101,31.915915 L1.69371336,31.915915 C1.24814583,31.9163598 0.820675054,31.739671 0.505453657,31.4247645 C0.19023226,31.109858 0.0131165329,30.6825641 0.0131165329,30.2369963 L0.0131165329,1.69203443 C0.0131165329,0.76479368 0.76479368,0.0131165329 1.69203443,0.0131165329 L28.5580784,0.0131165329 C29.4853192,0.0131165329 30.2369963,0.76479368 30.2369963,1.69203443 L30.2336385,13.4444596 L26.8758027,13.4444596 L26.8791605,3.37095233 L3.37095233,3.37095233 Z M7.8838836,9.02218993 L9.6668944,6.72878809 L11.4515841,9.02218993 L14.2855975,9.93552123 L12.5529542,12.2658593 L12.5210548,15.1233775 L9.6668944,14.2688083 L6.81273397,15.1233775 L6.78251345,12.2658593 L5.04987019,9.93552123 L7.8838836,9.02218993 Z" id="形状" fill="#1768E4"></path>
            <path d="M35.681727,23.1721098 L29.7450734,17.2371351 C29.4304485,16.9219748 29.003404,16.7448745 28.5580784,16.7448745 C28.1127528,16.7448745 27.6857084,16.9219748 27.3710835,17.2371351 L21.4344298,23.1721098 L23.8084197,25.5477787 L26.8791605,22.4753589 L26.8791605,33.5948321 L30.2369963,33.5948321 L30.2369963,22.4770378 L33.3077371,25.5477787 L35.681727,23.1721098 Z" id="路径" fill="#8BB3F1"></path>
        </g>
    </g>
</svg>