<?xml version="1.0" encoding="UTF-8"?>
<svg width="38px" height="38px" viewBox="0 0 38 38" version="1.1" xmlns="http://www.w3.org/2000/svg" xmlns:xlink="http://www.w3.org/1999/xlink">
    <!-- Generator: Sketch 63.1 (92452) - https://sketch.com -->
    <title>#010107 本月平均用水量</title>
    <desc>Created with Sketch.</desc>
    <g id="#010107-本月平均用水量" stroke="none" stroke-width="1" fill="none" fill-rule="evenodd">
        <g transform="translate(5.000000, 2.000000)" fill-rule="nonzero" id="形状">
            <path d="M24.5875706,30.7584746 L3.07344632,30.7584746 L3.07344632,3.09745763 L24.5875706,3.09745763 L24.5875706,30.7584746 L24.5875706,30.7584746 Z M26.1242938,0.0240113114 L1.53672318,0.0240113114 C0.688014415,0.0240113114 0,0.712025691 0,1.56073445 L0,32.2951978 C0,33.1439065 0.688014415,33.8319209 1.53672318,33.8319209 L26.1242938,33.8319209 C26.9730025,33.8319209 27.6610169,33.1439065 27.6610169,32.2951978 L27.6610169,1.56073445 C27.6610169,0.712025691 26.9730025,0.0240113114 26.1242938,0.0240113114 Z" fill="#1768E4"></path>
            <path d="M18.440678,26.1483051 L18.440678,21.5381356 L21.5141243,21.5381356 L21.5141243,26.1483051 L18.440678,26.1483051 Z M6.14689267,26.1483051 L6.14689267,17.6963277 L9.22033898,17.6963277 L9.22033898,26.1483051 L6.14689267,26.1483051 Z M12.2937853,26.1483051 L12.2937853,12.3177966 L15.3672317,12.3177966 L15.3672317,26.1483051 L12.2937853,26.1483051 L12.2937853,26.1483051 Z M7.68361581,16.1596045 C6.83490703,16.1596045 6.14689263,15.4715901 6.14689263,14.6228814 C6.14689263,13.7741726 6.83490703,13.0861582 7.68361581,13.0861582 C8.53232458,13.0861582 9.22033898,13.7741726 9.22033898,14.6228814 C9.22033898,15.4715901 8.53232458,16.1596045 7.68361581,16.1596045 Z M19.9774011,20.0014124 C19.4283268,20.0014965 18.9209252,19.7086171 18.6463638,19.2331188 C18.3718023,18.7576204 18.3718023,18.1717581 18.6463638,17.6962598 C18.9209252,17.2207614 19.4283268,16.927882 19.9774011,16.9279661 C20.826018,16.928096 21.5138891,17.6160724 21.5138891,18.4646893 C21.5138891,19.3133062 20.826018,20.0012825 19.9774011,20.0014124 L19.9774011,20.0014124 Z M13.0621469,10.5751525 C12.5827642,10.3025973 12.2861721,9.79407747 12.2849559,9.24263145 C12.2837471,8.69118542 12.5780999,8.18136624 13.0562794,7.90670545 C13.534459,7.63204466 14.123146,7.63465594 14.59887,7.91354801 C15.3276039,8.34076645 15.5748849,9.27607873 15.1525106,10.0076309 C14.7301364,10.7391832 13.7964853,10.992664 13.0621469,10.5751525 L13.0621469,10.5751525 Z" fill="#8BB3F1"></path>
        </g>
    </g>
</svg>