<?xml version="1.0" encoding="UTF-8"?>
<svg width="38px" height="38px" viewBox="0 0 38 38" version="1.1" xmlns="http://www.w3.org/2000/svg" xmlns:xlink="http://www.w3.org/1999/xlink">
    <!-- Generator: Sketch 63.1 (92452) - https://sketch.com -->
    <title>#010102 本月余额</title>
    <desc>Created with Sketch.</desc>
    <g id="#010102-本月余额" stroke="none" stroke-width="1" fill="none" fill-rule="evenodd">
        <g transform="translate(1.000000, 2.000000)" fill-rule="nonzero" id="形状">
            <path d="M21.2727272,16.7220431 L16.3636363,16.7220431 L16.3636363,21.7603206 L13.0909091,21.7603206 L13.0909091,16.7220431 L8.18181817,16.7220431 L8.18181817,13.3631914 L12.4134545,13.3631914 L8.25218182,9.09241151 L10.566,6.71770336 L14.7485454,11.0086364 L18.9098182,6.73953591 L21.2236363,9.11256462 L17.0836364,13.3631914 L21.2727272,13.3631914 L21.2727272,16.7220431 Z M3.27272726,3.3588517 L3.27272726,28.5502392 L14.7272727,28.5502392 L14.7272727,31.9090909 L1.63636361,31.9090909 C0.732624937,31.9090909 0,31.1571863 0,30.2296651 L0,1.67942585 C0,0.75190458 0.732624937,0 1.63636361,0 L27.8181818,0 C28.7219205,0 29.4545455,0.751904564 29.4545455,1.67942585 L29.4545455,13.4354067 L26.1818182,13.4354067 L26.1818182,3.3588517 L3.27272726,3.3588517 Z" fill="#1768E4"></path>
            <path d="M31.0909091,18.0670909 L31.0909091,23.6601818 L27,25.3636364 L22.9090909,23.6601818 L22.9090909,18.0670909 L27,16.3636364 L31.0909091,18.0670909 L31.0909091,18.0670909 Z M18,27.0670909 L22.0909091,25.3636364 L26.1818182,27.0670909 L26.1818182,32.6601818 L22.0909091,34.3636364 L18,32.6601818 L18,27.0670909 Z M31.9090909,25.3636364 L36,27.0670909 L36,32.6601818 L31.9090909,34.3636364 L27.8181818,32.6601818 L27.8181818,27.0670909 L31.9090909,25.3636364 Z" fill="#7AAFFB"></path>
        </g>
    </g>
</svg>