<?xml version="1.0" encoding="UTF-8"?>
<svg width="38px" height="38px" viewBox="0 0 38 38" version="1.1" xmlns="http://www.w3.org/2000/svg" xmlns:xlink="http://www.w3.org/1999/xlink">
    <!-- Generator: Sketch 63.1 (92452) - https://sketch.com -->
    <title>#010106 本月总用水量</title>
    <desc>Created with Sketch.</desc>
    <g id="#010106-本月总用水量" stroke="none" stroke-width="1" fill="none" fill-rule="evenodd">
        <g transform="translate(1.000000, 2.000000)" fill-rule="nonzero" id="形状">
            <path d="M3.27143046,3.25875051 L3.27143046,27.6042795 L14.6326773,27.6042795 L14.6326773,30.85035 L1.64839518,30.85035 C0.752017561,30.85035 0.0253599387,30.1236924 0.0253599387,29.2273147 L0.0253599387,1.63571523 C0.0253599387,0.739337611 0.752017561,0.0126799503 1.64839518,0.0126799503 L27.6169595,0.0126799503 C28.5133371,0.0126799503 29.2399947,0.739337596 29.2399947,1.63571523 L29.2399947,13.8084797 L25.9939242,13.8084797 L25.9939242,3.25875051 L3.27143046,3.25875051 Z M6.51750098,9.75089155 L6.51750098,6.50482103 L22.7478537,6.50482103 L22.7478537,9.75089155 L6.51750098,9.75089155 Z M6.51750098,16.2430326 L6.51750098,12.9969621 L17.0672302,12.9969621 L17.0672302,16.2430326 L6.51750098,16.2430326 Z" fill="#1768E4"></path>
            <path d="M30.86303,17.1210947 L30.86303,22.6686292 L26.8054418,24.3582089 L22.7478537,22.6686292 L22.7478537,17.1210947 L26.8054418,15.431515 L30.86303,17.1210947 L30.86303,17.1210947 Z M17.8787479,26.0477887 L21.936336,24.3582089 L25.9939242,26.0477887 L25.9939242,31.5953232 L21.936336,33.2849029 L17.8787479,31.5953232 L17.8787479,26.0477887 Z M31.6745476,24.3582089 L35.7321358,26.0477887 L35.7321358,31.5953232 L31.6745476,33.2849029 L27.6169595,31.5953232 L27.6169595,26.0477887 L31.6745476,24.3582089 Z" fill="#8BB3F1"></path>
        </g>
    </g>
</svg>