<?xml version="1.0" encoding="UTF-8"?>
<svg width="38px" height="38px" viewBox="0 0 38 38" version="1.1" xmlns="http://www.w3.org/2000/svg" xmlns:xlink="http://www.w3.org/1999/xlink">
    <!-- Generator: Sketch 63.1 (92452) - https://sketch.com -->
    <title>#010112 单位平均用水量</title>
    <desc>Created with Sketch.</desc>
    <g id="#010112-单位平均用水量" stroke="none" stroke-width="1" fill="none" fill-rule="evenodd">
        <g transform="translate(1.000000, 3.000000)" fill-rule="nonzero">
            <polygon id="路径" fill="#1768E4" points="32.7272727 27.9782609 32.7272727 13.8423913 29.4545455 13.8423913 29.4545455 27.9782609 26.1818182 27.9782609 26.1818182 16.3369565 22.9090909 16.3369565 22.9090909 27.9782609 19.6363637 27.9782609 19.6363637 10.5163044 16.3636363 10.5163044 16.3636363 27.9782609 13.0909091 27.9782609 13.0909091 4.69565217 9.81818183 4.69565217 9.81818183 27.9782609 6.54545452 27.9782609 6.54545452 16.3369565 3.27272726 16.3369565 3.27272726 27.9782609 0 27.9782609 0 31.3043478 36 31.3043478 36 27.9782609"></polygon>
            <path d="M4.73937673,14.8695652 C4.16458647,14.8696556 3.63342072,14.5547728 3.34600018,14.0435513 C3.05857965,13.5323298 3.05857965,12.9024528 3.34600018,12.3912313 C3.63342072,11.8800098 4.16458647,11.565127 4.73937673,11.5652174 C5.62773862,11.5653571 6.34782611,12.3050196 6.34782611,13.2173913 C6.34782611,14.129763 5.62773862,14.8694255 4.73937673,14.8695652 L4.73937673,14.8695652 Z M11.1741593,3.30434784 C10.2857012,3.30434784 9.56546365,2.56464438 9.56546365,1.65217392 C9.56546365,0.739703461 10.2857012,0 11.1741593,0 C12.0626174,0 12.782855,0.739703461 12.782855,1.65217392 C12.782855,2.56464438 12.0626174,3.30434784 11.1741593,3.30434784 Z M17.6089419,9.08695653 C17.0341517,9.08704689 16.5029859,8.77216408 16.2155654,8.26094258 C15.9281449,7.74972108 15.9281449,7.11984413 16.2155654,6.60862263 C16.5029859,6.09740113 17.0341517,5.78251833 17.6089419,5.78260869 C18.4973038,5.78274838 19.2173913,6.52241092 19.2173913,7.43478261 C19.2173913,8.34715429 18.4973038,9.08681683 17.6089419,9.08695653 Z M24.0437246,14.8695652 C23.4689343,14.8696556 22.9377685,14.5547728 22.650348,14.0435513 C22.3629275,13.5323298 22.3629275,12.9024528 22.650348,12.3912313 C22.9377685,11.8800098 23.4689343,11.565127 24.0437246,11.5652174 C24.9320864,11.5653571 25.6521739,12.3050196 25.6521739,13.2173913 C25.6521739,14.129763 24.9320864,14.8694255 24.0437246,14.8695652 Z M30.4785071,12.3913043 C29.9037169,12.3913947 29.3725511,12.0765119 29.0851306,11.5652904 C28.7977101,11.0540689 28.7977101,10.4241919 29.0851306,9.91297044 C29.3725511,9.40174894 29.9037169,9.08686614 30.4785071,9.08695649 C31.366869,9.08709619 32.0869565,9.82675873 32.0869565,10.7391304 C32.0869565,11.6515021 31.366869,12.3911646 30.4785071,12.3913043 L30.4785071,12.3913043 Z" id="形状" fill="#8BB3F1"></path>
        </g>
    </g>
</svg>