<?xml version="1.0" encoding="UTF-8"?>
<svg width="38px" height="38px" viewBox="0 0 38 38" version="1.1" xmlns="http://www.w3.org/2000/svg" xmlns:xlink="http://www.w3.org/1999/xlink">
    <!-- Generator: Sketch 63.1 (92452) - https://sketch.com -->
    <title>#010103 本月总消费</title>
    <desc>Created with Sketch.</desc>
    <g id="#010103-本月总消费" stroke="none" stroke-width="1" fill="none" fill-rule="evenodd">
        <g transform="translate(4.000000, 1.000000)" fill-rule="nonzero">
            <path d="M3.33333336,3.36842108 L3.33333336,28.631579 L18.3333334,28.631579 L18.3333334,32 L1.66666668,32 C0.746192089,32 0,31.2459533 0,30.3157895 L0,1.68421054 C0,0.754046743 0.746192089,0 1.66666668,0 L28.3333334,0 C29.2538079,0 30,0.754046758 30,1.68421054 L30,18.5263158 L26.6666667,18.5263158 L26.6666667,3.36842108 L3.33333336,3.36842108 Z M19.765,10.9473684 C20.9898398,12.3352671 21.6661843,14.1302594 21.665,15.9898948 C21.665,20.1684211 18.3016667,23.5688421 14.165,23.5688421 C10.0254191,23.5632733 6.67125744,20.1730513 6.66666668,15.9898948 C6.66666668,13.2564211 8.13166668,10.7250527 10.4883334,9.38442106 L12.125,12.3183158 C10.8140824,13.0662023 10.0023909,14.4686444 10,15.9898948 C10,18.3107369 11.8683333,20.2004211 14.1666667,20.200421 C15.8067185,20.1961518 17.2921277,19.2211911 17.962817,17.708786 C18.6335063,16.196381 18.3650201,14.4271794 17.2766667,13.1873684 C17.0922854,12.9809018 16.8879355,12.793584 16.6666667,12.6282105 L16.6666667,14.3023158 L13.3333334,14.3023158 L13.3333334,7.76252633 L21.46,6.73684212 L21.8733334,10.0783158 L19.24,10.4117895 C19.4233333,10.5802106 19.5983333,10.7570527 19.765,10.9456842 L19.765,10.9473684 Z" id="形状" fill="#1768E4"></path>
            <polygon id="路径" fill="#7AAFFB" points="17.06825 22.3679804 21.20225 26.6986714 17 26.6986714 17 29.9759964 21.875 29.9759964 21.875 35 25.125 35 25.125 29.9759964 30 29.9759964 30 26.6986714 25.838375 26.6986714 29.949625 22.3897511 27.651875 20.0217707 23.5195 24.2787764 19.367625 20"></polygon>
        </g>
    </g>
</svg>