<?xml version="1.0" encoding="UTF-8"?>
<svg width="38px" height="38px" viewBox="0 0 38 38" version="1.1" xmlns="http://www.w3.org/2000/svg" xmlns:xlink="http://www.w3.org/1999/xlink">
    <!-- Generator: Sketch 63.1 (92452) - https://sketch.com -->
    <title>#010104 本月手工纠正次数</title>
    <desc>Created with Sketch.</desc>
    <g id="#010104-本月手工纠正次数" stroke="none" stroke-width="1" fill="none" fill-rule="evenodd">
        <g transform="translate(3.000000, 1.000000)" fill-rule="nonzero">
            <path d="M5.13388845,21.7930503 C3.90372022,19.86043 3.24838652,17.6178814 3.2443211,15.3269605 C3.2443211,8.66595372 8.66494694,3.24532788 15.3259538,3.24532788 C21.9885714,3.24532788 27.4076879,8.66595372 27.4076879,15.3269605 C27.4262537,19.8797786 24.8687336,24.0516553 20.8029605,26.1005551 C17.5986268,23.054229 13.3439762,21.3592916 8.92268845,21.3677769 C7.64042449,21.3677769 6.37104763,21.5159782 5.13388845,21.7930503 M30.3651701,22.9625524 C29.9585599,22.6298202 29.473143,22.4073606 28.9556462,22.3165878 C30.0584942,20.1519399 30.6315794,17.7563553 30.6277442,15.3269605 C30.6277442,6.88914829 23.7653769,0.0251700806 15.3243429,0.0251700806 C6.88814151,0.0251700806 0.0225523684,6.88914832 0.0225523684,15.3285714 C0.0225523684,17.9639782 0.715232653,20.5397823 1.98783131,22.814351 C1.30642722,23.1107538 0.641131998,23.4490395 -1.07306454e-14,23.8340408 L1.6592109,26.5967075 C3.85396836,25.2809435 6.3653563,24.5871099 8.92429931,24.5895456 C11.8158367,24.5895456 14.5688381,25.4529796 16.8981769,27.0525878 C16.6565442,27.0654748 16.4149116,27.0848054 16.171668,27.0848054 C14.1419538,27.0848054 12.1847293,26.6659755 10.3515429,25.8363701 L9.02417416,28.7714013 C12.4035096,30.3035709 16.1872565,30.7035848 19.8122667,29.9119075 L19.8267646,29.9570122 C19.960468,29.9167401 20.0877279,29.8635809 20.2198204,29.8184762 C22.991038,29.1726168 25.5556361,27.8410198 27.678215,25.9459102 C28.0003918,25.655951 28.2194721,25.5528544 28.3338449,25.5158041 C28.3496792,25.6068107 28.3325443,25.7004813 28.2855184,25.7799891 C25.4713034,30.5095456 20.0426231,33.4477986 14.1177905,33.4477987 C9.88760816,33.4477987 5.84106669,31.8804082 2.72078367,29.0307538 L0.547700693,31.4116408 C4.25446042,34.7996667 9.09596192,36.6761508 14.1177905,36.6711881 C21.173464,36.6711881 27.6621061,33.1272327 31.0546286,27.4263129 C31.9422258,25.934634 31.647434,24.0144599 30.3651701,22.9625524" id="形状" fill="#1768E4"></path>
            <polygon id="路径" fill="#7AAFFB" points="16.9368381 20.1612245 16.9368381 16.1340136 20.964049 16.1340136 20.964049 12.9122449 17.6456272 12.9122449 20.9157224 9.64053878 18.6363211 7.36274829 15.3468952 10.6521742 12.034917 7.34341767 9.75712653 9.61959727 13.0481633 12.9122449 9.68785849 12.9122449 9.68785849 16.1340136 13.7150694 16.1340136 13.7150694 20.1612245"></polygon>
        </g>
    </g>
</svg>