<?xml version="1.0" encoding="UTF-8"?>
<svg width="381px" height="371px" viewBox="0 0 381 371" version="1.1" xmlns="http://www.w3.org/2000/svg" xmlns:xlink="http://www.w3.org/1999/xlink">
    <!-- Generator: Sketch 63.1 (92452) - https://sketch.com -->
    <title>浏览器</title>
    <desc>Created with Sketch.</desc>
    <defs>
        <filter x="-4.6%" y="-4.7%" width="109.2%" height="109.5%" filterUnits="objectBoundingBox" id="filter-1">
            <feOffset dx="0" dy="0" in="SourceAlpha" result="shadowOffsetOuter1"></feOffset>
            <feGaussianBlur stdDeviation="4" in="shadowOffsetOuter1" result="shadowBlurOuter1"></feGaussianBlur>
            <feColorMatrix values="0 0 0 0 0   0 0 0 0 0   0 0 0 0 0  0 0 0 0.18006993 0" type="matrix" in="shadowBlurOuter1" result="shadowMatrixOuter1"></feColorMatrix>
            <feMerge>
                <feMergeNode in="shadowMatrixOuter1"></feMergeNode>
                <feMergeNode in="SourceGraphic"></feMergeNode>
            </feMerge>
        </filter>
        <path d="M0.680236527,0.902280374 L0.680236527,303.960673 C0.680236527,306.558654 2.78677545,308.666766 5.38337725,308.666766 L5.38337725,308.666766 L343.508997,308.666766 C346.106644,308.666766 348.212138,306.558654 348.212138,303.960673 L348.212138,303.960673 L348.212138,0.902280374 L0.680236527,0.902280374 Z" id="path-2"></path>
        <linearGradient x1="50.0000509%" y1="-0.000166244367%" x2="50.0000509%" y2="99.9999043%" id="linearGradient-4">
            <stop stop-color="#B8E4FF" offset="0%"></stop>
            <stop stop-color="#E4EFFB" offset="100%"></stop>
        </linearGradient>
        <path d="M339.427578,0 L8.10432335,0 C3.62792814,0 -1.18792534e-13,3.63005607 -1.18792534e-13,8.10796262 L-1.18792534e-13,8.10796262 L-1.18792534e-13,27.4263925 L347.531901,27.4263925 L347.531901,8.10796262 C347.531901,3.63005607 343.905018,0 339.429668,0 L339.429668,0 C339.429668,0 339.428623,0 339.427578,0" id="path-5"></path>
        <linearGradient x1="50.0000509%" y1="-0.000424776735%" x2="50.0000509%" y2="99.9977105%" id="linearGradient-7">
            <stop stop-color="#69A0D8" offset="0%"></stop>
            <stop stop-color="#2A5BAC" offset="100%"></stop>
        </linearGradient>
    </defs>
    <g id="浏览器" stroke="none" stroke-width="1" fill="none" fill-rule="evenodd">
        <g filter="url(#filter-1)" transform="translate(16.000000, 17.000000)" id="编组">
            <g transform="translate(0.000000, 27.214953)">
                <mask id="mask-3" fill="white">
                    <use xlink:href="#path-2"></use>
                </mask>
                <g id="Clip-36"></g>
                <path d="M0.680236527,0.902280374 L0.680236527,303.960673 C0.680236527,306.558654 2.78677545,308.666766 5.38337725,308.666766 L5.38337725,308.666766 L343.508997,308.666766 C346.106644,308.666766 348.212138,306.558654 348.212138,303.960673 L348.212138,303.960673 L348.212138,0.902280374 L0.680236527,0.902280374 Z" id="Fill-35" fill="url(#linearGradient-4)" mask="url(#mask-3)"></path>
            </g>
            <g>
                <g id="编组-2" transform="translate(0.680237, 0.691888)">
                    <mask id="mask-6" fill="white">
                        <use xlink:href="#path-5"></use>
                    </mask>
                    <g id="Clip-38"></g>
                    <path d="M339.427578,0 L8.10432335,0 C3.62792814,0 -1.18792534e-13,3.63005607 -1.18792534e-13,8.10796262 L-1.18792534e-13,8.10796262 L-1.18792534e-13,27.4263925 L347.531901,27.4263925 L347.531901,8.10796262 C347.531901,3.63005607 343.905018,0 339.429668,0 L339.429668,0 C339.429668,0 339.428623,0 339.427578,0" id="Fill-37" fill="url(#linearGradient-7)" mask="url(#mask-6)"></path>
                    <path d="M30.0285243,14.2017047 C30.0285243,17.0352 27.7328566,19.3317234 24.9021949,19.3317234 C22.0704883,19.3317234 19.7748207,17.0352 19.7748207,14.2017047 C19.7748207,11.3692561 22.0704883,9.07273271 24.9021949,9.07273271 C27.7328566,9.07273271 30.0285243,11.3692561 30.0285243,14.2017047 Z" id="Fill-39" fill="#F7A959" mask="url(#mask-6)"></path>
                    <path d="M48.2818512,14.2017047 C48.2818512,17.0352 45.9861835,19.3317234 43.1544769,19.3317234 C40.3238153,19.3317234 38.0281476,17.0352 38.0281476,14.2017047 C38.0281476,11.3692561 40.3238153,9.07273271 43.1544769,9.07273271 C45.9861835,9.07273271 48.2818512,11.3692561 48.2818512,14.2017047 Z" id="Fill-41" fill="#55CEB3" mask="url(#mask-6)"></path>
                    <polygon id="Fill-43" fill="#DCEEFD" points="8.90944005e-14 35.1596262 346.862114 35.1596262 346.862114 27.4242991 8.90944005e-14 27.4242991"></polygon>
                    <path d="M316.778627,203.424449 L316.778627,300.045907 C316.778627,305.250243 312.56346,309.458093 307.371301,309.458093 L195.06122,309.458093 C189.868016,309.458093 185.653894,305.250243 185.653894,300.045907 L185.653894,203.424449 C185.653894,198.220112 189.868016,194.013308 195.06122,194.013308 L307.371301,194.013308 C312.56346,194.013308 316.778627,198.220112 316.778627,203.424449 Z" id="Stroke-45" stroke="#B9C7FB" stroke-width="3" stroke-dasharray="6,6"></path>
                    <path d="M316.778627,67.3502056 L316.778627,163.971664 C316.778627,169.176 312.56346,173.382804 307.371301,173.382804 L195.06122,173.382804 C189.868016,173.382804 185.653894,169.176 185.653894,163.971664 L185.653894,67.3502056 C185.653894,62.1448224 189.868016,57.9380187 195.06122,57.9380187 L307.371301,57.9380187 C312.56346,57.9380187 316.778627,62.1448224 316.778627,67.3502056 Z" id="Stroke-46" stroke="#B9C7FB" stroke-width="3" stroke-dasharray="6,6"></path>
                </g>
            </g>
        </g>
    </g>
</svg>