<?xml version="1.0" encoding="UTF-8"?>
<svg width="200px" height="55px" viewBox="0 0 200 55" version="1.1" xmlns="http://www.w3.org/2000/svg" xmlns:xlink="http://www.w3.org/1999/xlink">
    <!-- Generator: Sketch 63.1 (92452) - https://sketch.com -->
    <title>左边草</title>
    <desc>Created with Sketch.</desc>
    <defs>
        <path d="M24.4765081,15.98584 C24.3129189,15.9848 24.1619135,15.94632 23.9983243,15.94632 L23.9983243,15.94632 C10.7434054,15.94632 0,24.8716 0,35.88 L0,35.88 C0,42.4892 6.44709189,47.84 14.3989946,47.84 L14.3989946,47.84 L115.188811,47.84 C120.490778,47.83896 124.789189,44.27072 124.789189,39.86944 L124.789189,39.86944 L124.789189,39.86632 C124.789189,31.05856 116.193416,23.92 105.59053,23.92 L105.59053,23.92 C105.425892,23.92 105.274886,23.95536 105.111297,23.95952 L105.111297,23.95952 C102.907038,14.84184 93.218573,7.97368 81.5932541,7.97368 L81.5932541,7.97368 C77.0651892,7.97368 72.8779351,9.07608 69.2653405,10.88568 L69.2653405,10.88568 C65.2857189,4.44912 57.3055027,0 47.9956,0 L47.9956,0 C36.3692324,0 26.6807676,6.8692 24.4765081,15.98584" id="path-1"></path>
        <linearGradient x1="50%" y1="32.7176302%" x2="50%" y2="99.9999959%" id="linearGradient-3">
            <stop stop-color="#A3E8E1" offset="0%"></stop>
            <stop stop-color="#7CCCB5" offset="100%"></stop>
        </linearGradient>
        <path d="M67.2645189,9.74792 C58.7840973,0.61152 40.2020432,5.64928 39.2624541,15.80176 L39.2624541,15.80176 C25.1801514,9.19568 15.1089297,17.59368 15.1089297,24.6376 L15.1089297,24.6376 C5.03665946,24.37552 0,27.95 0,35.36 L0,35.36 L154.370519,35.36 C154.13667,26.29744 147.105481,22.59296 133.279049,24.24552 L133.279049,24.24552 C135.97827,9.74792 112.303978,1.976 100.9188,9.74792 L100.9188,9.74792 C96.8815027,2.57296 90.4333622,-1.5631847e-07 84.2578703,-1.5631847e-07 L84.2578703,-1.5631847e-07 C75.486973,-0.00104 67.2645189,5.18752 67.2645189,9.74792" id="path-4"></path>
        <linearGradient x1="49.9999118%" y1="32.7175591%" x2="49.9999118%" y2="99.9999888%" id="linearGradient-6">
            <stop stop-color="#A1E9D8" offset="0%"></stop>
            <stop stop-color="#8CD8DD" offset="100%"></stop>
        </linearGradient>
    </defs>
    <g id="左边草" stroke="none" stroke-width="1" fill="none" fill-rule="evenodd">
        <g id="左边草丛" transform="translate(3.000000, 1.000000)">
            <g id="编组">
                <mask id="mask-2" fill="white">
                    <use xlink:href="#path-1"></use>
                </mask>
                <g id="Clip-61"></g>
                <path d="M24.4765081,15.98584 C24.3129189,15.9848 24.1619135,15.94632 23.9983243,15.94632 L23.9983243,15.94632 C10.7434054,15.94632 0,24.8716 0,35.88 L0,35.88 C0,42.4892 6.44709189,47.84 14.3989946,47.84 L14.3989946,47.84 L115.188811,47.84 C120.490778,47.83896 124.789189,44.27072 124.789189,39.86944 L124.789189,39.86944 L124.789189,39.86632 C124.789189,31.05856 116.193416,23.92 105.59053,23.92 L105.59053,23.92 C105.425892,23.92 105.274886,23.95536 105.111297,23.95952 L105.111297,23.95952 C102.907038,14.84184 93.218573,7.97368 81.5932541,7.97368 L81.5932541,7.97368 C77.0651892,7.97368 72.8779351,9.07608 69.2653405,10.88568 L69.2653405,10.88568 C65.2857189,4.44912 57.3055027,0 47.9956,0 L47.9956,0 C36.3692324,0 26.6807676,6.8692 24.4765081,15.98584" id="Fill-60" fill="url(#linearGradient-3)" mask="url(#mask-2)"></path>
            </g>
            <g id="编组" transform="translate(38.800000, 16.640000)">
                <mask id="mask-5" fill="white">
                    <use xlink:href="#path-4"></use>
                </mask>
                <g id="Clip-63"></g>
                <path d="M67.2645189,9.74792 C58.7840973,0.61152 40.2020432,5.64928 39.2624541,15.80176 L39.2624541,15.80176 C25.1801514,9.19568 15.1089297,17.59368 15.1089297,24.6376 L15.1089297,24.6376 C5.03665946,24.37552 0,27.95 0,35.36 L0,35.36 L154.370519,35.36 C154.13667,26.29744 147.105481,22.59296 133.279049,24.24552 L133.279049,24.24552 C135.97827,9.74792 112.303978,1.976 100.9188,9.74792 L100.9188,9.74792 C96.8815027,2.57296 90.4333622,-1.5631847e-07 84.2578703,-1.5631847e-07 L84.2578703,-1.5631847e-07 C75.486973,-0.00104 67.2645189,5.18752 67.2645189,9.74792" id="Fill-62" fill="url(#linearGradient-6)" mask="url(#mask-5)"></path>
            </g>
        </g>
    </g>
</svg>