<?xml version="1.0" encoding="UTF-8"?>
<svg width="150px" height="260px" viewBox="0 0 150 260" version="1.1" xmlns="http://www.w3.org/2000/svg" xmlns:xlink="http://www.w3.org/1999/xlink">
    <!-- Generator: Sketch 63.1 (92452) - https://sketch.com -->
    <title>左人</title>
    <desc>Created with Sketch.</desc>
    <defs>
        <filter x="-12.0%" y="-6.5%" width="124.1%" height="113.0%" filterUnits="objectBoundingBox" id="filter-1">
            <feOffset dx="0" dy="0" in="SourceAlpha" result="shadowOffsetOuter1"></feOffset>
            <feGaussianBlur stdDeviation="4" in="shadowOffsetOuter1" result="shadowBlurOuter1"></feGaussianBlur>
            <feColorMatrix values="0 0 0 0 0   0 0 0 0 0   0 0 0 0 0  0 0 0 0.13 0" type="matrix" in="shadowBlurOuter1" result="shadowMatrixOuter1"></feColorMatrix>
            <feMerge>
                <feMergeNode in="shadowMatrixOuter1"></feMergeNode>
                <feMergeNode in="SourceGraphic"></feMergeNode>
            </feMerge>
        </filter>
        <path d="M5.35455906,1.1075234 C-0.637771654,3.75699574 3.4485748,44.1093702 3.18048031,47.975234 L3.18048031,47.975234 C0.697464567,62.8399149 0.697464567,96.6664851 0.697464567,96.6664851 L0.697464567,96.6664851 L14.0906693,98.6878723 C14.0906693,98.6878723 21.5962677,58.8086553 24.0866142,49.5192766 L24.0866142,49.5192766 C26.0481024,42.2041787 27.934189,14.7139404 27.0293701,3.45028085 L27.0293701,3.45028085 C25.6710945,1.80993191 16.3768031,0.350680851 10.3205906,0.350680851 L10.3205906,0.350680851 C7.9349685,0.350680851 6.05307087,0.576791489 5.35455906,1.1075234" id="path-2"></path>
        <linearGradient x1="49.68053%" y1="46.2718708%" x2="49.416798%" y2="42.3472452%" id="linearGradient-4">
            <stop stop-color="#146BDA" offset="0%"></stop>
            <stop stop-color="#0050B3" offset="100%"></stop>
        </linearGradient>
        <path d="M0.0566692913,6.48916596 C0.052480315,6.52057021 0.0493385827,6.55197447 0.0472440945,6.58337872 L0.0472440945,6.58337872 C-0.0428188976,7.73591489 0.820110236,8.74399149 1.97312598,8.8319234 L1.97312598,8.8319234 L12.4508031,9.64634043 C13.5545984,9.73217872 14.5358661,8.94288511 14.6866693,7.84582979 L14.6866693,7.84582979 L15.3778504,2.85464681 L0.744708661,0.907582979 L0.0566692913,6.48916596 Z" id="path-5"></path>
        <linearGradient x1="50.0029419%" y1="47.2597357%" x2="44.6394137%" y2="52.5137923%" id="linearGradient-7">
            <stop stop-color="#F2BD69" offset="0%"></stop>
            <stop stop-color="#DF8E3D" offset="100%"></stop>
        </linearGradient>
        <path d="M13.3575984,3.0744766 C2.75320472,3.0744766 0.26076378,8.20802553 0.38119685,16.4778128 L0.38119685,16.4778128 C0.453456693,21.407234 4.73773228,28.065983 8.31616535,28.0430128 L8.31616535,28.0430128 C10.8986693,28.0272511 15.4039134,26.4549447 16.2961654,25.0469872 L16.2961654,25.0469872 C18.4115984,21.7087149 11.9396299,16.0433872 13.3575984,14.4532851 L13.3575984,14.4532851 C15.3735433,12.1911319 22.0183071,12.9469277 22.0183071,9.07897021 L22.0183071,9.07897021 C22.3167717,2.6442383 21.0600787,0.944221277 19.3405039,0.944221277 L19.3405039,0.944221277 C17.414622,0.944221277 14.9096142,3.0744766 13.3575984,3.0744766" id="path-8"></path>
        <linearGradient x1="57.7782016%" y1="6.090094%" x2="39.3234473%" y2="78.3068538%" id="linearGradient-10">
            <stop stop-color="#146EC1" offset="0%"></stop>
            <stop stop-color="#0A2A54" offset="100%"></stop>
        </linearGradient>
        <polygon id="path-11" points="0.906913386 3.70046809 9.54562992 3.50994894 9.7896378 0.662629787 1.38655118 0.474204255"></polygon>
        <linearGradient x1="49.6496793%" y1="43.1226969%" x2="50.2820302%" y2="56.2752392%" id="linearGradient-13">
            <stop stop-color="#F9C3C8" offset="0%"></stop>
            <stop stop-color="#E6959E" offset="100%"></stop>
        </linearGradient>
        <path d="M1.7195748,2.24331064 C0.71107874,7.86048511 0.373866142,11.2427234 0.704795276,12.3910723 L0.704795276,12.3910723 C1.33418898,12.0644681 2.41494488,11.2510979 3.94915748,9.95305532 L3.94915748,9.95305532 L4.24762205,0.490953191 L1.7195748,2.24331064 Z" id="path-14"></path>
        <linearGradient x1="55.0005521%" y1="48.6263318%" x2="46.5795338%" y2="51.0170531%" id="linearGradient-16">
            <stop stop-color="#F9C3C8" offset="0%"></stop>
            <stop stop-color="#E6959E" offset="100%"></stop>
        </linearGradient>
        <path d="M0.19688189,3.42097021 C0.827322835,17.7967915 9.13929921,30.8494468 18.6262835,43.6477277 L18.6262835,43.6477277 C13.6927165,53.2658043 11.9679055,87.0881872 11.9679055,87.0881872 L11.9679055,87.0881872 L25.2521969,92.2489532 C25.2521969,92.2489532 36.1194488,46.9996085 37.0064646,38.8533447 L37.0064646,38.8533447 C37.9971575,29.7565787 23.3367874,1.32944681 23.3367874,1.32944681 L23.3367874,1.32944681 C23.3367874,1.32944681 17.0920709,0.683565957 11.090315,0.683565957 L11.090315,0.683565957 C5.49070079,0.683565957 0.101582677,1.24674894 0.19688189,3.42097021" id="path-17"></path>
        <linearGradient x1="48.5258187%" y1="45.0734974%" x2="50.1101511%" y2="48.7988736%" id="linearGradient-19">
            <stop stop-color="#003D87" offset="0%"></stop>
            <stop stop-color="#0050B3" offset="100%"></stop>
        </linearGradient>
        <path d="M0.258669291,2.12083404 C-0.41680315,9.22761702 6.62067717,22.8298468 15.7484567,22.8298468 L15.7484567,22.8298468 C12.4454488,37.7688511 11.3605039,58.2119745 13.2643937,58.2119745 L13.2643937,58.2119745 C15.1693307,58.2119745 45.1906772,60.2040511 51.6814961,57.6069191 L51.6814961,57.6069191 C55.1059843,54.0310213 49.6728819,33.9396255 49.6728819,27.0589532 L49.6728819,27.0589532 C55.1510157,29.3252936 59.8468583,31.3896 64.2829843,31.3896 L64.2829843,31.3896 C64.3175433,29.7283149 66.6267165,19.7857277 66.6267165,16.946783 L66.6267165,16.946783 C58.4194646,14.5443574 47.3773228,9.19411915 39.7994646,9.33648511 L39.7994646,9.33648511 C38.5553386,9.36160851 36.9362992,9.32497021 35.2753701,9.28937872 L35.2753701,9.28937872 C32.9829528,9.24017872 30.6109449,9.19202553 29.0285591,9.29775319 L29.0285591,9.29775319 C27.4702598,9.24227234 26.0816142,9.4464 24.8741417,9.64843404 L24.8741417,9.64843404 C22.7670866,10.0022553 21.2119291,10.3550298 20.2788346,9.33648511 L20.2788346,9.33648511 C17.598937,6.41484255 17.3046614,5.07911489 15.7484567,0.970391489 L15.7484567,0.970391489 C15.8060551,0.672051064 14.8865748,0.552714894 13.4686063,0.552714894 L13.4686063,0.552714894 C9.32151969,0.553761702 0.917385827,1.57335319 0.258669291,2.12083404" id="path-20"></path>
        <linearGradient x1="49.9706871%" y1="32.5655563%" x2="25.0158238%" y2="72.0251698%" id="linearGradient-22">
            <stop stop-color="#52A3FB" offset="0%"></stop>
            <stop stop-color="#1C7CE6" offset="100%"></stop>
        </linearGradient>
        <path d="M0.900629921,4.98879149 C0.736212598,6.05025532 1.40225984,7.06670638 2.44426772,7.33678298 L2.44426772,7.33678298 L12.8235039,10.0323149 C12.8790079,10.0469702 12.9324173,10.0584851 12.986874,10.0679064 L12.986874,10.0679064 C14.1262756,10.2688936 15.213315,9.50786383 15.4143858,8.36893617 L15.4143858,8.36893617 L16.2888346,3.40497021 L1.67559055,0.00912340426 L0.900629921,4.98879149 Z" id="path-23"></path>
        <linearGradient x1="49.6271119%" y1="47.0930799%" x2="43.4111631%" y2="53.4597725%" id="linearGradient-25">
            <stop stop-color="#F2BD69" offset="0%"></stop>
            <stop stop-color="#DF8E3D" offset="100%"></stop>
        </linearGradient>
    </defs>
    <g id="左人" stroke="none" stroke-width="1" fill="none" fill-rule="evenodd">
        <g id="男左" filter="url(#filter-1)" transform="translate(8.000000, 7.000000)">
            <g id="编组">
                <path d="M131.417405,9.41216936 L131.417405,106.040969 C131.417405,111.245701 127.193869,115.453871 121.989066,115.453871 L9.42812913,115.453871 C4.22332598,115.453871 -0.000209448819,111.245701 -0.000209448819,106.040969 L-0.000209448819,9.41216936 C-0.000209448819,4.20743745 4.22332598,0.000314042553 9.42812913,0.000314042553 L121.989066,0.000314042553 C127.193869,0.000314042553 131.417405,4.20743745 131.417405,9.41216936" id="Fill-134" fill="#E6F1FD"></path>
                <path d="M10.0756402,22.0618034 L47.1554118,34.6308332 L36.700774,43.6281523 C51.6114354,57.1811821 65.2413173,64.9327991 81.9532386,70.8556417 C93.1964512,74.6409013 120.646813,78.8637268 132.500569,78.8155736 C110.540908,84.1249864 63.6411283,74.685914 44.7959709,62.7439226 C35.3529709,56.9707736 33.8522701,55.3681098 28.2160024,50.9296417 L17.5403961,60.11748 L10.0756402,22.0618034 Z" id="Fill-136" fill="#F7A959"></path>
                <path d="M51.9065488,232.679885 L50.6477614,238.971204 C50.6477614,238.971204 45.9979976,242.916626 44.0228953,238.013374 C44.0228953,238.013374 44.9685567,232.662089 45.1916197,231.454072 C45.4167772,230.245009 51.9065488,232.679885 51.9065488,232.679885" id="Fill-138" fill="#FAC3C9"></path>
            </g>
            <g id="编组" transform="translate(40.842520, 133.991489)">
                <mask id="mask-3" fill="white">
                    <use xlink:href="#path-2"></use>
                </mask>
                <g id="Clip-141"></g>
                <path d="M5.35455906,1.1075234 C-0.637771654,3.75699574 3.4485748,44.1093702 3.18048031,47.975234 L3.18048031,47.975234 C0.697464567,62.8399149 0.697464567,96.6664851 0.697464567,96.6664851 L0.697464567,96.6664851 L14.0906693,98.6878723 C14.0906693,98.6878723 21.5962677,58.8086553 24.0866142,49.5192766 L24.0866142,49.5192766 C26.0481024,42.2041787 27.934189,14.7139404 27.0293701,3.45028085 L27.0293701,3.45028085 C25.6710945,1.80993191 16.3768031,0.350680851 10.3205906,0.350680851 L10.3205906,0.350680851 C7.9349685,0.350680851 6.05307087,0.576791489 5.35455906,1.1075234" id="Fill-140" fill="url(#linearGradient-4)" mask="url(#mask-3)"></path>
            </g>
            <g id="编组" transform="translate(40.795276, 224.017021)">
                <mask id="mask-6" fill="white">
                    <use xlink:href="#path-5"></use>
                </mask>
                <g id="Clip-143"></g>
                <path d="M0.0566692913,6.48916596 C0.052480315,6.52057021 0.0493385827,6.55197447 0.0472440945,6.58337872 L0.0472440945,6.58337872 C-0.0428188976,7.73591489 0.820110236,8.74399149 1.97312598,8.8319234 L1.97312598,8.8319234 L12.4508031,9.64634043 C13.5545984,9.73217872 14.5358661,8.94288511 14.6866693,7.84582979 L14.6866693,7.84582979 L15.3778504,2.85464681 L0.744708661,0.907582979 L0.0566692913,6.48916596 Z" id="Fill-142" fill="url(#linearGradient-7)" mask="url(#mask-6)"></path>
            </g>
            <path d="M69.7649929,67.3628604 C70.9211504,69.841703 70.3535441,71.1910391 70.6373472,72.235754 C70.9221976,73.2815157 72.0081898,75.3897881 72.0532213,76.3894902 C72.0993,77.3902391 71.0332055,77.5263243 70.8038591,78.8337881 C70.5734654,80.1412519 71.1777252,81.8444094 70.378678,83.2146817 C69.580678,84.5839072 66.4787409,84.2677711 66.6620087,85.5888434 C66.8442291,86.9120094 68.7994339,91.8184009 68.7994339,91.8184009 L56.0481898,92.0235753 C56.0481898,92.0235753 56.5571504,84.880154 55.9089063,81.9271072 C55.259615,78.9751072 53.8217488,68.1291243 56.4691819,66.8143328 C59.116615,65.4974477 68.5376228,64.7311838 69.7649929,67.3628604" id="Fill-144" fill="#FAC3C9"></path>
            <g id="编组" transform="translate(48.173228, 56.527660)">
                <mask id="mask-9" fill="white">
                    <use xlink:href="#path-8"></use>
                </mask>
                <g id="Clip-147"></g>
                <path d="M13.3575984,3.0744766 C2.75320472,3.0744766 0.26076378,8.20802553 0.38119685,16.4778128 L0.38119685,16.4778128 C0.453456693,21.407234 4.73773228,28.065983 8.31616535,28.0430128 L8.31616535,28.0430128 C10.8986693,28.0272511 15.4039134,26.4549447 16.2961654,25.0469872 L16.2961654,25.0469872 C18.4115984,21.7087149 11.9396299,16.0433872 13.3575984,14.4532851 L13.3575984,14.4532851 C15.3735433,12.1911319 22.0183071,12.9469277 22.0183071,9.07897021 L22.0183071,9.07897021 C22.3167717,2.6442383 21.0600787,0.944221277 19.3405039,0.944221277 L19.3405039,0.944221277 C17.414622,0.944221277 14.9096142,3.0744766 13.3575984,3.0744766" id="Fill-146" fill="url(#linearGradient-10)" mask="url(#mask-9)"></path>
            </g>
            <path d="M37.1899417,59.4576766 C37.1899417,59.4576766 36.8663433,54.3586723 37.1899417,51.6715149 C37.710422,47.3429617 48.0362488,47.3230723 48.4802803,51.0716936 C48.9515402,55.0516596 47.0926819,56.0921872 45.8768315,57.1316681 C44.6620283,58.1711489 44.3541386,59.9863149 44.0064535,60.6793021 C43.8912567,60.9064596 42.1004693,84.0158043 41.5401937,84.0472085 C40.6636504,84.0974553 33.8062961,84.3926553 33.1507213,83.6766383 C32.9486031,83.4557617 37.272674,59.7717191 37.1899417,59.4576766" id="Fill-148" fill="#FAC3C9"></path>
            <g id="编组" transform="translate(32.464567, 78.510638)">
                <mask id="mask-12" fill="white">
                    <use xlink:href="#path-11"></use>
                </mask>
                <g id="Clip-151"></g>
                <polygon id="Fill-150" fill="url(#linearGradient-13)" mask="url(#mask-12)" points="0.906913386 3.70046809 9.54562992 3.50994894 9.7896378 0.662629787 1.38655118 0.474204255"></polygon>
            </g>
            <path d="M91.7565953,110.351517 C96.4932803,108.092505 103.860643,100.198522 113.858682,86.6695685 C115.036831,85.3840877 117.01717,83.0517983 117.60991,81.2868791 C118.999603,77.1540791 109.679131,72.7218919 107.667375,75.9167515 C105.530997,79.3125983 106.763603,81.0482068 107.416036,82.5043174 C107.853784,83.485177 108.209847,84.8146238 108.40254,85.8174664 C103.764296,93.0844111 93.7484535,99.6468536 93.7536898,99.9012281 C93.7641622,100.417305 93.0991622,103.901083 91.7565953,110.351517" id="Fill-152" fill="#FAC3C9"></path>
            <g id="编组" transform="translate(92.157480, 97.353191)">
                <mask id="mask-15" fill="white">
                    <use xlink:href="#path-14"></use>
                </mask>
                <g id="Clip-155"></g>
                <path d="M1.7195748,2.24331064 C0.71107874,7.86048511 0.373866142,11.2427234 0.704795276,12.3910723 L0.704795276,12.3910723 C1.33418898,12.0644681 2.41494488,11.2510979 3.94915748,9.95305532 L3.94915748,9.95305532 L4.24762205,0.490953191 L1.7195748,2.24331064 Z" id="Fill-154" fill="url(#linearGradient-16)" mask="url(#mask-15)"></path>
            </g>
            <path d="M77.1575937,224.430197 C75.1395543,229.42452 74.130011,231.920111 74.130011,231.920111 C74.130011,231.920111 69.0487827,235.199763 67.9083339,230.038997 C67.9083339,230.038997 69.9263732,224.85206 70.3473654,223.696384 C70.7673102,222.541754 77.1575937,224.430197 77.1575937,224.430197" id="Fill-156" fill="#FAC3C9"></path>
            <g id="编组" transform="translate(55.503937, 135.038298)">
                <mask id="mask-18" fill="white">
                    <use xlink:href="#path-17"></use>
                </mask>
                <g id="Clip-159"></g>
                <path d="M0.19688189,3.42097021 C0.827322835,17.7967915 9.13929921,30.8494468 18.6262835,43.6477277 L18.6262835,43.6477277 C13.6927165,53.2658043 11.9679055,87.0881872 11.9679055,87.0881872 L11.9679055,87.0881872 L25.2521969,92.2489532 C25.2521969,92.2489532 36.1194488,46.9996085 37.0064646,38.8533447 L37.0064646,38.8533447 C37.9971575,29.7565787 23.3367874,1.32944681 23.3367874,1.32944681 L23.3367874,1.32944681 C23.3367874,1.32944681 17.0920709,0.683565957 11.090315,0.683565957 L11.090315,0.683565957 C5.49070079,0.683565957 0.101582677,1.24674894 0.19688189,3.42097021" id="Fill-158" fill="url(#linearGradient-19)" mask="url(#mask-18)"></path>
            </g>
            <g id="编组" transform="translate(28.275591, 80.604255)">
                <mask id="mask-21" fill="white">
                    <use xlink:href="#path-20"></use>
                </mask>
                <g id="Clip-161"></g>
                <path d="M0.258669291,2.12083404 C-0.41680315,9.22761702 6.62067717,22.8298468 15.7484567,22.8298468 L15.7484567,22.8298468 C12.4454488,37.7688511 11.3605039,58.2119745 13.2643937,58.2119745 L13.2643937,58.2119745 C15.1693307,58.2119745 45.1906772,60.2040511 51.6814961,57.6069191 L51.6814961,57.6069191 C55.1059843,54.0310213 49.6728819,33.9396255 49.6728819,27.0589532 L49.6728819,27.0589532 C55.1510157,29.3252936 59.8468583,31.3896 64.2829843,31.3896 L64.2829843,31.3896 C64.3175433,29.7283149 66.6267165,19.7857277 66.6267165,16.946783 L66.6267165,16.946783 C58.4194646,14.5443574 47.3773228,9.19411915 39.7994646,9.33648511 L39.7994646,9.33648511 C38.5553386,9.36160851 36.9362992,9.32497021 35.2753701,9.28937872 L35.2753701,9.28937872 C32.9829528,9.24017872 30.6109449,9.19202553 29.0285591,9.29775319 L29.0285591,9.29775319 C27.4702598,9.24227234 26.0816142,9.4464 24.8741417,9.64843404 L24.8741417,9.64843404 C22.7670866,10.0022553 21.2119291,10.3550298 20.2788346,9.33648511 L20.2788346,9.33648511 C17.598937,6.41484255 17.3046614,5.07911489 15.7484567,0.970391489 L15.7484567,0.970391489 C15.8060551,0.672051064 14.8865748,0.552714894 13.4686063,0.552714894 L13.4686063,0.552714894 C9.32151969,0.553761702 0.917385827,1.57335319 0.258669291,2.12083404" id="Fill-160" fill="url(#linearGradient-22)" mask="url(#mask-21)"></path>
            </g>
            <g id="编组" transform="translate(41.889764, 229.251064)">
                <path d="M1.63788976,8.10470553 C0.883874016,8.00630553 0.520480315,7.78333532 0.550850394,10.7845353 C0.582267717,13.7857353 0.44507874,15.3747906 2.77833858,15.6961609 C4.24448031,15.8971481 21.1867953,11.847046 20.5898661,9.44880766 C19.9133465,5.57666298 14.4289291,6.6004417 9.58333071,6.4151566 C8.88796063,6.38793957 8.75077165,8.60089277 8.08158268,8.57786298 C4.80161417,8.46794809 2.13533071,8.16960766 1.63788976,8.10470553" id="Fill-162" fill="#DC8042"></path>
                <path d="M0.863662205,14.6217166 C0.863662205,14.6217166 16.3115598,12.526006 20.4712134,9.03699319 C20.7434969,9.71532511 21.284922,13.3477506 15.1931031,13.7654272 C9.10023701,14.1810102 5.04635512,16.9875038 2.81258346,16.6336826 C0.578811811,16.2809081 0.863662205,14.6217166 0.863662205,14.6217166" id="Fill-164" fill="#AC561D"></path>
                <path d="M25.7679646,0.069612766 C25.254815,-0.21407234 23.8839724,0.283161702 23.4881142,3.05615745 C23.0922559,5.82915319 22.2911142,8.04524681 24.7301457,8.54038723 C26.263311,8.85233617 43.3250118,7.17744255 44.0434213,4.91842979 C45.0602953,1.86593617 38.1966575,1.06198723 33.3845709,0.069612766 C33.097626,0.00994468085 32.291248,2.69814894 32.0074449,2.63743404 C28.8384843,1.97375745 26.9607756,0.729102128 25.7679646,0.069612766" id="Fill-166" fill="#DC8042"></path>
                <polygon id="Fill-168" fill="#FFFFFF" points="11.3918165 6.53145702 12.4317299 6.53145702 12.9689661 9.44263149 11.9374307 9.62477617"></polygon>
                <polygon id="Fill-170" fill="#FFFFFF" points="35.2678299 0.466248511 36.3412551 0.666188936 36.9182866 4.07250383 35.8867512 4.2536017"></polygon>
                <polygon id="Fill-172" fill="#FFFFFF" points="14.3965693 6.3954766 15.4375299 6.48968936 15.9737189 9.30665106 14.9421835 9.48774894"></polygon>
                <polygon id="Fill-174" fill="#FFFFFF" points="38.4892575 1.13997447 39.5490685 1.36189787 40.0601236 4.07313191 39.0285882 4.25422979"></polygon>
            </g>
            <g id="编组" transform="translate(65.976378, 217.689362)">
                <mask id="mask-24" fill="white">
                    <use xlink:href="#path-23"></use>
                </mask>
                <g id="Clip-177"></g>
                <path d="M0.900629921,4.98879149 C0.736212598,6.05025532 1.40225984,7.06670638 2.44426772,7.33678298 L2.44426772,7.33678298 L12.8235039,10.0323149 C12.8790079,10.0469702 12.9324173,10.0584851 12.986874,10.0679064 L12.986874,10.0679064 C14.1262756,10.2688936 15.213315,9.50786383 15.4143858,8.36893617 L15.4143858,8.36893617 L16.2888346,3.40497021 L1.67559055,0.00912340426 L0.900629921,4.98879149 Z" id="Fill-176" fill="url(#linearGradient-25)" mask="url(#mask-24)"></path>
            </g>
            <g id="编组" transform="translate(46.078740, 82.697872)">
                <path d="M14.996326,0.978451915 C16.2582551,1.48406043 18.1202551,1.98652851 20.5833732,2.48480936 C20.6011764,3.00926043 20.8231921,3.89172 21.2494205,5.13218809 L14.996326,0.978451915 Z" id="Fill-178" fill="#E6969F"></path>
                <path d="M0.925030709,56.3693821 C7.89862913,56.7158757 25.9855819,56.84568 28.5586606,56.5368715 C28.4602197,58.0191523 25.5939126,61.8284885 18.1228732,61.1794672 C11.0382669,60.4739183 1.43189685,57.9647183 0.925030709,56.3693821" id="Fill-180" fill="#ECFCFB"></path>
                <path d="M19.0907362,153.800247 C19.0907362,153.800247 35.4612559,153.798153 40.013626,150.841966 C40.2021299,151.547515 39.5151378,155.022919 33.4180827,154.694221 C27.3199803,154.365523 22.9540197,156.656987 20.7799409,156.034136 C18.604815,155.412332 19.0907362,153.800247 19.0907362,153.800247" id="Fill-182" fill="#AC561D"></path>
            </g>
        </g>
    </g>
</svg>