<?xml version="1.0" encoding="UTF-8"?>
<svg width="175px" height="200px" viewBox="0 0 175 200" version="1.1" xmlns="http://www.w3.org/2000/svg" xmlns:xlink="http://www.w3.org/1999/xlink">
    <!-- Generator: Sketch 63.1 (92452) - https://sketch.com -->
    <title>左边树</title>
    <desc>Created with Sketch.</desc>
    <defs>
        <path d="M0.348983182,12.5367447 C0.552707317,25.7944255 36.3696098,17.5392872 72.4875122,58.8736596 L72.4875122,58.8736596 C67.7019268,22.170883 44.7808293,5.94877128 28.122,1.15265957 L28.122,1.15265957 C25.4413171,0.38037766 22.9032683,0.0471542553 20.5309268,0.0471542553 L20.5309268,0.0471542553 C8.15846341,0.0471542553 0.296804878,9.12906383 0.348983182,12.5367447" id="path-1"></path>
        <linearGradient x1="27.1945188%" y1="27.5496329%" x2="90.9301748%" y2="74.0914168%" id="linearGradient-3">
            <stop stop-color="#B3E2E6" offset="0%"></stop>
            <stop stop-color="#72DAC3" offset="100%"></stop>
        </linearGradient>
        <path d="M4.69173171,22.5795532 C-13.2319268,54.2315851 23.7763902,71.9500585 60.8392439,98.3218617 L60.8392439,98.3218617 C97.9031463,124.693665 105.32222,195.53717 105.32222,195.53717 L105.32222,195.53717 C151.561902,63.5503138 91.02,0.632914894 43.7682439,0.637106383 L43.7682439,0.637106383 C27.5687805,0.637106383 12.9267561,8.03508511 4.69173171,22.5795532" id="path-4"></path>
        <linearGradient x1="46.4448505%" y1="-0.0279905482%" x2="56.8233768%" y2="100.237552%" id="linearGradient-6">
            <stop stop-color="#B3E2E6" offset="0%"></stop>
            <stop stop-color="#72DAC3" offset="100%"></stop>
        </linearGradient>
        <path d="M47.0975854,0.0237712766 C40.1148049,0.145324468 11.643561,21.0346596 0.952292683,80.4783617 L0.952292683,80.4783617 C31.7811951,61.8304255 63.1586098,57.2606543 63.9682683,30.7243351 L63.9682683,30.7243351 C64.5146829,12.8465851 59.6850488,0.0227234043 47.410122,0.0206276596 L47.410122,0.0206276596 C47.3052439,0.0206276596 47.2024634,0.0216755319 47.0975854,0.0237712766" id="path-7"></path>
        <linearGradient x1="34.5475687%" y1="4.61708304%" x2="61.3722476%" y2="103.016787%" id="linearGradient-9">
            <stop stop-color="#B3E2E6" offset="0%"></stop>
            <stop stop-color="#72DAC3" offset="100%"></stop>
        </linearGradient>
    </defs>
    <g id="左边树" stroke="none" stroke-width="1" fill="none" fill-rule="evenodd">
        <g id="左边叶子" transform="translate(2.000000, 1.000000)">
            <g id="编组" transform="translate(32.560976, 136.223404)">
                <mask id="mask-2" fill="white">
                    <use xlink:href="#path-1"></use>
                </mask>
                <g id="Clip-10"></g>
                <path d="M0.348983182,12.5367447 C0.552707317,25.7944255 36.3696098,17.5392872 72.4875122,58.8736596 L72.4875122,58.8736596 C67.7019268,22.170883 44.7808293,5.94877128 28.122,1.15265957 L28.122,1.15265957 C25.4413171,0.38037766 22.9032683,0.0471542553 20.5309268,0.0471542553 L20.5309268,0.0471542553 C8.15846341,0.0471542553 0.296804878,9.12906383 0.348983182,12.5367447" id="Fill-9" fill="url(#linearGradient-3)" mask="url(#mask-2)"></path>
            </g>
            <g id="编组">
                <mask id="mask-5" fill="white">
                    <use xlink:href="#path-4"></use>
                </mask>
                <g id="Clip-12"></g>
                <path d="M4.69173171,22.5795532 C-13.2319268,54.2315851 23.7763902,71.9500585 60.8392439,98.3218617 L60.8392439,98.3218617 C97.9031463,124.693665 105.32222,195.53717 105.32222,195.53717 L105.32222,195.53717 C151.561902,63.5503138 91.02,0.632914894 43.7682439,0.637106383 L43.7682439,0.637106383 C27.5687805,0.637106383 12.9267561,8.03508511 4.69173171,22.5795532" id="Fill-11" fill="url(#linearGradient-6)" mask="url(#mask-5)"></path>
            </g>
            <g id="编组" transform="translate(105.975610, 115.218085)">
                <mask id="mask-8" fill="white">
                    <use xlink:href="#path-7"></use>
                </mask>
                <g id="Clip-14"></g>
                <path d="M47.0975854,0.0237712766 C40.1148049,0.145324468 11.643561,21.0346596 0.952292683,80.4783617 L0.952292683,80.4783617 C31.7811951,61.8304255 63.1586098,57.2606543 63.9682683,30.7243351 L63.9682683,30.7243351 C64.5146829,12.8465851 59.6850488,0.0227234043 47.410122,0.0206276596 L47.410122,0.0206276596 C47.3052439,0.0206276596 47.2024634,0.0216755319 47.0975854,0.0237712766" id="Fill-13" fill="url(#linearGradient-9)" mask="url(#mask-8)"></path>
            </g>
            <g id="编组" transform="translate(39.902439, 29.340426)" fill="#FFFFFF">
                <path d="M59.4701537,95.2808876 C59.2887146,95.283975 59.1219585,95.1550867 59.076861,94.9612303 C59.0537878,94.8690176 56.7716415,85.7776771 50.6603976,85.8007303 C50.4391049,85.8007303 50.2587146,85.6121133 50.2576607,85.3784378 C50.2566171,85.1458101 50.4149829,84.9519537 50.6562024,84.953995 C57.3935683,84.9278527 59.7533244,94.3513686 59.8519098,94.7527037 C59.9064463,94.9790441 59.7763976,95.2095761 59.5634951,95.2661612 C59.5330805,95.2745441 59.5016171,95.2797835 59.4701537,95.2808876" id="Fill-15"></path>
                <path d="M64.3627146,117.040529 C64.3385927,117.040529 64.313422,117.039481 64.2882512,117.034242 C64.055422,116.996519 63.8981049,116.771226 63.9337634,116.533359 C63.978861,116.239955 65.0853244,109.338668 69.4891537,107.546806 C69.7104463,107.457737 69.9548122,107.568811 70.041861,107.795152 C70.127861,108.021492 70.0208854,108.276125 69.8016902,108.365194 C65.8519829,109.97263 64.7853732,116.605662 64.7738366,116.671678 C64.7423732,116.883348 64.5651293,117.036338 64.3627146,117.040529" id="Fill-17"></path>
                <path d="M47.1320902,53.1449011 C46.9600902,53.1479803 46.7964805,53.035858 46.7325049,52.8566718 C40.124139,34.2317888 21.7411146,37.9223952 21.557578,37.965358 C21.3341878,38.0072729 21.1097488,37.8574271 21.0646512,37.6174644 C21.0174561,37.3764537 21.1632366,37.1427782 21.390822,37.0956239 C21.5827488,37.0558048 40.6537732,33.2038261 47.5169927,52.5465016 C47.5977488,52.7749378 47.4886756,53.0306186 47.2726268,53.1165441 C47.2264805,53.134358 47.1792854,53.1437888 47.1320902,53.1449011" id="Fill-19"></path>
                <path d="M52.4820244,68.1139293 C52.321561,68.1159984 52.1736829,67.9944452 52.1264878,67.8058282 C50.0257805,59.3411154 51.624122,53.3221367 53.3346829,49.7625144 C55.1941707,45.8958654 57.5287561,44.0620888 57.6273415,43.9855941 C57.7930488,43.8577537 58.0174878,43.9101473 58.1286585,44.1060995 C58.2398293,44.3010037 58.1947317,44.5640197 58.0290244,44.6918601 C57.9377805,44.7641633 48.9465854,51.9672378 52.8218293,67.5742484 C52.8774146,67.799541 52.7672927,68.0332165 52.5753659,68.0971367 C52.5439024,68.1065676 52.5134878,68.1128548 52.4820244,68.1139293" id="Fill-21"></path>
                <path d="M66.0971878,167.064252 C65.938822,167.067317 65.7898951,166.976152 65.7175293,166.824211 C48.2280659,130.334152 6.83060244,119.269668 6.41423659,119.161737 C6.19084634,119.103056 6.05450488,118.871477 6.11009024,118.639897 C6.16462683,118.409365 6.38487073,118.265806 6.61350488,118.325535 C7.02777317,118.433466 47.6617244,129.291519 65.7196268,164.935945 C65.8696024,157.695147 66.0143341,128.064461 59.6241146,95.8067585 C52.8783585,61.7530032 37.2599195,17.7203596 1.17138293,1.33373191 C0.960578049,1.23732766 0.865139024,0.983742553 0.956382927,0.766832979 C1.04762683,0.548875532 1.29723659,0.44932766 1.50384634,0.545731915 C21.6068707,9.67479574 48.1494073,33.5830511 60.4411146,95.6527213 C67.7815293,132.714918 66.5177488,166.31704 66.5041146,166.651312 C66.4967732,166.848312 66.3614805,167.013876 66.1747976,167.053695 C66.1506756,167.06103 66.1234073,167.064252 66.0971878,167.064252" id="Fill-23"></path>
                <path d="M64.8789244,165.718554 C64.7562171,165.720591 64.6335098,165.666102 64.5506561,165.559219 C64.4048756,165.373746 64.4310951,165.101299 64.608339,164.950405 C104.401168,130.955331 111.715363,99.5149691 111.784583,99.2016553 C111.835973,98.9690277 112.064607,98.8254691 112.281705,98.8789106 C112.505095,98.9323521 112.644583,99.1639319 112.592144,99.3976074 C112.522924,99.713017 105.166778,131.421634 65.133778,165.619996 C65.0582659,165.684964 64.9691195,165.717448 64.8789244,165.718554" id="Fill-25"></path>
                <path d="M28.3586049,128.48323 C28.2967268,128.484238 28.2327512,128.464329 28.1761171,128.42451 C22.8441171,124.697228 24.6794829,118.389036 24.6973122,118.326164 C24.7591902,118.119733 24.9553122,118.009706 25.1357024,118.084105 C25.3150439,118.157456 25.4083854,118.384845 25.3475561,118.593371 C25.2772878,118.825999 23.6873366,124.356669 28.5295561,127.743393 C28.6921171,127.856563 28.7456049,128.102813 28.6480683,128.289334 C28.5840927,128.412983 28.4739707,128.481095 28.3586049,128.48323" id="Fill-27"></path>
                <path d="M44.3314268,140.431345 C44.2255,140.433441 44.1185244,140.39467 44.0356707,140.315031 C37.379061,133.979595 28.3847195,134.247851 28.296622,134.247851 C28.2945244,134.247851 28.291378,134.248898 28.2882317,134.248898 C28.0575,134.25309 27.866622,134.066569 27.8571829,133.828702 C27.8487927,133.589787 28.0302317,133.387547 28.2641098,133.378116 C28.6458659,133.355063 37.6853049,133.083664 44.6125,139.676877 C44.7834512,139.840345 44.793939,140.114888 44.6355732,140.29093 C44.5527195,140.383143 44.4425976,140.429249 44.3314268,140.431345" id="Fill-29"></path>
                <path d="M98.8081268,128.25718 C98.721078,128.259155 98.635078,128.234006 98.5616634,128.178469 C98.3833707,128.047485 98.3477122,127.797044 98.4809073,127.622049 C105.721688,118.024586 98.2061268,108.042554 98.1306146,107.943006 C97.995322,107.768012 98.0299317,107.51757 98.2061268,107.38449 C98.3833707,107.251411 98.635078,107.284943 98.7703707,107.459937 C98.8511268,107.564724 106.725371,118.024586 99.1248585,128.097783 C99.0462,128.199427 98.9276878,128.254964 98.8081268,128.25718" id="Fill-31"></path>
                <path d="M83.7477439,148.959741 C83.6334268,148.96176 83.518061,148.920893 83.4331098,148.837063 C83.2684512,148.677786 83.2726463,148.423153 83.4435976,148.269116 C94.6225488,138.12676 102.331085,138.145621 102.648866,138.151909 C102.88589,138.155052 103.072573,138.33843 103.067437,138.560579 C103.063134,138.78168 102.875402,138.954579 102.632085,138.955627 C102.562866,138.955627 94.9277439,138.966105 84.0382561,148.846494 C83.9564512,148.919845 83.852622,148.957568 83.7477439,148.959741" id="Fill-33"></path>
            </g>
        </g>
    </g>
</svg>