<?xml version="1.0" encoding="UTF-8"?>
<svg width="210px" height="410px" viewBox="0 0 210 410" version="1.1" xmlns="http://www.w3.org/2000/svg" xmlns:xlink="http://www.w3.org/1999/xlink">
    <!-- Generator: Sketch 63.1 (92452) - https://sketch.com -->
    <title>女右</title>
    <desc>Created with Sketch.</desc>
    <defs>
        <filter x="-8.2%" y="-4.1%" width="116.3%" height="108.1%" filterUnits="objectBoundingBox" id="filter-1">
            <feOffset dx="0" dy="0" in="SourceAlpha" result="shadowOffsetOuter1"></feOffset>
            <feGaussianBlur stdDeviation="4" in="shadowOffsetOuter1" result="shadowBlurOuter1"></feGaussianBlur>
            <feColorMatrix values="0 0 0 0 0   0 0 0 0 0   0 0 0 0 0  0 0 0 0.135817308 0" type="matrix" in="shadowBlurOuter1" result="shadowMatrixOuter1"></feColorMatrix>
            <feMerge>
                <feMergeNode in="shadowMatrixOuter1"></feMergeNode>
                <feMergeNode in="SourceGraphic"></feMergeNode>
            </feMerge>
        </filter>
        <path d="M89.7209677,1.91482979 L85.28,14.4051223 L53.1259677,14.4051223 L56.9116935,3.75335904 C57.4023387,2.37367819 56.7240323,0.866481383 55.3904839,0.297885638 L55.3904839,0.297885638 L55.2206452,0.233082447 C53.7749194,-0.274890957 52.1897581,0.478707447 51.6791935,1.91482979 L51.6791935,1.91482979 L0.312419355,146.471936 C-0.177177419,147.851617 0.501129032,149.358814 1.83362903,149.92741 L1.83362903,149.92741 L2.00346774,149.992213 L2.1775,150.047609 C3.57395161,150.437473 5.05427419,149.689101 5.54491935,148.310465 L5.54491935,148.310465 L8.43322581,140.177665 L40.5904032,140.177665 L38.3541935,146.471936 C37.8635484,147.851617 38.5418548,149.358814 39.8754032,149.92741 L39.8754032,149.92741 L40.0452419,149.992213 C41.4909677,150.501231 43.076129,149.746588 43.5866935,148.310465 L43.5866935,148.310465 L94.9524194,3.75335904 C95.4430645,2.37367819 94.7637097,0.866481383 93.4322581,0.297885638 L93.4322581,0.297885638 L93.261371,0.233082447 C92.9552419,0.125425532 92.6428226,0.0742101064 92.3356452,0.0742101064 L92.3356452,0.0742101064 C91.1929032,0.0742101064 90.1235484,0.782864362 89.7209677,1.91482979 L89.7209677,1.91482979 Z M51.3531452,19.3918324 L83.5092742,19.3918324 L74.5518548,44.6013191 L42.3957258,44.6013191 L51.3531452,19.3918324 Z M40.6239516,49.5880293 L72.7800806,49.5880293 L63.8226613,74.797516 L31.6654839,74.797516 L40.6239516,49.5880293 Z M29.8926613,79.7842261 L62.0487903,79.7842261 L53.0924194,104.993713 L20.9352419,104.993713 L29.8926613,79.7842261 Z M19.1634677,109.979378 L51.3206452,109.979378 L42.3621774,135.190955 L10.205,135.190955 L19.1634677,109.979378 Z" id="path-2"></path>
        <linearGradient x1="53.5631561%" y1="3.20372283%" x2="46.20218%" y2="99.8767967%" id="linearGradient-4">
            <stop stop-color="#D6752D" offset="0%"></stop>
            <stop stop-color="#EDB66E" offset="100%"></stop>
        </linearGradient>
        <path d="M40.9028226,0.233082447 L40.7382258,0.295795213 C39.3920968,0.861255319 38.7064516,2.37158777 39.1991935,3.75335904 L39.1991935,3.75335904 L43.0100806,14.4051223 L10.646371,14.4051223 L6.17814516,1.91482979 C5.66548387,0.478707447 4.0708871,-0.274890957 2.61572581,0.233082447 L2.61572581,0.233082447 L2.45112903,0.295795213 C1.105,0.861255319 0.419354839,2.37158777 0.913145161,3.75335904 L0.913145161,3.75335904 L52.6091129,148.310465 C53.123871,149.746588 54.7195161,150.501231 56.173629,149.992213 L56.173629,149.992213 L56.3382258,149.9295 C57.6843548,149.365085 58.3710484,147.853707 57.8762097,146.471936 L57.8762097,146.471936 L55.6242742,140.177665 L87.9869355,140.177665 L90.8962097,148.310465 C91.4099194,149.746588 93.0045161,150.501231 94.4596774,149.992213 L94.4596774,149.992213 L94.6232258,149.9295 C95.9704032,149.365085 96.6560484,147.853707 96.1622581,146.471936 L96.1622581,146.471936 L44.4662903,1.91482979 C44.0605645,0.782864362 42.983871,0.0742101064 41.8337903,0.0742101064 L41.8337903,0.0742101064 C41.5245161,0.0742101064 41.2110484,0.125425532 40.9028226,0.233082447 L40.9028226,0.233082447 Z M12.4296774,19.3918324 L44.7923387,19.3918324 L53.8074194,44.6013191 L21.4437097,44.6013191 L12.4296774,19.3918324 Z M23.2270161,49.5880293 L55.5907258,49.5880293 L64.6058065,74.797516 L32.2431452,74.797516 L23.2270161,49.5880293 Z M34.0264516,79.7842261 L66.3891129,79.7842261 L75.4031452,104.993713 L43.0404839,104.993713 L34.0264516,79.7842261 Z M44.8248387,109.979378 L77.1875,109.979378 L86.203629,135.190955 L53.8420161,135.190955 L44.8248387,109.979378 Z" id="path-5"></path>
        <linearGradient x1="50.0001907%" y1="0.000148204868%" x2="50.0001907%" y2="99.9998149%" id="linearGradient-7">
            <stop stop-color="#F6A859" offset="0%"></stop>
            <stop stop-color="#D4702A" offset="100%"></stop>
        </linearGradient>
        <path d="M4.62653226,0 C2.06951613,0 0,1.87197606 0,4.18085106 L0,4.18085106 C0,6.48972606 2.07056452,8.36170213 4.62653226,8.36170213 L4.62653226,8.36170213 L75.0519355,8.36170213 C77.6079032,8.36170213 79.6774194,6.48972606 79.6774194,4.18085106 L79.6774194,4.18085106 C79.6774194,1.87093085 77.6068548,0 75.0519355,0 L75.0519355,0 L4.62653226,0 Z" id="path-8"></path>
        <linearGradient x1="50%" y1="26.5529637%" x2="50%" y2="99.9999762%" id="linearGradient-10">
            <stop stop-color="#F6A56E" offset="0%"></stop>
            <stop stop-color="#DB7034" offset="100%"></stop>
        </linearGradient>
        <path d="M0.538870968,5.0765984 C0.538870968,6.50017819 4.98717742,9.9556516 5.76927419,10.7050691 L5.76927419,10.7050691 C6.82185484,10.3768723 13.9550806,7.29976596 14.8944355,6.71444681 L14.8944355,6.71444681 C14.0420968,5.747625 11.0678226,1.76745479 10.2574194,0.616675532 L10.2574194,0.616675532 C8.00443548,1.44239362 2.57169355,3.81084574 0.538870968,5.0765984" id="path-11"></path>
        <path d="M0.221209677,3.1032367 C0.241129032,4.32927128 0.895322581,7.15970745 1.15846774,7.8767234 L1.15846774,7.8767234 C1.41217742,9.22400266 8.76870968,7.39069947 9.7091129,6.80538032 L9.7091129,6.80538032 C9.63362903,5.73612766 9.26145161,1.69324468 9.20483871,0.113928191 L9.20483871,0.113928191 C6.94975806,0.939646277 2.39137097,2.52418883 0.221209677,3.1032367" id="path-13"></path>
        <path d="M0.0366935484,8.19446809 C0.459193548,11.0249043 3.8675,15.6604229 4.9316129,16.9794814 L4.9316129,16.9794814 C5.99572581,18.2974947 11.6381452,37.1520878 11.6381452,37.1520878 L11.6381452,37.1520878 L17.7408065,33.9662793 C17.7408065,33.9662793 9.78459677,13.9671782 9.23524194,12.9606383 L9.23524194,12.9606383 C8.68483871,11.9551436 11.0164516,3.97180851 9.88209677,3.80771011 L9.88209677,3.80771011 C8.74774194,3.6436117 7.77483871,8.68989894 7.77483871,8.68989894 L7.77483871,8.68989894 C7.77483871,8.68989894 5.10564516,0.364779255 4.01217742,0.0156781915 L4.01217742,0.0156781915 C3.97967742,0.00522606383 3.94612903,0 3.90943548,0 L3.90943548,0 C2.72790323,0 -0.372177419,5.44869415 0.0366935484,8.19446809" id="path-15"></path>
        <path d="M0.683548387,3.03216223 C5.63612903,20.5311144 11.1108065,23.8026303 11.1108065,23.8026303 L11.1108065,23.8026303 L24.0143548,21.5209309 C13.5430645,12.4213085 7.64379032,0.519470745 7.64379032,0.519470745 L7.64379032,0.519470745 L0.683548387,3.03216223 Z" id="path-17"></path>
        <path d="M10.6285484,0.197545213 C10.0005645,0.529922872 10.6222581,4.73899468 10.0624194,6.56498138 L10.0624194,6.56498138 C9.35266129,8.88221809 7.85137097,11.0520798 4.81314516,12.2091303 L4.81314516,12.2091303 C4.03524194,12.5059707 0.36483871,17.2334681 0.783145161,18.0163324 L0.783145161,18.0163324 C1.20040323,18.800242 3.90314516,18.0027447 3.90314516,18.0027447 L3.90314516,18.0027447 L11.7041935,13.8657926 C12.5156452,13.4351649 12.9528226,12.5383723 12.8008065,11.6332181 L12.8008065,11.6332181 C12.5533871,10.1741011 12.3258871,8.13593617 12.9077419,7.87045213 L12.9077419,7.87045213 C13.826129,7.4502766 16.1294355,11.5203351 16.1294355,11.5203351 L16.1294355,11.5203351 L17.6642742,10.7061144 C17.6642742,10.7061144 15.9071774,7.95197872 15.158629,6.67681915 L15.158629,6.67681915 C14.411129,5.39956915 15.158629,4.5362234 14.1846774,2.70605585 L14.1846774,2.70605585 C13.3323387,1.11001596 11.7377419,0.133787234 10.9283871,0.133787234 L10.9283871,0.133787234 C10.8099194,0.133787234 10.7092742,0.154691489 10.6285484,0.197545213" id="path-19"></path>
        <linearGradient x1="60.9398319%" y1="23.5951203%" x2="52.1241945%" y2="66.9493403%" id="linearGradient-21">
            <stop stop-color="#2DA5C1" offset="0%"></stop>
            <stop stop-color="#0B85A5" offset="100%"></stop>
        </linearGradient>
        <path d="M14.3335484,5.49154787 C12.6162903,7.20569681 10.27,8.41814362 7.04306452,8.01782713 L7.04306452,8.01782713 C6.21693548,7.91435106 0.749596774,10.3706011 0.749596774,11.2579867 L0.749596774,11.2579867 C0.749596774,12.1453723 3.51209677,12.7045612 3.51209677,12.7045612 L3.51209677,12.7045612 L12.3468548,12.7045612 C13.2673387,12.7045612 14.0766935,12.1161064 14.3670968,11.2475346 L14.3670968,11.2475346 C14.8357258,9.84381383 15.5937097,7.93839096 16.2321774,7.9749734 L16.2321774,7.9749734 C17.2407258,8.03455053 17.3591935,12.7066516 17.3591935,12.7066516 L17.3591935,12.7066516 L19.096371,12.7066516 C19.096371,12.7066516 18.8416129,9.45290426 18.7818548,7.9749734 L18.7818548,7.9749734 C18.7220968,6.49808777 19.7904032,6.08627394 19.7904032,4.01361702 L19.7904032,4.01361702 C19.7904032,1.94200532 18.5449194,0.133787234 17.8330645,0.133787234 L17.8330645,0.133787234 C17.1212097,0.133787234 15.6901613,4.14113298 14.3335484,5.49154787" id="path-22"></path>
        <linearGradient x1="76.157149%" y1="49.6337566%" x2="64.1955792%" y2="57.9243682%" id="linearGradient-24">
            <stop stop-color="#2DA5C1" offset="0%"></stop>
            <stop stop-color="#0B85A5" offset="100%"></stop>
        </linearGradient>
        <path d="M3.96080645,2.50014894 C-0.221209677,12.4547553 -1.13016129,39.1296303 3.96080645,55.2666702 L3.96080645,55.2666702 C7.52112903,57.0748883 48.2174194,38.7334947 48.8726613,37.7520399 L48.8726613,37.7520399 C48.0329032,35.8152606 46.0430645,39.2864122 41.4983065,27.672008 L41.4983065,27.672008 C40.0557258,23.987633 36.1368548,15.002984 29.7416935,0.721196809 L29.7416935,0.721196809 C16.1137097,2.9067367 7.52008065,3.49937234 3.96080645,2.50014894" id="path-25"></path>
        <linearGradient x1="42.2660632%" y1="22.9974525%" x2="49.5674803%" y2="66.3518213%" id="linearGradient-27">
            <stop stop-color="#2DA5C1" offset="0%"></stop>
            <stop stop-color="#17A5CC" offset="100%"></stop>
        </linearGradient>
        <path d="M1.0075,7.41473936 C-0.120564516,14.5357739 9.13879032,16.6983191 8.81169355,17.8543245 L8.81169355,17.8543245 C8.48564516,19.0061489 4.70516129,18.6225559 5.33,21.5125691 L5.33,21.5125691 C5.74620968,23.4388963 4.30572581,25.7979415 1.0075,28.5876144 L1.0075,28.5876144 L22.671371,35.7786782 C26.1939516,26.5243644 27.0158871,18.2347819 25.1403226,10.9130665 L25.1403226,10.9130665 C25.6414516,3.7335 19.2651613,0.669981383 12.9360484,0.669981383 L12.9360484,0.669981383 C7.21185484,0.669981383 1.52540323,3.17744681 1.0075,7.41473936" id="path-28"></path>
        <linearGradient x1="50.0012791%" y1="6.46025603e-05%" x2="50.0012791%" y2="100.000735%" id="linearGradient-30">
            <stop stop-color="#E2642F" offset="0%"></stop>
            <stop stop-color="#AC3D0B" offset="100%"></stop>
        </linearGradient>
        <path d="M0.135241935,9.31807181 C-0.669919355,22.5567367 14.0001613,19.6886729 15.0380645,10.4155452 L15.0380645,10.4155452 C15.7310484,4.22684043 11.5689516,0.542465426 7.46451613,0.542465426 L7.46451613,0.542465426 C3.965,0.543510638 0.505322581,3.22448138 0.135241935,9.31807181" id="path-31"></path>
        <linearGradient x1="50.0016667%" y1="0.00150850922%" x2="50.0016667%" y2="99.9975992%" id="linearGradient-33">
            <stop stop-color="#E2642F" offset="0%"></stop>
            <stop stop-color="#AC3D0B" offset="100%"></stop>
        </linearGradient>
        <path d="M0.485403226,17.0129282 C0.879596774,19.6750851 1.60193548,22.5692793 2.82016129,22.5692793 L2.82016129,22.5692793 C4.03943548,22.5692793 33.818871,13.5825399 47.078871,4.06796809 L47.078871,4.06796809 C43.8928226,2.38622074 43.7649194,1.84689096 42.2992742,0.125425532 L42.2992742,0.125425532 C36.6893548,5.31072606 2.7541129,17.0129282 0.485403226,17.0129282" id="path-34"></path>
        <linearGradient x1="46.8342763%" y1="49.9095857%" x2="51.8232415%" y2="51.4432722%" id="linearGradient-36">
            <stop stop-color="#5BC3CA" offset="0%"></stop>
            <stop stop-color="#34B1C1" offset="100%"></stop>
        </linearGradient>
        <path d="M-0.000887096774,6.19497606 C9.8958871,19.2287793 13.5641935,17.503133 22.1179839,22.8253564 L22.1179839,22.8253564 C20.3545968,24.9669973 20.1826613,30.35925 20.3325806,32.3430638 L20.3325806,32.3430638 C20.6125,36.0326649 20.9553226,49.8942766 22.1179839,53.5180293 L22.1179839,53.5180293 C25.1457258,55.1548324 41.7909677,51.1997473 49.7094355,49.8461968 L49.7094355,49.8461968 C48.0131452,47.2551144 45.4404032,45.4678005 45.4404032,35.7818138 L45.4404032,35.7818138 C45.4404032,31.390875 46.0652419,13.116375 41.6305645,9.15292819 L41.6305645,9.15292819 C39.6281452,7.36561436 35.3559677,8.3104867 30.8720161,9.25640426 L30.8720161,9.25640426 C27.2477419,10.0204548 23.4840323,10.7845053 20.6733065,10.1040718 L20.6733065,10.1040718 C14.3871774,8.58328723 5.34064516,0.696111702 5.34064516,0.696111702 L5.34064516,0.696111702 L-0.000887096774,6.19497606 Z" id="path-37"></path>
        <linearGradient x1="55.2476991%" y1="-0.441034528%" x2="46.6917908%" y2="83.9960159%" id="linearGradient-39">
            <stop stop-color="#FBD491" offset="0%"></stop>
            <stop stop-color="#F6A859" offset="100%"></stop>
        </linearGradient>
        <path d="M0.720403226,12.5435984 C2.4775,17.8564149 4.1025,19.4106463 7.77395161,21.6254521 L7.77395161,21.6254521 C7.74564516,21.5596037 7.72258065,21.4718059 7.68903226,21.4279069 L7.68903226,21.4279069 C4.54177419,17.3233564 3.5091129,14.0716995 3.5091129,7.55793351 L3.5091129,7.55793351 C3.5091129,6.1813883 3.56677419,3.43352394 3.5175,0.195454787 L3.5175,0.195454787 C2.13677419,2.3172367 -1.48959677,5.83542287 0.720403226,12.5435984" id="path-40"></path>
        <polygon id="path-42" points="0.486451613 2.45233777 7.55991935 1.02562234 0.985483871 -0.00182180851"></polygon>
    </defs>
    <g id="女右" stroke="none" stroke-width="1" fill="none" fill-rule="evenodd">
        <g filter="url(#filter-1)" transform="translate(7.000000, 8.000000)">
            <g id="编组" transform="translate(25.161290, 242.489362)">
                <mask id="mask-3" fill="white">
                    <use xlink:href="#path-2"></use>
                </mask>
                <g id="Clip-65"></g>
                <path d="M89.7209677,1.91482979 L85.28,14.4051223 L53.1259677,14.4051223 L56.9116935,3.75335904 C57.4023387,2.37367819 56.7240323,0.866481383 55.3904839,0.297885638 L55.3904839,0.297885638 L55.2206452,0.233082447 C53.7749194,-0.274890957 52.1897581,0.478707447 51.6791935,1.91482979 L51.6791935,1.91482979 L0.312419355,146.471936 C-0.177177419,147.851617 0.501129032,149.358814 1.83362903,149.92741 L1.83362903,149.92741 L2.00346774,149.992213 L2.1775,150.047609 C3.57395161,150.437473 5.05427419,149.689101 5.54491935,148.310465 L5.54491935,148.310465 L8.43322581,140.177665 L40.5904032,140.177665 L38.3541935,146.471936 C37.8635484,147.851617 38.5418548,149.358814 39.8754032,149.92741 L39.8754032,149.92741 L40.0452419,149.992213 C41.4909677,150.501231 43.076129,149.746588 43.5866935,148.310465 L43.5866935,148.310465 L94.9524194,3.75335904 C95.4430645,2.37367819 94.7637097,0.866481383 93.4322581,0.297885638 L93.4322581,0.297885638 L93.261371,0.233082447 C92.9552419,0.125425532 92.6428226,0.0742101064 92.3356452,0.0742101064 L92.3356452,0.0742101064 C91.1929032,0.0742101064 90.1235484,0.782864362 89.7209677,1.91482979 L89.7209677,1.91482979 Z M51.3531452,19.3918324 L83.5092742,19.3918324 L74.5518548,44.6013191 L42.3957258,44.6013191 L51.3531452,19.3918324 Z M40.6239516,49.5880293 L72.7800806,49.5880293 L63.8226613,74.797516 L31.6654839,74.797516 L40.6239516,49.5880293 Z M29.8926613,79.7842261 L62.0487903,79.7842261 L53.0924194,104.993713 L20.9352419,104.993713 L29.8926613,79.7842261 Z M19.1634677,109.979378 L51.3206452,109.979378 L42.3621774,135.190955 L10.205,135.190955 L19.1634677,109.979378 Z" id="Fill-64" fill="url(#linearGradient-4)" mask="url(#mask-3)"></path>
            </g>
            <g id="编组" transform="translate(98.548387, 242.489362)">
                <mask id="mask-6" fill="white">
                    <use xlink:href="#path-5"></use>
                </mask>
                <g id="Clip-67"></g>
                <path d="M40.9028226,0.233082447 L40.7382258,0.295795213 C39.3920968,0.861255319 38.7064516,2.37158777 39.1991935,3.75335904 L39.1991935,3.75335904 L43.0100806,14.4051223 L10.646371,14.4051223 L6.17814516,1.91482979 C5.66548387,0.478707447 4.0708871,-0.274890957 2.61572581,0.233082447 L2.61572581,0.233082447 L2.45112903,0.295795213 C1.105,0.861255319 0.419354839,2.37158777 0.913145161,3.75335904 L0.913145161,3.75335904 L52.6091129,148.310465 C53.123871,149.746588 54.7195161,150.501231 56.173629,149.992213 L56.173629,149.992213 L56.3382258,149.9295 C57.6843548,149.365085 58.3710484,147.853707 57.8762097,146.471936 L57.8762097,146.471936 L55.6242742,140.177665 L87.9869355,140.177665 L90.8962097,148.310465 C91.4099194,149.746588 93.0045161,150.501231 94.4596774,149.992213 L94.4596774,149.992213 L94.6232258,149.9295 C95.9704032,149.365085 96.6560484,147.853707 96.1622581,146.471936 L96.1622581,146.471936 L44.4662903,1.91482979 C44.0605645,0.782864362 42.983871,0.0742101064 41.8337903,0.0742101064 L41.8337903,0.0742101064 C41.5245161,0.0742101064 41.2110484,0.125425532 40.9028226,0.233082447 L40.9028226,0.233082447 Z M12.4296774,19.3918324 L44.7923387,19.3918324 L53.8074194,44.6013191 L21.4437097,44.6013191 L12.4296774,19.3918324 Z M23.2270161,49.5880293 L55.5907258,49.5880293 L64.6058065,74.797516 L32.2431452,74.797516 L23.2270161,49.5880293 Z M34.0264516,79.7842261 L66.3891129,79.7842261 L75.4031452,104.993713 L43.0404839,104.993713 L34.0264516,79.7842261 Z M44.8248387,109.979378 L77.1875,109.979378 L86.203629,135.190955 L53.8420161,135.190955 L44.8248387,109.979378 Z" id="Fill-66" fill="url(#linearGradient-7)" mask="url(#mask-6)"></path>
            </g>
            <g id="编组" transform="translate(71.290323, 237.263298)">
                <mask id="mask-9" fill="white">
                    <use xlink:href="#path-8"></use>
                </mask>
                <g id="Clip-69"></g>
                <path d="M4.62653226,0 C2.06951613,0 0,1.87197606 0,4.18085106 L0,4.18085106 C0,6.48972606 2.07056452,8.36170213 4.62653226,8.36170213 L4.62653226,8.36170213 L75.0519355,8.36170213 C77.6079032,8.36170213 79.6774194,6.48972606 79.6774194,4.18085106 L79.6774194,4.18085106 C79.6774194,1.87093085 77.6068548,0 75.0519355,0 L75.0519355,0 L4.62653226,0 Z" id="Fill-68" fill="url(#linearGradient-10)" mask="url(#mask-9)"></path>
            </g>
            <g id="编组" transform="translate(80.725806, 82.526596)" fill="#FAC3C9">
                <path d="M8.15466935,0.0479303191 C4.02926613,0.136773404 4.59434677,6.31607128 3.72104032,7.21808989 C2.1631371,8.82667234 1.14620161,10.5930819 1.00257258,11.6665154 C0.78241129,13.3064543 2.87079839,11.6665154 1.99539516,16.4870367 C1.11999194,21.307558 7.37991129,20.5957681 7.61055645,22.5670394 C7.84225,24.5393559 5.23700806,33.7299117 5.23700806,33.7299117 L16.9013629,33.4947388 C16.9013629,33.4947388 16.0259597,25.6556431 16.6476532,16.7347521 C17.26725,7.81281596 22.4263629,-0.260407447 8.15466935,0.0479303191" id="Fill-70"></path>
                <polygon id="Fill-72" points="29.5954435 77.052204 14.589879 80.5463503 27.6852823 105.730752 31.4364113 112.886278 55.3364919 135.534994 57.0160081 128.537294 39.1210887 105.386877"></polygon>
            </g>
            <g id="编组" transform="translate(111.129032, 189.183511)">
                <mask id="mask-12" fill="white">
                    <use xlink:href="#path-11"></use>
                </mask>
                <g id="Clip-75"></g>
                <path d="M0.538870968,5.0765984 C0.538870968,6.50017819 4.98717742,9.9556516 5.76927419,10.7050691 L5.76927419,10.7050691 C6.82185484,10.3768723 13.9550806,7.29976596 14.8944355,6.71444681 L14.8944355,6.71444681 C14.0420968,5.747625 11.0678226,1.76745479 10.2574194,0.616675532 L10.2574194,0.616675532 C8.00443548,1.44239362 2.57169355,3.81084574 0.538870968,5.0765984" id="Fill-74" mask="url(#mask-12)"></path>
            </g>
            <polygon id="Fill-76" fill="#FAC3C9" points="100.94825 159.739031 85.3209919 157.961124 84.6206694 184.907754 84.6206694 192.23156 93.9030887 235.027797 98.5023629 229.508028 98.2287339 226.119448 95.1905081 188.489698"></polygon>
            <g id="编组" transform="translate(87.016129, 200.680851)">
                <mask id="mask-14" fill="white">
                    <use xlink:href="#path-13"></use>
                </mask>
                <g id="Clip-79"></g>
                <path d="M0.221209677,3.1032367 C0.241129032,4.32927128 0.895322581,7.15970745 1.15846774,7.8767234 L1.15846774,7.8767234 C1.41217742,9.22400266 8.76870968,7.39069947 9.7091129,6.80538032 L9.7091129,6.80538032 C9.63362903,5.73612766 9.26145161,1.69324468 9.20483871,0.113928191 L9.20483871,0.113928191 C6.94975806,0.939646277 2.39137097,2.52418883 0.221209677,3.1032367" id="Fill-78" mask="url(#mask-14)"></path>
            </g>
            <g id="编组" transform="translate(57.661290, 59.577128)">
                <mask id="mask-16" fill="white">
                    <use xlink:href="#path-15"></use>
                </mask>
                <g id="Clip-81"></g>
                <path d="M0.0366935484,8.19446809 C0.459193548,11.0249043 3.8675,15.6604229 4.9316129,16.9794814 L4.9316129,16.9794814 C5.99572581,18.2974947 11.6381452,37.1520878 11.6381452,37.1520878 L11.6381452,37.1520878 L17.7408065,33.9662793 C17.7408065,33.9662793 9.78459677,13.9671782 9.23524194,12.9606383 L9.23524194,12.9606383 C8.68483871,11.9551436 11.0164516,3.97180851 9.88209677,3.80771011 L9.88209677,3.80771011 C8.74774194,3.6436117 7.77483871,8.68989894 7.77483871,8.68989894 L7.77483871,8.68989894 C7.77483871,8.68989894 5.10564516,0.364779255 4.01217742,0.0156781915 L4.01217742,0.0156781915 C3.97967742,0.00522606383 3.94612903,0 3.90943548,0 L3.90943548,0 C2.72790323,0 -0.372177419,5.44869415 0.0366935484,8.19446809" id="Fill-80" mask="url(#mask-16)"></path>
            </g>
            <g id="编组">
                <path d="M63.2800161,3.76705133 L9.0396129,3.76705133 C4.04719355,3.76705133 0.000419354839,7.80575346 0.000419354839,12.7882827 L0.000419354839,80.4480407 C0.000419354839,85.4295247 4.04719355,89.4692721 9.0396129,89.4692721 L63.2800161,89.4692721 C68.2724355,89.4692721 72.3202581,85.4295247 72.3202581,80.4480407 L72.3202581,12.7882827 C72.3202581,7.80575346 68.2724355,3.76705133 63.2800161,3.76705133" id="Fill-82" fill="#C6D4E4"></path>
                <path d="M63.2800161,0.000104521277 L9.0396129,0.000104521277 C4.04719355,0.000104521277 0.000419354839,4.03880665 0.000419354839,9.0213359 L0.000419354839,76.6810939 C0.000419354839,81.6625779 4.04719355,85.7023253 9.0396129,85.7023253 L63.2800161,85.7023253 C68.2724355,85.7023253 72.3202581,81.6625779 72.3202581,76.6810939 L72.3202581,9.0213359 C72.3202581,4.03880665 68.2724355,0.000104521277 63.2800161,0.000104521277" id="Fill-84" fill="#E6F1FD"></path>
                <path d="M36.160129,13.5317426 C26.1889194,13.5317426 18.0796452,21.6237798 18.0796452,31.5742053 C18.0796452,41.5246309 26.1889194,49.6166681 36.160129,49.6166681 C46.1313387,49.6166681 54.2395645,41.5246309 54.2395645,31.5742053 C54.2395645,21.6237798 46.1313387,13.5317426 36.160129,13.5317426 M36.160129,54.1278064 C23.699,54.1278064 13.5600484,44.0091016 13.5600484,31.5752505 C13.5600484,19.139309 23.7000484,9.02269468 36.160129,9.02269468 C48.6202097,9.02269468 58.7602097,19.1403543 58.7602097,31.5752505 C58.7602097,44.0091016 48.6212581,54.1278064 36.160129,54.1278064" id="Fill-86" fill="#E6E8FD"></path>
                <path d="M36.160129,54.1277019 C23.699,54.1277019 13.5600484,44.0089971 13.5600484,31.575146 C13.5600484,19.1392045 23.7000484,9.02259016 36.160129,9.02259016 C37.4087581,9.02259016 38.4204516,10.0312205 38.4204516,11.2781593 C38.4204516,12.5250981 37.4087581,13.5337285 36.160129,13.5337285 C26.1889194,13.5337285 18.0796452,21.6247205 18.0796452,31.5761912 C18.0796452,41.5266168 26.1889194,49.618654 36.160129,49.618654 C46.1313387,49.618654 54.2395645,41.5266168 54.2395645,31.5761912 C54.2395645,30.3292524 55.2502097,29.3206221 56.4998871,29.3206221 C57.7495645,29.3206221 58.7602097,30.3292524 58.7602097,31.5761912 C58.7602097,44.0089971 48.6212581,54.1277019 36.160129,54.1277019" id="Fill-88" fill="#5358FC"></path>
                <path d="M56.4992581,27.0639032 C58.9954677,27.0639032 61.0188548,29.0832543 61.0188548,31.5739963 C61.0188548,34.0647383 58.9954677,36.0840894 56.4992581,36.0840894 C54.0030484,36.0840894 51.9796613,34.0647383 51.9796613,31.5739963 C51.9796613,29.0832543 54.0030484,27.0639032 56.4992581,27.0639032" id="Fill-90" fill="#090BD9"></path>
                <path d="M45.1999516,63.1492468 L27.1194677,63.1492468 C25.877129,63.1492468 24.8601935,64.1641484 24.8601935,65.404816 C24.8601935,66.6454835 25.877129,67.6603851 27.1194677,67.6603851 L45.1999516,67.6603851 C46.4422903,67.6603851 47.4602742,66.6454835 47.4602742,65.404816 C47.4592258,64.1631032 46.4422903,63.1492468 45.1999516,63.1492468" id="Fill-92" fill="#090BD9"></path>
                <path d="M45.1999516,72.1703737 L27.1194677,72.1703737 C25.877129,72.1703737 24.8601935,73.1863205 24.8601935,74.4259428 C24.8601935,75.6666104 25.877129,76.681512 27.1194677,76.681512 L45.1999516,76.681512 C46.4422903,76.681512 47.4602742,75.6666104 47.4602742,74.4259428 C47.4592258,73.1852753 46.4422903,72.1703737 45.1999516,72.1703737" id="Fill-94" fill="#8184F4"></path>
                <path d="M61.4668306,101.579734 C61.4668306,101.579734 48.1869113,87.3334843 47.4226371,86.4774551 C46.6604597,85.6214258 46.1855403,77.5387955 45.04175,77.6339098 C43.9000565,77.7290242 44.0898145,82.8641545 44.0898145,82.8641545 C44.0898145,82.8641545 39.6121532,75.3511652 38.4694113,75.2560508 C37.3266694,75.1609364 34.8493306,82.5788114 35.8977177,85.2420136 C36.9471532,87.9041705 41.7173145,90.4628513 43.0508629,91.5101545 C44.3844113,92.5564125 57.4515081,105.927819 57.4515081,105.927819 L61.4668306,101.579734 Z" id="Fill-96" fill="#FAC3C9"></path>
            </g>
            <g id="编组" transform="translate(68.145161, 93.023936)">
                <mask id="mask-18" fill="white">
                    <use xlink:href="#path-17"></use>
                </mask>
                <g id="Clip-99"></g>
                <path d="M0.683548387,3.03216223 C5.63612903,20.5311144 11.1108065,23.8026303 11.1108065,23.8026303 L11.1108065,23.8026303 L24.0143548,21.5209309 C13.5430645,12.4213085 7.64379032,0.519470745 7.64379032,0.519470745 L7.64379032,0.519470745 L0.683548387,3.03216223 Z" id="Fill-98" mask="url(#mask-18)"></path>
            </g>
            <g id="编组" transform="translate(88.064516, 183.957447)">
                <polygon id="Fill-100" fill="#F09A5E" points="30.7594677 0.950411968 25.1254355 7.59378431 31.7826935 3.95644388"></polygon>
                <polygon id="Fill-102" fill="#FAC3C9" points="9.81940323 43.7225043 0.752951613 49.8265468 3.9798871 52.3172888 9.10230645 49.056225 10.9883548 45.8913207"></polygon>
                <path d="M45.6591452,30.98805 L43.5529355,37.1161324 C46.617371,36.9405367 48.5034194,35.9371324 49.2100323,34.1038293 C50.2689032,31.3559649 53.3857581,29.0366378 50.1399516,29.0366378 C47.977129,29.0366378 46.4831774,29.6867601 45.6591452,30.98805" id="Fill-104" fill="#FAC3C9"></path>
            </g>
            <g id="编组" transform="translate(126.854839, 207.997340)">
                <mask id="mask-20" fill="white">
                    <use xlink:href="#path-19"></use>
                </mask>
                <g id="Clip-107"></g>
                <path d="M10.6285484,0.197545213 C10.0005645,0.529922872 10.6222581,4.73899468 10.0624194,6.56498138 L10.0624194,6.56498138 C9.35266129,8.88221809 7.85137097,11.0520798 4.81314516,12.2091303 L4.81314516,12.2091303 C4.03524194,12.5059707 0.36483871,17.2334681 0.783145161,18.0163324 L0.783145161,18.0163324 C1.20040323,18.800242 3.90314516,18.0027447 3.90314516,18.0027447 L3.90314516,18.0027447 L11.7041935,13.8657926 C12.5156452,13.4351649 12.9528226,12.5383723 12.8008065,11.6332181 L12.8008065,11.6332181 C12.5533871,10.1741011 12.3258871,8.13593617 12.9077419,7.87045213 L12.9077419,7.87045213 C13.826129,7.4502766 16.1294355,11.5203351 16.1294355,11.5203351 L16.1294355,11.5203351 L17.6642742,10.7061144 C17.6642742,10.7061144 15.9071774,7.95197872 15.158629,6.67681915 L15.158629,6.67681915 C14.411129,5.39956915 15.158629,4.5362234 14.1846774,2.70605585 L14.1846774,2.70605585 C13.3323387,1.11001596 11.7377419,0.133787234 10.9283871,0.133787234 L10.9283871,0.133787234 C10.8099194,0.133787234 10.7092742,0.154691489 10.6285484,0.197545213" id="Fill-106" fill="url(#linearGradient-21)" mask="url(#mask-20)"></path>
            </g>
            <g id="编组" transform="translate(81.774194, 225.765957)">
                <mask id="mask-23" fill="white">
                    <use xlink:href="#path-22"></use>
                </mask>
                <g id="Clip-109"></g>
                <path d="M14.3335484,5.49154787 C12.6162903,7.20569681 10.27,8.41814362 7.04306452,8.01782713 L7.04306452,8.01782713 C6.21693548,7.91435106 0.749596774,10.3706011 0.749596774,11.2579867 L0.749596774,11.2579867 C0.749596774,12.1453723 3.51209677,12.7045612 3.51209677,12.7045612 L3.51209677,12.7045612 L12.3468548,12.7045612 C13.2673387,12.7045612 14.0766935,12.1161064 14.3670968,11.2475346 L14.3670968,11.2475346 C14.8357258,9.84381383 15.5937097,7.93839096 16.2321774,7.9749734 L16.2321774,7.9749734 C17.2407258,8.03455053 17.3591935,12.7066516 17.3591935,12.7066516 L17.3591935,12.7066516 L19.096371,12.7066516 C19.096371,12.7066516 18.8416129,9.45290426 18.7818548,7.9749734 L18.7818548,7.9749734 C18.7220968,6.49808777 19.7904032,6.08627394 19.7904032,4.01361702 L19.7904032,4.01361702 C19.7904032,1.94200532 18.5449194,0.133787234 17.8330645,0.133787234 L17.8330645,0.133787234 C17.1212097,0.133787234 15.6901613,4.14113298 14.3335484,5.49154787" id="Fill-108" fill="url(#linearGradient-24)" mask="url(#mask-23)"></path>
            </g>
            <g id="编组" transform="translate(76.532258, 149.465426)">
                <mask id="mask-26" fill="white">
                    <use xlink:href="#path-25"></use>
                </mask>
                <g id="Clip-111"></g>
                <path d="M3.96080645,2.50014894 C-0.221209677,12.4547553 -1.13016129,39.1296303 3.96080645,55.2666702 L3.96080645,55.2666702 C7.52112903,57.0748883 48.2174194,38.7334947 48.8726613,37.7520399 L48.8726613,37.7520399 C48.0329032,35.8152606 46.0430645,39.2864122 41.4983065,27.672008 L41.4983065,27.672008 C40.0557258,23.987633 36.1368548,15.002984 29.7416935,0.721196809 L29.7416935,0.721196809 C16.1137097,2.9067367 7.52008065,3.49937234 3.96080645,2.50014894" id="Fill-110" fill="url(#linearGradient-27)" mask="url(#mask-26)"></path>
            </g>
            <g id="编组" transform="translate(84.919355, 76.300532)">
                <mask id="mask-29" fill="white">
                    <use xlink:href="#path-28"></use>
                </mask>
                <g id="Clip-113"></g>
                <path d="M1.0075,7.41473936 C-0.120564516,14.5357739 9.13879032,16.6983191 8.81169355,17.8543245 L8.81169355,17.8543245 C8.48564516,19.0061489 4.70516129,18.6225559 5.33,21.5125691 L5.33,21.5125691 C5.74620968,23.4388963 4.30572581,25.7979415 1.0075,28.5876144 L1.0075,28.5876144 L22.671371,35.7786782 C26.1939516,26.5243644 27.0158871,18.2347819 25.1403226,10.9130665 L25.1403226,10.9130665 C25.6414516,3.7335 19.2651613,0.669981383 12.9360484,0.669981383 L12.9360484,0.669981383 C7.21185484,0.669981383 1.52540323,3.17744681 1.0075,7.41473936" id="Fill-112" fill="url(#linearGradient-30)" mask="url(#mask-29)"></path>
            </g>
            <g id="编组" transform="translate(104.838710, 80.481383)">
                <mask id="mask-32" fill="white">
                    <use xlink:href="#path-31"></use>
                </mask>
                <g id="Clip-115"></g>
                <path d="M0.135241935,9.31807181 C-0.669919355,22.5567367 14.0001613,19.6886729 15.0380645,10.4155452 L15.0380645,10.4155452 C15.7310484,4.22684043 11.5689516,0.542465426 7.46451613,0.542465426 L7.46451613,0.542465426 C3.965,0.543510638 0.505322581,3.22448138 0.135241935,9.31807181" id="Fill-114" fill="url(#linearGradient-33)" mask="url(#mask-32)"></path>
            </g>
            <g id="编组" transform="translate(78.629032, 182.912234)">
                <mask id="mask-35" fill="white">
                    <use xlink:href="#path-34"></use>
                </mask>
                <g id="Clip-117"></g>
                <path d="M0.485403226,17.0129282 C0.879596774,19.6750851 1.60193548,22.5692793 2.82016129,22.5692793 L2.82016129,22.5692793 C4.03943548,22.5692793 33.818871,13.5825399 47.078871,4.06796809 L47.078871,4.06796809 C43.8928226,2.38622074 43.7649194,1.84689096 42.2992742,0.125425532 L42.2992742,0.125425532 C36.6893548,5.31072606 2.7541129,17.0129282 0.485403226,17.0129282" id="Fill-116" fill="url(#linearGradient-36)" mask="url(#mask-35)"></path>
            </g>
            <g id="编组" transform="translate(83.870968, 150.510638)" stroke="#FFFFFF">
                <path d="M16.3759113,0.900450798 C19.5053468,15.2219561 24.2639758,26.741246 30.6517984,35.4583205" id="Stroke-118"></path>
                <path d="M11.6817581,2.05886011 C14.1811129,20.5110463 17.3105484,32.8706872 21.0711129,39.1388282" id="Stroke-120"></path>
                <path d="M6.3783871,2.05886011 C7.57564516,22.9213069 9.73637097,36.4704 12.8616129,42.7050941" id="Stroke-122"></path>
                <path d="M1.96058871,2.05886011 C-0.245217742,20.8246101 -0.176024194,35.7878761 2.16607258,46.9455223" id="Stroke-124"></path>
            </g>
            <g id="编组" transform="translate(56.564516, 100.340426)">
                <mask id="mask-38" fill="white">
                    <use xlink:href="#path-37"></use>
                </mask>
                <g id="Clip-127"></g>
                <path d="M-0.000887096774,6.19497606 C9.8958871,19.2287793 13.5641935,17.503133 22.1179839,22.8253564 L22.1179839,22.8253564 C20.3545968,24.9669973 20.1826613,30.35925 20.3325806,32.3430638 L20.3325806,32.3430638 C20.6125,36.0326649 20.9553226,49.8942766 22.1179839,53.5180293 L22.1179839,53.5180293 C25.1457258,55.1548324 41.7909677,51.1997473 49.7094355,49.8461968 L49.7094355,49.8461968 C48.0131452,47.2551144 45.4404032,45.4678005 45.4404032,35.7818138 L45.4404032,35.7818138 C45.4404032,31.390875 46.0652419,13.116375 41.6305645,9.15292819 L41.6305645,9.15292819 C39.6281452,7.36561436 35.3559677,8.3104867 30.8720161,9.25640426 L30.8720161,9.25640426 C27.2477419,10.0204548 23.4840323,10.7845053 20.6733065,10.1040718 L20.6733065,10.1040718 C14.3871774,8.58328723 5.34064516,0.696111702 5.34064516,0.696111702 L5.34064516,0.696111702 L-0.000887096774,6.19497606 Z" id="Fill-126" fill="url(#linearGradient-39)" mask="url(#mask-38)"></path>
            </g>
            <path d="M78.6833387,123.165782 C80.0755968,123.664348 80.4939032,123.664348 81.712129,124.333285 C79.3050323,134.803181 80.6511613,141.304404 83.3895484,154.248319 C81.4164839,154.248319 79.2851129,153.996423 78.6833387,153.85741 C77.3644677,148.396173 74.8797903,127.642428 78.6833387,123.165782" id="Fill-130" fill="#F1D5AD"></path>
            <g id="编组" transform="translate(98.500000, 128.561170)">
                <mask id="mask-41" fill="white">
                    <use xlink:href="#path-40"></use>
                </mask>
                <g id="Clip-129"></g>
                <path d="M0.720403226,12.5435984 C2.4775,17.8564149 4.1025,19.4106463 7.77395161,21.6254521 L7.77395161,21.6254521 C7.74564516,21.5596037 7.72258065,21.4718059 7.68903226,21.4279069 L7.68903226,21.4279069 C4.54177419,17.3233564 3.5091129,14.0716995 3.5091129,7.55793351 L3.5091129,7.55793351 C3.5091129,6.1813883 3.56677419,3.43352394 3.5175,0.195454787 L3.5175,0.195454787 C2.13677419,2.3172367 -1.48959677,5.83542287 0.720403226,12.5435984" id="Fill-128" mask="url(#mask-41)"></path>
            </g>
            <g id="编组" transform="translate(80.725806, 124.335106)">
                <mask id="mask-43" fill="white">
                    <use xlink:href="#path-42"></use>
                </mask>
                <g id="Clip-133"></g>
                <polygon id="Fill-132" mask="url(#mask-43)" points="0.486451613 2.45233777 7.55991935 1.02562234 0.985483871 -0.00182180851"></polygon>
            </g>
        </g>
    </g>
</svg>