<?xml version="1.0" encoding="UTF-8"?>
<svg width="130px" height="200px" viewBox="0 0 130 200" version="1.1" xmlns="http://www.w3.org/2000/svg" xmlns:xlink="http://www.w3.org/1999/xlink">
    <!-- Generator: Sketch 63.1 (92452) - https://sketch.com -->
    <title>右边树</title>
    <desc>Created with Sketch.</desc>
    <defs>
        <path d="M20.9976807,5.79967742 C19.8139496,10.2416935 20.4506218,20.651129 20.833042,26.538871 L20.833042,26.538871 C21.2165042,32.4266129 8.38927731,35.6179032 8.7977479,48.0329032 L8.7977479,48.0329032 C9.20413445,60.4489516 20.6788235,65.5231452 8.11001681,74.0884677 L8.11001681,74.0884677 C-4.4577479,82.6537903 1.69119328,97.1603226 5.81341176,107.399919 L5.81341176,107.399919 C9.57613445,116.74629 20.6235966,122.598387 27.0215798,123.084839 L27.0215798,123.084839 C36.4445378,123.797742 46.3520336,111.694113 47.1356303,95.6894355 L47.1356303,95.6894355 C47.9202689,79.6837097 40.7501513,80.8023387 40.4802689,73.2497581 L40.4802689,73.2497581 C40.2124706,65.696129 54.7652773,55.7773387 48.1578487,46.3953226 L48.1578487,46.3953226 C41.5514622,37.0143548 40.2729076,29.073871 39.3225882,15.9218548 L39.3225882,15.9218548 C38.4712605,4.15266129 33.4112269,0.0691933466 28.7909244,0.0691933466 L28.7909244,0.0691933466 C25.1949244,0.0691933466 21.8646387,2.54548387 20.9976807,5.79967742" id="path-1"></path>
        <linearGradient x1="48.2997692%" y1="11.8141057%" x2="49.7772914%" y2="51.1179195%" id="linearGradient-3">
            <stop stop-color="#9EE6ED" offset="0%"></stop>
            <stop stop-color="#83DBC8" offset="100%"></stop>
        </linearGradient>
        <path d="M15.686521,22.4040323 C14.3464874,40.7927419 12.5448403,51.8962097 3.23337815,65.013629 L3.23337815,65.013629 C-6.07704202,78.13 14.4340168,91.9980645 14.0536807,102.557419 L14.0536807,102.557419 C13.6743866,113.117823 3.56786555,111.553629 4.67448739,133.9325 L4.67448739,133.9325 C5.77902521,156.311371 19.7441345,173.235484 33.0225546,172.236371 L33.0225546,172.236371 C42.0391261,171.559113 57.6089412,163.3775 62.9128067,150.308306 L62.9128067,150.308306 C68.7230924,135.992581 77.3905882,115.709435 59.6773445,103.73371 L59.6773445,103.73371 C41.9630588,91.7548387 58.1351597,84.6625 58.7103529,67.3033065 L58.7103529,67.3033065 C59.2845042,49.9430645 41.2034286,45.481129 41.7452773,37.2502419 L41.7452773,37.2502419 C42.285042,29.0183065 43.1822185,14.4625 41.5129076,8.25185484 L41.5129076,8.25185484 C40.2916639,3.70185484 35.5984202,0.240080645 30.5290084,0.240080645 L30.5290084,0.240080645 C24.0174454,0.240080645 16.8858824,5.95064516 15.686521,22.4040323" id="path-4"></path>
        <linearGradient x1="49.0393509%" y1="0.251491692%" x2="50.7423456%" y2="100.251553%" id="linearGradient-6">
            <stop stop-color="#B3E2E6" offset="0%"></stop>
            <stop stop-color="#72DAC3" offset="100%"></stop>
        </linearGradient>
    </defs>
    <g id="右边树" stroke="none" stroke-width="1" fill="none" fill-rule="evenodd">
        <g id="右边树叶" transform="translate(2.000000, 3.000000)">
            <g id="编组" transform="translate(0.000000, 53.467742)">
                <mask id="mask-2" fill="white">
                    <use xlink:href="#path-1"></use>
                </mask>
                <g id="Clip-49"></g>
                <path d="M20.9976807,5.79967742 C19.8139496,10.2416935 20.4506218,20.651129 20.833042,26.538871 L20.833042,26.538871 C21.2165042,32.4266129 8.38927731,35.6179032 8.7977479,48.0329032 L8.7977479,48.0329032 C9.20413445,60.4489516 20.6788235,65.5231452 8.11001681,74.0884677 L8.11001681,74.0884677 C-4.4577479,82.6537903 1.69119328,97.1603226 5.81341176,107.399919 L5.81341176,107.399919 C9.57613445,116.74629 20.6235966,122.598387 27.0215798,123.084839 L27.0215798,123.084839 C36.4445378,123.797742 46.3520336,111.694113 47.1356303,95.6894355 L47.1356303,95.6894355 C47.9202689,79.6837097 40.7501513,80.8023387 40.4802689,73.2497581 L40.4802689,73.2497581 C40.2124706,65.696129 54.7652773,55.7773387 48.1578487,46.3953226 L48.1578487,46.3953226 C41.5514622,37.0143548 40.2729076,29.073871 39.3225882,15.9218548 L39.3225882,15.9218548 C38.4712605,4.15266129 33.4112269,0.0691933466 28.7909244,0.0691933466 L28.7909244,0.0691933466 C25.1949244,0.0691933466 21.8646387,2.54548387 20.9976807,5.79967742" id="Fill-48" fill="url(#linearGradient-3)" mask="url(#mask-2)"></path>
            </g>
            <path d="M37.5879429,106.753379 C37.3045143,106.60346 36.9575227,106.725073 36.8137244,107.023863 C36.7022286,107.255556 34.0857244,112.613863 29.8165815,110.863056 C30.3219597,107.316363 30.5512034,103.995073 30.3094555,100.997734 C30.3146655,100.975718 30.3271697,100.959992 30.3302958,100.936927 C30.3573882,100.797492 30.3282118,100.663298 30.2719429,100.545879 C30.220884,100.015395 30.156279,99.4912016 30.0729176,98.9816855 C28.7766487,91.1774919 29.6477748,81.0752339 30.1677412,75.0407177 C30.4709681,71.5202339 30.6085143,69.7945887 30.4334555,69.0649113 C30.3553042,68.7357177 30.0364471,68.5365242 29.7342622,68.6235403 C29.4258252,68.7053145 29.2382622,69.0387016 29.3174555,69.3657984 C29.4518756,69.9245887 29.2518084,72.243621 29.0204807,74.9285403 C28.4953042,81.0249113 27.616884,91.2278145 28.9392034,99.1945081 C28.9819261,99.4482177 29.0111025,99.7113629 29.0444471,99.9724113 C27.2011193,99.3580565 22.8090185,97.4321694 21.352279,92.6546694 C21.2553714,92.3338629 20.9323462,92.1577339 20.6270353,92.2615242 C20.3238084,92.3653145 20.1581277,92.7091855 20.2560773,93.0320887 C22.033758,98.8600726 27.5220605,100.82475 29.1778252,101.294427 C29.6467328,107.693782 27.8930185,115.750637 26.0403126,124.235234 C24.5689849,130.970073 23.0476403,137.931363 22.5505983,144.515234 C22.3328168,147.399347 22.4338924,150.785637 22.7266992,154.397331 C19.5881445,152.761847 11.0279765,147.682411 10.8018588,140.815476 C10.7914387,140.478944 10.5111361,140.245153 10.2068672,140.226282 C9.8890521,140.237815 9.64001008,140.520879 9.65147227,140.859508 C9.91927059,149.031685 20.2414891,154.55354 22.8454891,155.817895 C23.6947328,164.893782 25.6829008,175.200476 27.1531866,182.829589 C28.2004134,188.254992 29.104884,192.941282 28.9235731,193.858621 C28.8579261,194.188863 29.0559092,194.513863 29.3674723,194.583056 C29.4081109,194.592492 29.4477076,194.596685 29.4883462,194.596685 C29.7530185,194.596685 29.9937244,194.400637 30.0510353,194.111282 C30.2719429,192.997895 29.596716,189.39354 28.2837748,182.585315 C26.8312034,175.056847 24.8753378,164.907411 24.0188,155.968863 C24.080279,155.911202 24.1459261,155.851444 24.1803126,155.763379 C24.2928504,155.478218 24.1771866,155.162653 23.9333546,155.009589 C23.6176235,151.413621 23.4977916,148.046202 23.6728504,145.15475 C25.6255899,145.022653 32.2069681,144.097976 33.9919429,137.643056 C34.0815563,137.319105 33.9064975,136.979427 33.6011866,136.885073 C33.2958756,136.791766 32.9759765,136.975234 32.885321,137.300234 C31.3233378,142.952089 25.6672706,143.811766 23.7635059,143.934427 C24.3032706,137.639911 25.752716,130.972169 27.1625647,124.513056 C28.1014218,120.218863 29.0131866,116.035798 29.6321445,112.097008 C30.2750689,112.331847 30.8940269,112.445073 31.4838084,112.445073 C34.622363,112.445073 36.9387664,109.483379 37.843237,107.579508 C37.9849513,107.273379 37.8703294,106.906444 37.5879429,106.753379" id="Fill-50" fill="#FFFFFF"></path>
            <g id="编组" transform="translate(53.142857, 0.000000)">
                <mask id="mask-5" fill="white">
                    <use xlink:href="#path-4"></use>
                </mask>
                <g id="Clip-53"></g>
                <path d="M15.686521,22.4040323 C14.3464874,40.7927419 12.5448403,51.8962097 3.23337815,65.013629 L3.23337815,65.013629 C-6.07704202,78.13 14.4340168,91.9980645 14.0536807,102.557419 L14.0536807,102.557419 C13.6743866,113.117823 3.56786555,111.553629 4.67448739,133.9325 L4.67448739,133.9325 C5.77902521,156.311371 19.7441345,173.235484 33.0225546,172.236371 L33.0225546,172.236371 C42.0391261,171.559113 57.6089412,163.3775 62.9128067,150.308306 L62.9128067,150.308306 C68.7230924,135.992581 77.3905882,115.709435 59.6773445,103.73371 L59.6773445,103.73371 C41.9630588,91.7548387 58.1351597,84.6625 58.7103529,67.3033065 L58.7103529,67.3033065 C59.2845042,49.9430645 41.2034286,45.481129 41.7452773,37.2502419 L41.7452773,37.2502419 C42.285042,29.0183065 43.1822185,14.4625 41.5129076,8.25185484 L41.5129076,8.25185484 C40.2916639,3.70185484 35.5984202,0.240080645 30.5290084,0.240080645 L30.5290084,0.240080645 C24.0174454,0.240080645 16.8858824,5.95064516 15.686521,22.4040323" id="Fill-52" fill="url(#linearGradient-6)" mask="url(#mask-5)"></path>
            </g>
            <path d="M110.416543,122.319516 C110.427627,121.984032 110.177543,121.700968 109.857644,121.688387 C109.551291,121.716694 109.270988,121.941048 109.260568,122.276532 C108.926081,132.304355 96.0259126,139.608468 91.9328706,141.679032 C92.3882319,136.5325 92.5528706,131.661694 92.2340134,127.459758 C91.5369042,118.27379 89.3934756,108.546855 87.3219462,99.1407258 C84.6887697,87.1828226 82.2004336,75.8340323 82.9100471,66.82 C84.9857445,66.2612097 92.9467529,63.6192742 95.4788538,55.3841935 C95.5768034,55.0644355 95.4111227,54.7205645 95.1078958,54.6167742 C94.8036269,54.5119355 94.4764336,54.6901613 94.377442,55.008871 C92.1985849,62.0949194 85.4181815,64.7725 83.031963,65.5105645 C83.090316,65.013629 83.151795,64.5166935 83.2330723,64.0344355 C85.0909882,52.928871 83.8551563,38.6833871 83.1153244,30.1725806 C82.7745849,26.2390323 82.5047025,23.1347581 82.7016437,22.3117742 C82.780837,21.9846774 82.5932739,21.6533871 82.284837,21.5716129 C81.978484,21.4845968 81.6596269,21.6858871 81.5814756,22.0119355 C81.3449378,22.991129 81.5512571,25.5219355 81.9638958,30.2837097 C82.6974756,38.7337097 83.9260134,52.8785484 82.0941479,63.8237097 C81.975358,64.5355645 81.8878286,65.2694355 81.8148874,66.0127419 C81.7346521,66.1416935 81.6992235,66.3020968 81.7315261,66.4666935 C81.7388202,66.5033871 81.7565345,66.5337903 81.7700807,66.5683871 C81.418921,70.8091129 81.7544504,75.5237097 82.4890723,80.5633065 C82.4828202,80.5654032 82.4776101,80.5643548 82.473442,80.5664516 C76.1744504,83.2891129 72.3179462,75.4702419 72.1574756,75.1379032 C72.0136773,74.8370161 71.6635597,74.7175 71.3801311,74.8684677 C71.0946185,75.0215323 70.9799966,75.3874194 71.123795,75.6883065 C71.1623496,75.7658871 74.3988538,82.3623387 79.8631899,82.3623387 C80.7416101,82.3623387 81.6825513,82.1809677 82.6745513,81.7825806 C83.5456773,87.3662903 84.8513244,93.3127419 86.1955261,99.4185484 C88.2055765,108.544758 90.2718958,117.972903 91.0158958,126.868468 C88.6150891,126.709113 79.9632235,125.624032 77.6780807,117.419355 C77.5884672,117.098548 77.2675261,116.912984 76.9601311,117.00629 C76.6516941,117.099597 76.4776773,117.439274 76.5672908,117.761129 C79.1150218,126.903065 88.7265849,127.976613 91.1075933,128.100323 C91.3816437,132.30121 91.1992908,137.141613 90.719963,142.264032 C90.7147529,142.267177 90.7001647,142.273468 90.6970387,142.274516 C90.4042319,142.403468 90.2635597,142.759919 90.3854756,143.070242 C90.4344504,143.191855 90.5167697,143.285161 90.6157613,143.350161 C89.3966017,155.474758 86.6456773,168.968548 84.6001983,178.991129 C82.7672908,187.971613 81.8242655,192.727097 82.1254084,194.235726 C82.1827193,194.522984 82.4223832,194.720081 82.6912235,194.720081 C82.7297782,194.720081 82.7704168,194.716935 82.8110555,194.706452 C83.1236605,194.63621 83.3237277,194.314355 83.2580807,193.984113 C82.9923664,192.66 84.2615429,186.443065 85.7318286,179.246935 C87.805442,169.093306 90.6001311,155.387742 91.8078286,143.090161 C95.1985513,141.475645 110.035829,133.760565 110.416543,122.319516" id="Fill-54" fill="#FFFFFF"></path>
        </g>
    </g>
</svg>