<?xml version="1.0" encoding="UTF-8"?>
<svg width="206px" height="60px" viewBox="0 0 206 60" version="1.1" xmlns="http://www.w3.org/2000/svg" xmlns:xlink="http://www.w3.org/1999/xlink">
    <!-- Generator: Sketch 63.1 (92452) - https://sketch.com -->
    <title>右边草</title>
    <desc>Created with Sketch.</desc>
    <defs>
        <path d="M31.286067,14.4864444 C23.4862629,14.6880556 16.8741134,19.1213889 14.1629124,25.3407222 L14.1629124,25.3407222 C13.9211959,25.3291111 13.6815722,25.3069444 13.4367165,25.3069444 L13.4367165,25.3069444 C6.01570619,25.3069444 0,30.7388333 0,37.4363333 L0,37.4363333 C0,38.6945556 0.212417526,39.9073889 0.607953608,41.0495 L0.607953608,41.0495 C1.06208763,42.3657778 2.38995876,43.2777778 3.91769072,43.2777778 L3.91769072,43.2777778 L115.070655,43.2777778 C117.314119,43.2777778 119.391206,42.085 120.220995,40.2029444 L120.220995,40.2029444 C121.201464,37.9841667 121.605371,35.5015 121.257969,32.9006111 L121.257969,32.9006111 C120.41667,26.6158333 115.079026,21.4415 108.204232,20.1843333 L108.204232,20.1843333 C105.197948,19.6343889 102.329789,19.874 99.7357835,20.653 L99.7357835,20.653 C96.4208144,12.9368889 88.1208351,7.46383333 78.3988093,7.46383333 L78.3988093,7.46383333 C77.7908557,7.46383333 77.188134,7.49127778 76.5895979,7.5335 L76.5895979,7.5335 C71.5062268,2.88483333 64.4451753,0 56.637,0 L56.637,0 C45.4416546,0 35.7824124,5.92483333 31.286067,14.4864444" id="path-1"></path>
        <linearGradient x1="50.0003068%" y1="32.7176349%" x2="50.0003068%" y2="100%" id="linearGradient-3">
            <stop stop-color="#A3E8E1" offset="0%"></stop>
            <stop stop-color="#7CCCB5" offset="100%"></stop>
        </linearGradient>
        <path d="M53.335634,11.6396111 C41.9770515,2.35916667 18.3516186,11.6396111 21.0460773,28.9517778 L21.0460773,28.9517778 C7.24940206,26.9778889 0.232298969,31.4006667 0,42.2222222 L0,42.2222222 L154.038284,42.2222222 C154.038284,33.3745556 149.012464,29.108 138.959778,29.4193889 L138.959778,29.4193889 C138.959778,21.0076667 128.911278,10.9809444 114.859284,18.8691111 L114.859284,18.8691111 C113.921716,6.74605556 95.380701,0.7315 86.9174845,11.6396111 L86.9174845,11.6396111 C86.9174845,6.194 78.7127268,0 69.9617526,0 L69.9617526,0 C63.7985052,0 57.3652887,3.07166667 53.335634,11.6396111" id="path-4"></path>
        <linearGradient x1="49.9999118%" y1="32.7176285%" x2="49.9999118%" y2="99.9999952%" id="linearGradient-6">
            <stop stop-color="#A1E9D8" offset="0%"></stop>
            <stop stop-color="#8CD8DD" offset="100%"></stop>
        </linearGradient>
    </defs>
    <g id="右边草" stroke="none" stroke-width="1" fill="none" fill-rule="evenodd">
        <g id="右边草丛" transform="translate(1.000000, 1.000000)">
            <g id="编组" transform="translate(81.618557, 0.000000)">
                <mask id="mask-2" fill="white">
                    <use xlink:href="#path-1"></use>
                </mask>
                <g id="Clip-57"></g>
                <path d="M31.286067,14.4864444 C23.4862629,14.6880556 16.8741134,19.1213889 14.1629124,25.3407222 L14.1629124,25.3407222 C13.9211959,25.3291111 13.6815722,25.3069444 13.4367165,25.3069444 L13.4367165,25.3069444 C6.01570619,25.3069444 0,30.7388333 0,37.4363333 L0,37.4363333 C0,38.6945556 0.212417526,39.9073889 0.607953608,41.0495 L0.607953608,41.0495 C1.06208763,42.3657778 2.38995876,43.2777778 3.91769072,43.2777778 L3.91769072,43.2777778 L115.070655,43.2777778 C117.314119,43.2777778 119.391206,42.085 120.220995,40.2029444 L120.220995,40.2029444 C121.201464,37.9841667 121.605371,35.5015 121.257969,32.9006111 L121.257969,32.9006111 C120.41667,26.6158333 115.079026,21.4415 108.204232,20.1843333 L108.204232,20.1843333 C105.197948,19.6343889 102.329789,19.874 99.7357835,20.653 L99.7357835,20.653 C96.4208144,12.9368889 88.1208351,7.46383333 78.3988093,7.46383333 L78.3988093,7.46383333 C77.7908557,7.46383333 77.188134,7.49127778 76.5895979,7.5335 L76.5895979,7.5335 C71.5062268,2.88483333 64.4451753,0 56.637,0 L56.637,0 C45.4416546,0 35.7824124,5.92483333 31.286067,14.4864444" id="Fill-56" fill="url(#linearGradient-3)" mask="url(#mask-2)"></path>
            </g>
            <g id="编组" transform="translate(0.000000, 14.777778)">
                <mask id="mask-5" fill="white">
                    <use xlink:href="#path-4"></use>
                </mask>
                <g id="Clip-59"></g>
                <path d="M53.335634,11.6396111 C41.9770515,2.35916667 18.3516186,11.6396111 21.0460773,28.9517778 L21.0460773,28.9517778 C7.24940206,26.9778889 0.232298969,31.4006667 0,42.2222222 L0,42.2222222 L154.038284,42.2222222 C154.038284,33.3745556 149.012464,29.108 138.959778,29.4193889 L138.959778,29.4193889 C138.959778,21.0076667 128.911278,10.9809444 114.859284,18.8691111 L114.859284,18.8691111 C113.921716,6.74605556 95.380701,0.7315 86.9174845,11.6396111 L86.9174845,11.6396111 C86.9174845,6.194 78.7127268,0 69.9617526,0 L69.9617526,0 C63.7985052,0 57.3652887,3.07166667 53.335634,11.6396111" id="Fill-58" fill="url(#linearGradient-6)" mask="url(#mask-5)"></path>
            </g>
        </g>
    </g>
</svg>