<?xml version="1.0" encoding="UTF-8"?>
<svg width="16px" height="16px" viewBox="0 0 16 16" version="1.1" xmlns="http://www.w3.org/2000/svg" xmlns:xlink="http://www.w3.org/1999/xlink">
    <!-- Generator: Sketch 63.1 (92452) - https://sketch.com -->
    <title>设置</title>
    <desc>Created with Sketch.</desc>
    <g id="设置" stroke="none" stroke-width="1" fill="none" fill-rule="evenodd" opacity="0.8">
        <g id="设置按钮" transform="translate(1.000000, 1.000000)" fill="#000000">
            <g opacity="0.65" id="形状">
                <path d="M8.78675,1.26991667 C9.132375,1.37754167 9.46720833,1.516375 9.78833333,1.68554167 L9.99425,3.02925 L10.1240417,3.87625 L10.9710417,4.00604167 L12.31475,4.21195833 C12.4836375,4.53240296 12.6227626,4.86766984 12.730375,5.21354167 L11.925375,6.30991667 L11.417875,7 L11.9250833,7.69066667 L12.7300833,8.78704167 C12.62242,9.13289507 12.4832969,9.46815736 12.3144583,9.788625 L10.97075,9.99454167 L10.12375,10.1243333 L9.99395833,10.9713333 L9.78804167,12.3150417 C9.46759704,12.4839292 9.13233016,12.6230542 8.78645833,12.7306667 L7.69008333,11.9256667 L7,11.417875 L6.30933333,11.9250833 L5.21295833,12.7300833 C4.86710493,12.62242 4.53184264,12.4832969 4.211375,12.3144583 L4.00545833,10.97075 L3.87566667,10.12375 L3.02866667,9.99395833 L1.68495833,9.78804167 C1.51607079,9.46759704 1.37694578,9.13233016 1.26933333,8.78645833 L2.07433333,7.69008333 L2.582125,7 L2.07491667,6.30933333 L1.26991667,5.21295833 C1.37757999,4.86710493 1.51670311,4.53184264 1.68554167,4.211375 L3.02925,4.00545833 L3.87625,3.87566667 L4.00604167,3.02866667 L4.21195833,1.68495833 C4.53240296,1.51607079 4.86766984,1.37694578 5.21354167,1.26933333 L6.30991667,2.07433333 L7,2.582125 L7.69066667,2.07491667 L8.78675,1.26991667 M8.54495833,-1.03620816e-15 L7,1.13458333 L5.45504167,-1.03620816e-15 C4.63371419,0.180717427 3.85085952,0.505392777 3.14270833,0.959 L2.8525,2.8525 L0.958708333,3.14241667 C0.505308452,3.85074841 0.180741601,4.6336783 -2.59052039e-16,5.45504167 L1.13458333,7 L-2.59052039e-16,8.54495833 C0.180717427,9.36628581 0.505392777,10.1491405 0.959,10.8572917 L2.85279167,11.1472083 L3.14270833,13.041 C3.85083095,13.4946619 4.63369568,13.8193414 5.45504167,14 L7,12.8654167 L8.54495833,14 C9.36628581,13.8192826 10.1491405,13.4946072 10.8572917,13.041 L11.1472083,11.1472083 L13.041,10.8572917 C13.4946072,10.1491405 13.8192826,9.36628581 14,8.54495833 L12.8654167,7 L14,5.45504167 C13.8193414,4.63369568 13.4946619,3.85083095 13.041,3.14270833 L11.1475,2.8525 L10.8575833,0.958708333 C10.1492516,0.505308452 9.3663217,0.180741601 8.54495833,-1.03620816e-15 Z M7,9.953125 C5.39175,9.953125 4.08333333,8.64470833 4.08333333,7.03645833 C4.08333333,5.42820833 5.39175,4.11979167 7,4.11979167 C8.60825,4.11979167 9.91666667,5.42820833 9.91666667,7.03645833 C9.91666667,8.64470833 8.60825,9.953125 7,9.953125 Z M7,5.28645833 C6.034875,5.28645833 5.25,6.07133333 5.25,7.03645833 C5.25,8.00158333 6.034875,8.78645833 7,8.78645833 C7.965125,8.78645833 8.75,8.00158333 8.75,7.03645833 C8.75,6.07133333 7.965125,5.28645833 7,5.28645833 Z" fill-rule="nonzero"></path>
            </g>
        </g>
    </g>
</svg>